<?xml version="1.0" encoding="utf-8" standalone="no"?>
<!DOCTYPE svg PUBLIC "-//W3C//DTD SVG 1.1//EN"
  "http://www.w3.org/Graphics/SVG/1.1/DTD/svg11.dtd">
<svg xmlns:xlink="http://www.w3.org/1999/xlink" width="847.345pt" height="517.910625pt" viewBox="0 0 847.345 517.910625" xmlns="http://www.w3.org/2000/svg" version="1.1">
 <metadata>
  <rdf:RDF xmlns:dc="http://purl.org/dc/elements/1.1/" xmlns:cc="http://creativecommons.org/ns#" xmlns:rdf="http://www.w3.org/1999/02/22-rdf-syntax-ns#">
   <cc:Work>
    <dc:type rdf:resource="http://purl.org/dc/dcmitype/StillImage"/>
    <dc:date>2022-10-17T21:38:31.798667</dc:date>
    <dc:format>image/svg+xml</dc:format>
    <dc:creator>
     <cc:Agent>
      <dc:title>Matplotlib v3.5.2, https://matplotlib.org/</dc:title>
     </cc:Agent>
    </dc:creator>
   </cc:Work>
  </rdf:RDF>
 </metadata>
 <defs>
  <style type="text/css">*{stroke-linejoin: round; stroke-linecap: butt}</style>
 </defs>
 <g id="figure_1">
  <g id="patch_1">
   <path d="M 0 517.910625 
L 847.345 517.910625 
L 847.345 0 
L 0 0 
z
" style="fill: #ffffff"/>
  </g>
  <g id="axes_1">
   <g id="patch_2">
    <path d="M 44.625 465.92 
L 714.225 465.92 
L 714.225 22.4 
L 44.625 22.4 
z
" style="fill: #ffffff"/>
   </g>
   <g id="matplotlib.axis_1">
    <g id="xtick_1">
     <g id="line2d_1"/>
     <g id="text_1">
      <!-- 1920 -->
      <g style="fill: #262626" transform="translate(46.606111 483.735625)scale(0.2 -0.2)">
       <defs>
        <path id="ArialMT-31" d="M 2384 0 
L 1822 0 
L 1822 3584 
Q 1619 3391 1289 3197 
Q 959 3003 697 2906 
L 697 3450 
Q 1169 3672 1522 3987 
Q 1875 4303 2022 4600 
L 2384 4600 
L 2384 0 
z
" transform="scale(0.015625)"/>
        <path id="ArialMT-39" d="M 350 1059 
L 891 1109 
Q 959 728 1153 556 
Q 1347 384 1650 384 
Q 1909 384 2104 503 
Q 2300 622 2425 820 
Q 2550 1019 2634 1356 
Q 2719 1694 2719 2044 
Q 2719 2081 2716 2156 
Q 2547 1888 2255 1720 
Q 1963 1553 1622 1553 
Q 1053 1553 659 1965 
Q 266 2378 266 3053 
Q 266 3750 677 4175 
Q 1088 4600 1706 4600 
Q 2153 4600 2523 4359 
Q 2894 4119 3086 3673 
Q 3278 3228 3278 2384 
Q 3278 1506 3087 986 
Q 2897 466 2520 194 
Q 2144 -78 1638 -78 
Q 1100 -78 759 220 
Q 419 519 350 1059 
z
M 2653 3081 
Q 2653 3566 2395 3850 
Q 2138 4134 1775 4134 
Q 1400 4134 1122 3828 
Q 844 3522 844 3034 
Q 844 2597 1108 2323 
Q 1372 2050 1759 2050 
Q 2150 2050 2401 2323 
Q 2653 2597 2653 3081 
z
" transform="scale(0.015625)"/>
        <path id="ArialMT-32" d="M 3222 541 
L 3222 0 
L 194 0 
Q 188 203 259 391 
Q 375 700 629 1000 
Q 884 1300 1366 1694 
Q 2113 2306 2375 2664 
Q 2638 3022 2638 3341 
Q 2638 3675 2398 3904 
Q 2159 4134 1775 4134 
Q 1369 4134 1125 3890 
Q 881 3647 878 3216 
L 300 3275 
Q 359 3922 746 4261 
Q 1134 4600 1788 4600 
Q 2447 4600 2831 4234 
Q 3216 3869 3216 3328 
Q 3216 3053 3103 2787 
Q 2991 2522 2730 2228 
Q 2469 1934 1863 1422 
Q 1356 997 1212 845 
Q 1069 694 975 541 
L 3222 541 
z
" transform="scale(0.015625)"/>
        <path id="ArialMT-30" d="M 266 2259 
Q 266 3072 433 3567 
Q 600 4063 929 4331 
Q 1259 4600 1759 4600 
Q 2128 4600 2406 4451 
Q 2684 4303 2865 4023 
Q 3047 3744 3150 3342 
Q 3253 2941 3253 2259 
Q 3253 1453 3087 958 
Q 2922 463 2592 192 
Q 2263 -78 1759 -78 
Q 1097 -78 719 397 
Q 266 969 266 2259 
z
M 844 2259 
Q 844 1131 1108 757 
Q 1372 384 1759 384 
Q 2147 384 2411 759 
Q 2675 1134 2675 2259 
Q 2675 3391 2411 3762 
Q 2147 4134 1753 4134 
Q 1366 4134 1134 3806 
Q 844 3388 844 2259 
z
" transform="scale(0.015625)"/>
       </defs>
       <use xlink:href="#ArialMT-31"/>
       <use xlink:href="#ArialMT-39" x="55.615234"/>
       <use xlink:href="#ArialMT-32" x="111.230469"/>
       <use xlink:href="#ArialMT-30" x="166.845703"/>
      </g>
     </g>
    </g>
    <g id="xtick_2">
     <g id="line2d_2"/>
     <g id="text_2">
      <!-- 1940 -->
      <g style="fill: #262626" transform="translate(170.836167 483.735625)scale(0.2 -0.2)">
       <defs>
        <path id="ArialMT-34" d="M 2069 0 
L 2069 1097 
L 81 1097 
L 81 1613 
L 2172 4581 
L 2631 4581 
L 2631 1613 
L 3250 1613 
L 3250 1097 
L 2631 1097 
L 2631 0 
L 2069 0 
z
M 2069 1613 
L 2069 3678 
L 634 1613 
L 2069 1613 
z
" transform="scale(0.015625)"/>
       </defs>
       <use xlink:href="#ArialMT-31"/>
       <use xlink:href="#ArialMT-39" x="55.615234"/>
       <use xlink:href="#ArialMT-34" x="111.230469"/>
       <use xlink:href="#ArialMT-30" x="166.845703"/>
      </g>
     </g>
    </g>
    <g id="xtick_3">
     <g id="line2d_3"/>
     <g id="text_3">
      <!-- 1960 -->
      <g style="fill: #262626" transform="translate(295.066222 483.735625)scale(0.2 -0.2)">
       <defs>
        <path id="ArialMT-36" d="M 3184 3459 
L 2625 3416 
Q 2550 3747 2413 3897 
Q 2184 4138 1850 4138 
Q 1581 4138 1378 3988 
Q 1113 3794 959 3422 
Q 806 3050 800 2363 
Q 1003 2672 1297 2822 
Q 1591 2972 1913 2972 
Q 2475 2972 2870 2558 
Q 3266 2144 3266 1488 
Q 3266 1056 3080 686 
Q 2894 316 2569 119 
Q 2244 -78 1831 -78 
Q 1128 -78 684 439 
Q 241 956 241 2144 
Q 241 3472 731 4075 
Q 1159 4600 1884 4600 
Q 2425 4600 2770 4297 
Q 3116 3994 3184 3459 
z
M 888 1484 
Q 888 1194 1011 928 
Q 1134 663 1356 523 
Q 1578 384 1822 384 
Q 2178 384 2434 671 
Q 2691 959 2691 1453 
Q 2691 1928 2437 2201 
Q 2184 2475 1800 2475 
Q 1419 2475 1153 2201 
Q 888 1928 888 1484 
z
" transform="scale(0.015625)"/>
       </defs>
       <use xlink:href="#ArialMT-31"/>
       <use xlink:href="#ArialMT-39" x="55.615234"/>
       <use xlink:href="#ArialMT-36" x="111.230469"/>
       <use xlink:href="#ArialMT-30" x="166.845703"/>
      </g>
     </g>
    </g>
    <g id="xtick_4">
     <g id="line2d_4"/>
     <g id="text_4">
      <!-- 1980 -->
      <g style="fill: #262626" transform="translate(419.296278 483.735625)scale(0.2 -0.2)">
       <defs>
        <path id="ArialMT-38" d="M 1131 2484 
Q 781 2613 612 2850 
Q 444 3088 444 3419 
Q 444 3919 803 4259 
Q 1163 4600 1759 4600 
Q 2359 4600 2725 4251 
Q 3091 3903 3091 3403 
Q 3091 3084 2923 2848 
Q 2756 2613 2416 2484 
Q 2838 2347 3058 2040 
Q 3278 1734 3278 1309 
Q 3278 722 2862 322 
Q 2447 -78 1769 -78 
Q 1091 -78 675 323 
Q 259 725 259 1325 
Q 259 1772 486 2073 
Q 713 2375 1131 2484 
z
M 1019 3438 
Q 1019 3113 1228 2906 
Q 1438 2700 1772 2700 
Q 2097 2700 2305 2904 
Q 2513 3109 2513 3406 
Q 2513 3716 2298 3927 
Q 2084 4138 1766 4138 
Q 1444 4138 1231 3931 
Q 1019 3725 1019 3438 
z
M 838 1322 
Q 838 1081 952 856 
Q 1066 631 1291 507 
Q 1516 384 1775 384 
Q 2178 384 2440 643 
Q 2703 903 2703 1303 
Q 2703 1709 2433 1975 
Q 2163 2241 1756 2241 
Q 1359 2241 1098 1978 
Q 838 1716 838 1322 
z
" transform="scale(0.015625)"/>
       </defs>
       <use xlink:href="#ArialMT-31"/>
       <use xlink:href="#ArialMT-39" x="55.615234"/>
       <use xlink:href="#ArialMT-38" x="111.230469"/>
       <use xlink:href="#ArialMT-30" x="166.845703"/>
      </g>
     </g>
    </g>
    <g id="xtick_5">
     <g id="line2d_5"/>
     <g id="text_5">
      <!-- 2000 -->
      <g style="fill: #262626" transform="translate(543.526333 483.735625)scale(0.2 -0.2)">
       <use xlink:href="#ArialMT-32"/>
       <use xlink:href="#ArialMT-30" x="55.615234"/>
       <use xlink:href="#ArialMT-30" x="111.230469"/>
       <use xlink:href="#ArialMT-30" x="166.845703"/>
      </g>
     </g>
    </g>
    <g id="xtick_6">
     <g id="line2d_6"/>
     <g id="text_6">
      <!-- 2020 -->
      <g style="fill: #262626" transform="translate(667.756389 483.735625)scale(0.2 -0.2)">
       <use xlink:href="#ArialMT-32"/>
       <use xlink:href="#ArialMT-30" x="55.615234"/>
       <use xlink:href="#ArialMT-32" x="111.230469"/>
       <use xlink:href="#ArialMT-30" x="166.845703"/>
      </g>
     </g>
    </g>
    <g id="text_7">
     <!-- Year ($t$) -->
     <g style="fill: #262626" transform="translate(344.925 506.310625)scale(0.2 -0.2)">
      <defs>
       <path id="ArialMT-59" d="M 1784 0 
L 1784 1941 
L 19 4581 
L 756 4581 
L 1659 3200 
Q 1909 2813 2125 2425 
Q 2331 2784 2625 3234 
L 3513 4581 
L 4219 4581 
L 2391 1941 
L 2391 0 
L 1784 0 
z
" transform="scale(0.015625)"/>
       <path id="ArialMT-65" d="M 2694 1069 
L 3275 997 
Q 3138 488 2766 206 
Q 2394 -75 1816 -75 
Q 1088 -75 661 373 
Q 234 822 234 1631 
Q 234 2469 665 2931 
Q 1097 3394 1784 3394 
Q 2450 3394 2872 2941 
Q 3294 2488 3294 1666 
Q 3294 1616 3291 1516 
L 816 1516 
Q 847 969 1125 678 
Q 1403 388 1819 388 
Q 2128 388 2347 550 
Q 2566 713 2694 1069 
z
M 847 1978 
L 2700 1978 
Q 2663 2397 2488 2606 
Q 2219 2931 1791 2931 
Q 1403 2931 1139 2672 
Q 875 2413 847 1978 
z
" transform="scale(0.015625)"/>
       <path id="ArialMT-61" d="M 2588 409 
Q 2275 144 1986 34 
Q 1697 -75 1366 -75 
Q 819 -75 525 192 
Q 231 459 231 875 
Q 231 1119 342 1320 
Q 453 1522 633 1644 
Q 813 1766 1038 1828 
Q 1203 1872 1538 1913 
Q 2219 1994 2541 2106 
Q 2544 2222 2544 2253 
Q 2544 2597 2384 2738 
Q 2169 2928 1744 2928 
Q 1347 2928 1158 2789 
Q 969 2650 878 2297 
L 328 2372 
Q 403 2725 575 2942 
Q 747 3159 1072 3276 
Q 1397 3394 1825 3394 
Q 2250 3394 2515 3294 
Q 2781 3194 2906 3042 
Q 3031 2891 3081 2659 
Q 3109 2516 3109 2141 
L 3109 1391 
Q 3109 606 3145 398 
Q 3181 191 3288 0 
L 2700 0 
Q 2613 175 2588 409 
z
M 2541 1666 
Q 2234 1541 1622 1453 
Q 1275 1403 1131 1340 
Q 988 1278 909 1158 
Q 831 1038 831 891 
Q 831 666 1001 516 
Q 1172 366 1500 366 
Q 1825 366 2078 508 
Q 2331 650 2450 897 
Q 2541 1088 2541 1459 
L 2541 1666 
z
" transform="scale(0.015625)"/>
       <path id="ArialMT-72" d="M 416 0 
L 416 3319 
L 922 3319 
L 922 2816 
Q 1116 3169 1280 3281 
Q 1444 3394 1641 3394 
Q 1925 3394 2219 3213 
L 2025 2691 
Q 1819 2813 1613 2813 
Q 1428 2813 1281 2702 
Q 1134 2591 1072 2394 
Q 978 2094 978 1738 
L 978 0 
L 416 0 
z
" transform="scale(0.015625)"/>
       <path id="ArialMT-20" transform="scale(0.015625)"/>
       <path id="ArialMT-28" d="M 1497 -1347 
Q 1031 -759 709 28 
Q 388 816 388 1659 
Q 388 2403 628 3084 
Q 909 3875 1497 4659 
L 1900 4659 
Q 1522 4009 1400 3731 
Q 1209 3300 1100 2831 
Q 966 2247 966 1656 
Q 966 153 1900 -1347 
L 1497 -1347 
z
" transform="scale(0.015625)"/>
       <path id="DejaVuSans-Oblique-74" d="M 2706 3500 
L 2619 3053 
L 1472 3053 
L 1100 1153 
Q 1081 1047 1072 975 
Q 1063 903 1063 863 
Q 1063 663 1183 572 
Q 1303 481 1569 481 
L 2150 481 
L 2053 0 
L 1503 0 
Q 991 0 739 200 
Q 488 400 488 806 
Q 488 878 497 964 
Q 506 1050 525 1153 
L 897 3053 
L 409 3053 
L 500 3500 
L 978 3500 
L 1172 4494 
L 1747 4494 
L 1556 3500 
L 2706 3500 
z
" transform="scale(0.015625)"/>
       <path id="ArialMT-29" d="M 791 -1347 
L 388 -1347 
Q 1322 153 1322 1656 
Q 1322 2244 1188 2822 
Q 1081 3291 891 3722 
Q 769 4003 388 4659 
L 791 4659 
Q 1378 3875 1659 3084 
Q 1900 2403 1900 1659 
Q 1900 816 1576 28 
Q 1253 -759 791 -1347 
z
" transform="scale(0.015625)"/>
      </defs>
      <use xlink:href="#ArialMT-59" transform="translate(0 0.203125)"/>
      <use xlink:href="#ArialMT-65" transform="translate(66.699219 0.203125)"/>
      <use xlink:href="#ArialMT-61" transform="translate(122.314453 0.203125)"/>
      <use xlink:href="#ArialMT-72" transform="translate(177.929688 0.203125)"/>
      <use xlink:href="#ArialMT-20" transform="translate(211.230469 0.203125)"/>
      <use xlink:href="#ArialMT-28" transform="translate(239.013672 0.203125)"/>
      <use xlink:href="#DejaVuSans-Oblique-74" transform="translate(272.314453 0.203125)"/>
      <use xlink:href="#ArialMT-29" transform="translate(311.523438 0.203125)"/>
     </g>
    </g>
   </g>
   <g id="matplotlib.axis_2">
    <g id="ytick_1">
     <g id="line2d_7"/>
     <g id="text_8">
      <!-- −10 -->
      <g style="fill: #262626" transform="translate(7.2 450.582107)scale(0.2 -0.2)">
       <defs>
        <path id="ArialMT-2212" d="M 3381 1997 
L 356 1997 
L 356 2522 
L 3381 2522 
L 3381 1997 
z
" transform="scale(0.015625)"/>
       </defs>
       <use xlink:href="#ArialMT-2212"/>
       <use xlink:href="#ArialMT-31" x="58.398438"/>
       <use xlink:href="#ArialMT-30" x="114.013672"/>
      </g>
     </g>
    </g>
    <g id="ytick_2">
     <g id="line2d_8"/>
     <g id="text_9">
      <!-- −8 -->
      <g style="fill: #262626" transform="translate(18.321875 364.568994)scale(0.2 -0.2)">
       <use xlink:href="#ArialMT-2212"/>
       <use xlink:href="#ArialMT-38" x="58.398438"/>
      </g>
     </g>
    </g>
    <g id="ytick_3">
     <g id="line2d_9"/>
     <g id="text_10">
      <!-- −6 -->
      <g style="fill: #262626" transform="translate(18.321875 278.555881)scale(0.2 -0.2)">
       <use xlink:href="#ArialMT-2212"/>
       <use xlink:href="#ArialMT-36" x="58.398438"/>
      </g>
     </g>
    </g>
    <g id="ytick_4">
     <g id="line2d_10"/>
     <g id="text_11">
      <!-- −4 -->
      <g style="fill: #262626" transform="translate(18.321875 192.542768)scale(0.2 -0.2)">
       <use xlink:href="#ArialMT-2212"/>
       <use xlink:href="#ArialMT-34" x="58.398438"/>
      </g>
     </g>
    </g>
    <g id="ytick_5">
     <g id="line2d_11"/>
     <g id="text_12">
      <!-- −2 -->
      <g style="fill: #262626" transform="translate(18.321875 106.529655)scale(0.2 -0.2)">
       <use xlink:href="#ArialMT-2212"/>
       <use xlink:href="#ArialMT-32" x="58.398438"/>
      </g>
     </g>
    </g>
   </g>
   <g id="line2d_12">
    <path d="M 75.061364 270.876443 
L 81.272866 276.004066 
L 87.484369 279.649677 
L 93.695872 276.25585 
L 99.907375 279.377284 
L 106.118878 282.585305 
L 112.33038 280.908079 
L 118.541883 284.190213 
L 124.753386 278.2029 
L 130.964889 287.289381 
L 137.176391 285.49462 
L 143.387894 282.360844 
L 149.599397 286.493401 
L 155.8109 280.05092 
L 162.022403 276.528661 
L 168.233905 278.570305 
L 174.445408 284.283756 
L 180.656911 284.050278 
L 186.868414 280.178409 
L 193.079917 286.052053 
L 199.291419 282.360844 
L 205.502922 283.957241 
L 211.714425 282.540319 
L 217.925928 291.534205 
L 224.13743 295.175618 
L 230.348933 304.165832 
L 236.560436 303.869489 
L 242.771939 315.112285 
L 248.983442 310.180229 
L 255.194944 310.094814 
L 261.406447 318.919774 
L 267.61795 319.659463 
L 273.829453 319.606204 
L 280.040955 323.155149 
L 286.252458 330.857664 
L 292.463961 328.503316 
L 298.675464 331.344404 
L 304.886967 337.904022 
L 311.098469 325.470761 
L 317.309972 331.69548 
L 323.521475 349.522661 
L 329.732978 332.983626 
L 335.944481 336.620148 
L 342.155983 325.045851 
L 348.367486 345.550003 
L 354.578989 340.075688 
L 360.790492 342.817013 
L 367.001994 327.853658 
L 373.213497 336.462326 
L 379.425 344.208932 
L 385.636503 337.985551 
L 391.848006 336.383632 
L 398.059508 338.976149 
L 404.271011 343.926921 
L 410.482514 346.733744 
L 416.694017 337.177133 
L 422.905519 346.137801 
L 429.117022 356.960062 
L 435.328525 363.674211 
L 441.540028 356.833386 
L 447.751531 344.97013 
L 453.963033 347.848228 
L 460.174536 359.440642 
L 466.386039 377.351276 
L 472.597542 356.33038 
L 478.809045 361.788292 
L 485.020547 367.713895 
L 491.23205 368.702595 
L 497.443553 372.901689 
L 503.655056 365.802178 
L 509.866558 394.081407 
L 516.078061 390.894279 
L 522.289564 379.439383 
L 528.501067 369.885561 
L 534.71257 392.313766 
L 540.924072 376.744115 
L 547.135575 376.543617 
L 553.347078 390.339348 
L 559.558581 390.894279 
L 565.770083 375.554917 
L 571.981586 386.896986 
L 578.193089 396.239895 
L 584.404592 401.622731 
L 590.616095 378.382658 
L 596.827597 386.140253 
L 603.0391 399.18446 
L 609.250603 421.835969 
L 615.462106 417.998445 
L 621.673609 385.890939 
L 627.885111 399.18446 
L 634.096614 394.081407 
L 640.308117 399.867118 
L 646.51962 390.339348 
L 652.731122 408.612111 
L 658.942625 404.589877 
L 665.154128 422.413247 
L 671.365631 430.721736 
L 677.577134 431.432605 
L 683.788636 413.519731 
" clip-path="url(#p42a7c174e2)" style="fill: none; stroke: #1f77b4; stroke-width: 1.5; stroke-linecap: round"/>
   </g>
   <g id="line2d_13">
    <path d="M 75.061364 292.77108 
L 81.272866 294.965022 
L 87.484369 294.309785 
L 93.695872 301.534531 
L 99.907375 297.594793 
L 106.118878 297.118876 
L 112.33038 292.260779 
L 118.541883 292.148197 
L 124.753386 300.978703 
L 130.964889 303.943384 
L 137.176391 299.452887 
L 143.387894 304.128677 
L 149.599397 304.277489 
L 155.8109 297.594793 
L 162.022403 305.640487 
L 168.233905 298.076035 
L 174.445408 304.165832 
L 180.656911 302.92024 
L 186.868414 321.288694 
L 193.079917 303.72208 
L 199.291419 295.508652 
L 205.502922 306.495207 
L 211.714425 291.728617 
L 217.925928 319.393825 
L 224.13743 314.070225 
L 230.348933 333.716294 
L 236.560436 332.694019 
L 242.771939 325.715464 
L 248.983442 326.645707 
L 255.194944 315.35268 
L 261.406447 324.684955 
L 267.61795 328.17726 
L 273.829453 328.568825 
L 280.040955 337.579442 
L 286.252458 343.275999 
L 292.463961 342.634781 
L 298.675464 339.395728 
L 304.886967 341.73503 
L 311.098469 345.745044 
L 317.309972 350.822706 
L 323.521475 346.633845 
L 329.732978 353.546987 
L 335.944481 341.824163 
L 342.155983 348.36452 
L 348.367486 345.452813 
L 354.578989 352.276903 
L 360.790492 352.390827 
L 367.001994 349.736624 
L 373.213497 353.664331 
L 379.425 350.493992 
L 385.636503 355.586732 
L 391.848006 355.464031 
L 398.059508 358.906393 
L 404.271011 361.224264 
L 410.482514 357.8574 
L 416.694017 370.229615 
L 422.905519 363.231601 
L 429.117022 370.057244 
L 435.328525 357.987133 
L 441.540028 359.710277 
L 447.751531 362.216222 
L 453.963033 361.64659 
L 460.174536 371.634036 
L 466.386039 366.272199 
L 472.597542 364.87727 
L 478.809045 379.65388 
L 485.020547 363.378632 
L 491.23205 367.22794 
L 497.443553 374.588437 
L 503.655056 387.927133 
L 509.866558 387.408975 
L 516.078061 391.174453 
L 522.289564 374.207846 
L 528.501067 376.945551 
L 534.71257 394.081407 
L 540.924072 393.781709 
L 547.135575 398.847152 
L 553.347078 377.351276 
L 559.558581 394.687143 
L 565.770083 395.924828 
L 571.981586 401.265828 
L 578.193089 380.742712 
L 584.404592 412.584769 
L 590.616095 401.265828 
L 596.827597 420.149221 
L 603.0391 432.890594 
L 609.250603 409.463753 
L 615.462106 396.239895 
L 621.673609 403.828679 
L 627.885111 409.463753 
L 634.096614 413.049709 
L 640.308117 406.957808 
L 646.51962 424.193082 
L 652.731122 414.475472 
L 658.942625 408.612111 
L 665.154128 423.591582 
L 671.365631 412.584769 
L 677.577134 445.76 
L 683.788636 413.519731 
" clip-path="url(#p42a7c174e2)" style="fill: none; stroke: #2ca02c; stroke-width: 1.5; stroke-linecap: round"/>
   </g>
   <g id="line2d_14">
    <path d="M 75.061364 294.07397 
L 81.272866 286.468763 
L 87.484369 285.518707 
L 93.695872 284.143518 
L 99.907375 285.930256 
L 106.118878 282.924208 
L 112.33038 286.616806 
L 118.541883 287.239198 
L 124.753386 283.106054 
L 130.964889 290.738019 
L 137.176391 291.313091 
L 143.387894 292.373657 
L 149.599397 295.997715 
L 155.8109 286.765361 
L 162.022403 292.828156 
L 168.233905 283.197266 
L 174.445408 293.781009 
L 180.656911 293.02852 
L 186.868414 294.606383 
L 193.079917 295.844284 
L 199.291419 301.674617 
L 205.502922 293.374187 
L 211.714425 295.235978 
L 217.925928 301.885607 
L 224.13743 304.727039 
L 230.348933 303.906421 
L 236.560436 313.23602 
L 242.771939 311.836208 
L 248.983442 310.05217 
L 255.194944 320.684119 
L 261.406447 302.848081 
L 267.61795 310.869728 
L 273.829453 304.877939 
L 280.040955 306.495207 
L 286.252458 312.372679 
L 292.463961 314.777974 
L 298.675464 308.916478 
L 304.886967 327.660659 
L 311.098469 308.916478 
L 317.309972 318.502737 
L 323.521475 321.95807 
L 329.732978 334.612296 
L 335.944481 326.520506 
L 342.155983 333.716294 
L 348.367486 325.045851 
L 354.578989 324.327062 
L 360.790492 327.404666 
L 367.001994 328.112344 
L 373.213497 328.963987 
L 379.425 318.192593 
L 385.636503 321.733785 
L 391.848006 329.030202 
L 398.059508 323.445147 
L 404.271011 322.695181 
L 410.482514 333.202119 
L 416.694017 338.149074 
L 422.905519 332.191852 
L 429.117022 324.865025 
L 435.328525 337.017257 
L 441.540028 336.541165 
L 447.751531 338.726352 
L 453.963033 333.3484 
L 460.174536 340.679601 
L 466.386039 346.534177 
L 472.597542 341.91348 
L 478.809045 340.161444 
L 485.020547 341.380335 
L 491.23205 345.940974 
L 497.443553 344.492805 
L 503.655056 344.778564 
L 509.866558 340.075688 
L 516.078061 342.543954 
L 522.289564 358.378698 
L 528.501067 360.529474 
L 534.71257 357.599102 
L 540.924072 351.043253 
L 547.135575 341.73503 
L 553.347078 352.965022 
L 559.558581 338.976149 
L 565.770083 356.960062 
L 571.981586 350.276237 
L 578.193089 368.040943 
L 584.404592 367.877108 
L 590.616095 371.278608 
L 596.827597 380.522729 
L 603.0391 371.455955 
L 609.250603 370.229615 
L 615.462106 358.773861 
L 621.673609 362.939038 
L 627.885111 381.634071 
L 634.096614 371.455955 
L 640.308117 370.576444 
L 646.51962 381.186082 
L 652.731122 378.382658 
L 658.942625 363.971835 
L 665.154128 391.740336 
L 671.365631 384.665598 
L 677.577134 369.544238 
L 683.788636 384.185073 
" clip-path="url(#p42a7c174e2)" style="fill: none; stroke: #d62728; stroke-width: 1.5; stroke-linecap: round"/>
   </g>
   <g id="line2d_15">
    <path d="M 75.061364 271.099854 
L 81.272866 268.250033 
L 87.484369 272.536459 
L 93.695872 267.214448 
L 99.907375 268.169481 
L 106.118878 268.785492 
L 112.33038 274.078078 
L 118.541883 266.264763 
L 124.753386 268.073018 
L 130.964889 272.181617 
L 137.176391 277.000402 
L 143.387894 271.099854 
L 149.599397 272.252352 
L 155.8109 276.372558 
L 162.022403 274.523553 
L 168.233905 278.755192 
L 174.445408 275.52397 
L 180.656911 272.447474 
L 186.868414 271.619891 
L 193.079917 284.260352 
L 199.291419 278.878892 
L 205.502922 298.237653 
L 211.714425 306.026892 
L 217.925928 313.883443 
L 224.13743 306.770765 
L 230.348933 291.979873 
L 236.560436 282.472928 
L 242.771939 284.283756 
L 248.983442 283.197266 
L 255.194944 284.565614 
L 261.406447 277.597448 
L 267.61795 281.299446 
L 273.829453 283.818061 
L 280.040955 287.667629 
L 286.252458 288.666933 
L 292.463961 280.306278 
L 298.675464 280.756838 
L 304.886967 281.804765 
L 311.098469 282.137549 
L 317.309972 281.760588 
L 323.521475 292.401923 
L 329.732978 288.125963 
L 335.944481 289.188547 
L 342.155983 279.881519 
L 348.367486 284.494976 
L 354.578989 282.969597 
L 360.790492 279.00295 
L 367.001994 283.910798 
L 373.213497 282.026334 
L 379.425 278.672922 
L 385.636503 275.030291 
L 391.848006 283.818061 
L 398.059508 278.796386 
L 404.271011 279.023661 
L 410.482514 279.987316 
L 416.694017 282.76572 
L 422.905519 277.75807 
L 429.117022 281.365021 
L 435.328525 284.84933 
L 441.540028 286.567402 
L 447.751531 287.415094 
L 453.963033 285.326391 
L 460.174536 292.971178 
L 466.386039 290.439832 
L 472.597542 287.164034 
L 478.809045 288.460046 
L 485.020547 292.913912 
L 491.23205 291.451154 
L 497.443553 295.844284 
L 503.655056 295.26619 
L 509.866558 308.958011 
L 516.078061 304.314773 
L 522.289564 307.167507 
L 528.501067 307.008371 
L 534.71257 309.041195 
L 540.924072 301.116988 
L 547.135575 299.78731 
L 553.347078 298.497512 
L 559.558581 302.381978 
L 565.770083 305.910605 
L 571.981586 310.308671 
L 578.193089 318.192593 
L 584.404592 318.762911 
L 590.616095 318.244128 
L 596.827597 319.393825 
L 603.0391 318.347385 
L 609.250603 325.288142 
L 615.462106 323.91325 
L 621.673609 330.239841 
L 627.885111 331.978419 
L 634.096614 325.106296 
L 640.308117 333.275197 
L 646.51962 330.926862 
L 652.731122 331.065593 
L 658.942625 334.915161 
L 665.154128 336.305081 
L 671.365631 333.49518 
L 677.577134 330.857664 
L 683.788636 332.621921 
" clip-path="url(#p42a7c174e2)" style="fill: none; stroke: #9467bd; stroke-width: 1.5; stroke-linecap: round"/>
   </g>
   <g id="line2d_16">
    <path d="M 75.061364 258.40578 
L 81.272866 261.379339 
L 87.484369 262.790433 
L 93.695872 264.514693 
L 99.907375 260.535513 
L 106.118878 256.413277 
L 112.33038 267.912725 
L 118.541883 261.365597 
L 124.753386 261.242113 
L 130.964889 271.882287 
L 137.176391 270.996597 
L 143.387894 276.567776 
L 149.599397 272.643485 
L 155.8109 265.411007 
L 162.022403 273.728653 
L 168.233905 264.426081 
L 174.445408 274.579563 
L 180.656911 274.917166 
L 186.868414 266.713639 
L 193.079917 280.97306 
L 199.291419 283.220099 
L 205.502922 299.955501 
L 211.714425 296.523512 
L 217.925928 301.290472 
L 224.13743 308.874986 
L 230.348933 285.49462 
L 236.560436 290.063287 
L 242.771939 286.394932 
L 248.983442 293.839442 
L 255.194944 289.822951 
L 261.406447 277.218357 
L 267.61795 283.564062 
L 273.829453 291.451154 
L 280.040955 289.346273 
L 286.252458 287.642309 
L 292.463961 288.202829 
L 298.675464 290.412826 
L 304.886967 290.036516 
L 311.098469 293.956546 
L 317.309972 299.187209 
L 323.521475 297.786644 
L 329.732978 303.428769 
L 335.944481 288.563365 
L 342.155983 297.882892 
L 348.367486 289.79633 
L 354.578989 291.840105 
L 360.790492 295.175618 
L 367.001994 292.543532 
L 373.213497 295.417568 
L 379.425 290.738019 
L 385.636503 294.606383 
L 391.848006 302.489093 
L 398.059508 296.554642 
L 404.271011 295.14547 
L 410.482514 288.953037 
L 416.694017 298.989021 
L 422.905519 298.334917 
L 429.117022 296.059241 
L 435.328525 291.47882 
L 441.540028 297.786644 
L 447.751531 290.358866 
L 453.963033 298.205281 
L 460.174536 298.237653 
L 466.386039 297.754609 
L 472.597542 293.258656 
L 478.809045 298.27005 
L 485.020547 298.10831 
L 491.23205 285.881633 
L 497.443553 299.452887 
L 503.655056 302.74007 
L 509.866558 304.314773 
L 516.078061 302.848081 
L 522.289564 309.333616 
L 528.501067 306.338535 
L 534.71257 299.054982 
L 540.924072 301.639553 
L 547.135575 300.909727 
L 553.347078 293.635273 
L 559.558581 304.203019 
L 565.770083 291.923911 
L 571.981586 306.065724 
L 578.193089 308.833534 
L 584.404592 313.697468 
L 590.616095 315.160257 
L 596.827597 314.777974 
L 603.0391 328.568825 
L 609.250603 317.629738 
L 615.462106 322.014324 
L 621.673609 321.566335 
L 627.885111 328.372597 
L 634.096614 322.467029 
L 640.308117 329.968077 
L 646.51962 330.650735 
L 652.731122 333.3484 
L 658.942625 332.694019 
L 665.154128 325.531806 
L 671.365631 332.621921 
L 677.577134 330.37637 
L 683.788636 328.568825 
" clip-path="url(#p42a7c174e2)" style="fill: none; stroke: #8c564b; stroke-width: 1.5; stroke-linecap: round"/>
   </g>
   <g id="line2d_17">
    <path d="M 75.061364 251.500495 
L 81.272866 253.307571 
L 87.484369 252.461513 
L 93.695872 254.720407 
L 99.907375 254.885545 
L 106.118878 254.509014 
L 112.33038 256.96789 
L 118.541883 256.9183 
L 124.753386 256.156885 
L 130.964889 254.333644 
L 137.176391 263.767244 
L 143.387894 271.16883 
L 149.599397 267.912725 
L 155.8109 266.994626 
L 162.022403 280.498797 
L 168.233905 271.324432 
L 174.445408 262.29618 
L 180.656911 274.579563 
L 186.868414 276.25585 
L 193.079917 271.567603 
L 199.291419 281.038139 
L 205.502922 281.168594 
L 211.714425 287.998157 
L 217.925928 294.755453 
L 224.13743 294.368941 
L 230.348933 287.314494 
L 236.560436 285.182716 
L 242.771939 287.264282 
L 248.983442 289.504579 
L 255.194944 283.518041 
L 261.406447 279.818165 
L 267.61795 292.260779 
L 273.829453 289.822951 
L 280.040955 286.321227 
L 286.252458 286.394932 
L 292.463961 287.74368 
L 298.675464 284.518509 
L 304.886967 286.198666 
L 311.098469 288.848779 
L 317.309972 294.309785 
L 323.521475 286.125297 
L 329.732978 289.531021 
L 335.944481 292.799609 
L 342.155983 288.460046 
L 348.367486 290.278052 
L 354.578989 297.150441 
L 360.790492 294.636156 
L 367.001994 291.47882 
L 373.213497 300.124353 
L 379.425 295.905591 
L 385.636503 291.812206 
L 391.848006 302.417653 
L 398.059508 302.99252 
L 404.271011 295.630397 
L 410.482514 302.668212 
L 416.694017 304.277489 
L 422.905519 304.389437 
L 429.117022 301.674617 
L 435.328525 296.554642 
L 441.540028 301.920872 
L 447.751531 310.869728 
L 453.963033 303.758885 
L 460.174536 299.552941 
L 466.386039 294.457828 
L 472.597542 302.668212 
L 478.809045 302.776043 
L 485.020547 295.905591 
L 491.23205 295.296423 
L 497.443553 303.428769 
L 503.655056 292.148197 
L 509.866558 301.186298 
L 516.078061 296.554642 
L 522.289564 297.786644 
L 528.501067 302.097636 
L 534.71257 296.461319 
L 540.924072 296.399215 
L 547.135575 300.840862 
L 553.347078 292.486833 
L 559.558581 296.275277 
L 565.770083 298.334917 
L 571.981586 301.956167 
L 578.193089 305.067312 
L 584.404592 305.333844 
L 590.616095 308.175677 
L 596.827597 310.869728 
L 603.0391 318.038355 
L 609.250603 316.131101 
L 615.462106 313.836874 
L 621.673609 318.71075 
L 627.885111 320.902982 
L 634.096614 316.973907 
L 640.308117 325.348929 
L 646.51962 326.209089 
L 652.731122 327.660659 
L 658.942625 321.288694 
L 665.154128 316.377275 
L 671.365631 318.502737 
L 677.577134 321.733785 
L 683.788636 321.845781 
" clip-path="url(#p42a7c174e2)" style="fill: none; stroke: #e377c2; stroke-width: 1.5; stroke-linecap: round"/>
   </g>
   <g id="line2d_18">
    <path d="M 75.061364 234.513056 
L 81.272866 245.097878 
L 87.484369 244.001282 
L 93.695872 242.407097 
L 99.907375 244.76035 
L 106.118878 245.514044 
L 112.33038 250.336628 
L 118.541883 245.362245 
L 124.753386 245.476044 
L 130.964889 251.402294 
L 137.176391 255.732933 
L 143.387894 255.063185 
L 149.599397 256.26658 
L 155.8109 259.589104 
L 162.022403 246.63091 
L 168.233905 252.651833 
L 174.445408 260.133078 
L 180.656911 258.111782 
L 186.868414 260.996205 
L 193.079917 260.522037 
L 199.291419 262.833063 
L 205.502922 277.858765 
L 211.714425 274.710538 
L 217.925928 279.797068 
L 224.13743 276.450539 
L 230.348933 276.960892 
L 236.560436 280.008507 
L 242.771939 273.200735 
L 248.983442 271.672242 
L 255.194944 276.606926 
L 261.406447 278.16227 
L 267.61795 270.433072 
L 273.829453 277.477374 
L 280.040955 275.18159 
L 286.252458 281.650343 
L 292.463961 280.498797 
L 298.675464 287.389922 
L 304.886967 277.79832 
L 311.098469 280.28494 
L 317.309972 280.072142 
L 323.521475 283.495049 
L 329.732978 278.816997 
L 335.944481 284.283756 
L 342.155983 282.607815 
L 348.367486 277.158805 
L 354.578989 273.67374 
L 360.790492 283.015034 
L 367.001994 284.801914 
L 373.213497 280.929728 
L 379.425 280.692182 
L 385.636503 278.982249 
L 391.848006 283.197266 
L 398.059508 290.792458 
L 404.271011 289.031397 
L 410.482514 284.143518 
L 416.694017 288.692864 
L 422.905519 294.935021 
L 429.117022 289.346273 
L 435.328525 291.561925 
L 441.540028 293.28751 
L 447.751531 295.844284 
L 453.963033 297.340316 
L 460.174536 301.956167 
L 466.386039 300.056733 
L 472.597542 299.187209 
L 478.809045 291.728617 
L 485.020547 294.044584 
L 491.23205 292.204451 
L 497.443553 293.05722 
L 503.655056 292.120097 
L 509.866558 295.205787 
L 516.078061 299.75375 
L 522.289564 294.965022 
L 528.501067 294.636156 
L 534.71257 289.162316 
L 540.924072 293.172211 
L 547.135575 303.538527 
L 553.347078 290.738019 
L 559.558581 293.839442 
L 565.770083 295.691399 
L 571.981586 301.779983 
L 578.193089 302.453358 
L 584.404592 303.028705 
L 590.616095 308.380179 
L 596.827597 302.489093 
L 603.0391 305.067312 
L 609.250603 303.795722 
L 615.462106 305.794633 
L 621.673609 303.758885 
L 627.885111 308.380179 
L 634.096614 305.910605 
L 640.308117 318.658653 
L 646.51962 308.792122 
L 652.731122 307.769569 
L 658.942625 312.462745 
L 665.154128 310.35157 
L 671.365631 312.327717 
L 677.577134 313.281943 
L 683.788636 313.420005 
" clip-path="url(#p42a7c174e2)" style="fill: none; stroke: #7f7f7f; stroke-width: 1.5; stroke-linecap: round"/>
   </g>
   <g id="line2d_19">
    <path d="M 75.061364 223.440773 
L 81.272866 234.994077 
L 87.484369 226.061898 
L 93.695872 229.066633 
L 99.907375 231.617599 
L 106.118878 233.008975 
L 112.33038 233.279861 
L 118.541883 234.505698 
L 124.753386 233.49493 
L 130.964889 237.585988 
L 137.176391 242.23943 
L 143.387894 246.155587 
L 149.599397 243.264399 
L 155.8109 245.324378 
L 162.022403 239.484773 
L 168.233905 245.915085 
L 174.445408 241.853639 
L 180.656911 246.689475 
L 186.868414 245.324378 
L 193.079917 242.735494 
L 199.291419 252.876822 
L 205.502922 253.023699 
L 211.714425 259.273843 
L 217.925928 263.738195 
L 224.13743 258.534234 
L 230.348933 256.9183 
L 236.560436 257.416788 
L 242.771939 257.492062 
L 248.983442 257.643007 
L 255.194944 258.111782 
L 261.406447 257.216699 
L 267.61795 261.960518 
L 273.829453 262.719477 
L 280.040955 257.908441 
L 286.252458 266.280163 
L 292.463961 260.481637 
L 298.675464 261.489436 
L 304.886967 267.992797 
L 311.098469 262.59205 
L 317.309972 264.544271 
L 323.521475 258.482807 
L 329.732978 264.915724 
L 335.944481 269.70969 
L 342.155983 262.52142 
L 348.367486 263.405538 
L 354.578989 260.481637 
L 360.790492 262.198008 
L 367.001994 260.928146 
L 373.213497 264.692467 
L 379.425 266.449937 
L 385.636503 268.314583 
L 391.848006 271.16883 
L 398.059508 272.040496 
L 404.271011 267.356358 
L 410.482514 269.047529 
L 416.694017 274.115025 
L 422.905519 273.527645 
L 429.117022 280.649133 
L 435.328525 278.775784 
L 441.540028 273.056236 
L 447.751531 279.023661 
L 453.963033 280.929728 
L 460.174536 284.003735 
L 466.386039 280.520242 
L 472.597542 288.822754 
L 478.809045 287.014098 
L 485.020547 285.711886 
L 491.23205 282.969597 
L 497.443553 291.47882 
L 503.655056 285.374389 
L 509.866558 291.812206 
L 516.078061 287.113997 
L 522.289564 292.148197 
L 528.501067 287.264282 
L 534.71257 287.113997 
L 540.924072 285.930256 
L 547.135575 288.049234 
L 553.347078 285.808802 
L 559.558581 289.162316 
L 565.770083 289.162316 
L 571.981586 294.368941 
L 578.193089 292.176315 
L 584.404592 294.280237 
L 590.616095 292.628722 
L 596.827597 292.007881 
L 603.0391 291.728617 
L 609.250603 297.722599 
L 615.462106 292.232606 
L 621.673609 291.784325 
L 627.885111 297.499187 
L 634.096614 297.308611 
L 640.308117 296.492404 
L 646.51962 297.947176 
L 652.731122 295.085236 
L 658.942625 297.467366 
L 665.154128 297.594793 
L 671.365631 296.99285 
L 677.577134 304.464231 
L 683.788636 293.05722 
" clip-path="url(#p42a7c174e2)" style="fill: none; stroke: #bcbd22; stroke-width: 1.5; stroke-linecap: round"/>
   </g>
   <g id="line2d_20">
    <path d="M 75.061364 209.832145 
L 81.272866 209.998289 
L 87.484369 215.114222 
L 93.695872 217.29674 
L 99.907375 215.723183 
L 106.118878 211.402641 
L 112.33038 216.972494 
L 118.541883 217.777763 
L 124.753386 220.38876 
L 130.964889 224.296853 
L 137.176391 226.984703 
L 143.387894 228.219186 
L 149.599397 227.619451 
L 155.8109 227.350718 
L 162.022403 227.375646 
L 168.233905 222.72431 
L 174.445408 226.96 
L 180.656911 228.538227 
L 186.868414 226.110295 
L 193.079917 226.799781 
L 199.291419 226.793631 
L 205.502922 232.12279 
L 211.714425 231.99767 
L 217.925928 240.142391 
L 224.13743 233.401601 
L 230.348933 233.04452 
L 236.560436 237.059643 
L 242.771939 236.079284 
L 248.983442 237.673021 
L 255.194944 234.645724 
L 261.406447 238.674617 
L 267.61795 237.657184 
L 273.829453 242.125085 
L 280.040955 245.144968 
L 286.252458 245.552077 
L 292.463961 239.83314 
L 298.675464 241.98477 
L 304.886967 242.878284 
L 311.098469 241.592571 
L 317.309972 245.409624 
L 323.521475 242.142657 
L 329.732978 239.592299 
L 335.944481 239.114627 
L 342.155983 242.46018 
L 348.367486 240.504607 
L 354.578989 239.891477 
L 360.790492 242.690969 
L 367.001994 240.767644 
L 373.213497 242.046102 
L 379.425 241.549213 
L 385.636503 245.116708 
L 391.848006 243.372773 
L 398.059508 240.555392 
L 404.271011 247.6675 
L 410.482514 249.411042 
L 416.694017 248.25099 
L 422.905519 248.780935 
L 429.117022 252.272032 
L 435.328525 246.533478 
L 441.540028 251.065752 
L 447.751531 255.348944 
L 453.963033 256.831656 
L 460.174536 263.046849 
L 466.386039 261.078018 
L 472.597542 262.184002 
L 478.809045 266.203215 
L 485.020547 268.201684 
L 491.23205 270.229971 
L 497.443553 270.128779 
L 503.655056 272.572105 
L 509.866558 271.654785 
L 516.078061 266.885135 
L 522.289564 274.096547 
L 528.501067 276.294718 
L 534.71257 272.625629 
L 540.924072 277.258105 
L 547.135575 273.400218 
L 553.347078 278.693474 
L 559.558581 274.374548 
L 565.770083 276.158836 
L 571.981586 273.291295 
L 578.193089 274.785561 
L 584.404592 276.372558 
L 590.616095 281.672369 
L 596.827597 281.871116 
L 603.0391 278.38621 
L 609.250603 277.79832 
L 615.462106 278.878892 
L 621.673609 278.16227 
L 627.885111 279.881519 
L 634.096614 281.804765 
L 640.308117 286.444138 
L 646.51962 283.725524 
L 652.731122 283.794908 
L 658.942625 283.151636 
L 665.154128 284.143518 
L 671.365631 275.888353 
L 677.577134 282.810943 
L 683.788636 280.327627 
" clip-path="url(#p42a7c174e2)" style="fill: none; stroke: #17becf; stroke-width: 1.5; stroke-linecap: round"/>
   </g>
   <g id="line2d_21">
    <path d="M 75.061364 199.713032 
L 81.272866 198.004363 
L 87.484369 197.562656 
L 93.695872 198.568537 
L 99.907375 198.536645 
L 106.118878 197.48481 
L 112.33038 200.868621 
L 118.541883 200.757697 
L 124.753386 203.34146 
L 130.964889 206.322868 
L 137.176391 209.724494 
L 143.387894 215.034611 
L 149.599397 208.759484 
L 155.8109 210.521668 
L 162.022403 205.685722 
L 168.233905 210.92374 
L 174.445408 209.092335 
L 180.656911 209.757588 
L 186.868414 211.44566 
L 193.079917 209.071965 
L 199.291419 213.072881 
L 205.502922 212.508896 
L 211.714425 213.40044 
L 217.925928 216.466471 
L 224.13743 217.524183 
L 230.348933 213.63983 
L 236.560436 213.283489 
L 242.771939 219.125152 
L 248.983442 216.124402 
L 255.194944 213.095237 
L 261.406447 214.38914 
L 267.61795 219.752315 
L 273.829453 219.595966 
L 280.040955 221.663321 
L 286.252458 214.4768 
L 292.463961 223.898294 
L 298.675464 218.720563 
L 304.886967 218.971062 
L 311.098469 223.623198 
L 317.309972 218.446181 
L 323.521475 217.882615 
L 329.732978 219.721 
L 335.944481 221.15327 
L 342.155983 218.649258 
L 348.367486 217.43504 
L 354.578989 219.507619 
L 360.790492 219.830704 
L 367.001994 223.720427 
L 373.213497 221.272102 
L 379.425 216.933357 
L 385.636503 222.646055 
L 391.848006 223.686085 
L 398.059508 222.434364 
L 404.271011 220.569304 
L 410.482514 220.087774 
L 416.694017 224.53544 
L 422.905519 227.953008 
L 429.117022 227.127016 
L 435.328525 230.243167 
L 441.540028 225.947173 
L 447.751531 227.133215 
L 453.963033 236.632332 
L 460.174536 235.457966 
L 466.386039 236.148027 
L 472.597542 239.642018 
L 478.809045 239.949893 
L 485.020547 239.049155 
L 491.23205 242.86041 
L 497.443553 246.426557 
L 503.655056 247.210297 
L 509.866558 248.170037 
L 516.078061 249.234508 
L 522.289564 251.336951 
L 528.501067 251.983843 
L 534.71257 250.678206 
L 540.924072 258.585724 
L 547.135575 253.284792 
L 553.347078 260.06637 
L 559.558581 258.766424 
L 565.770083 258.213815 
L 571.981586 259.800568 
L 578.193089 262.790433 
L 584.404592 268.932691 
L 590.616095 262.662796 
L 596.827597 265.759608 
L 603.0391 263.032564 
L 609.250603 259.562744 
L 615.462106 262.975469 
L 621.673609 262.268108 
L 627.885111 262.733659 
L 634.096614 267.372155 
L 640.308117 263.463207 
L 646.51962 265.215214 
L 652.731122 264.029569 
L 658.942625 263.304803 
L 665.154128 267.896729 
L 671.365631 266.791507 
L 677.577134 268.508817 
L 683.788636 266.111058 
" clip-path="url(#p42a7c174e2)" style="fill: none; stroke: #1f77b4; stroke-width: 1.5; stroke-linecap: round"/>
   </g>
   <g id="line2d_22">
    <path d="M 75.061364 193.50593 
L 81.272866 191.424383 
L 87.484369 188.796151 
L 93.695872 198.253842 
L 99.907375 194.036706 
L 106.118878 196.965311 
L 112.33038 192.777584 
L 118.541883 196.300421 
L 124.753386 191.157704 
L 130.964889 196.999135 
L 137.176391 194.565393 
L 143.387894 195.482023 
L 149.599397 196.698731 
L 155.8109 194.235284 
L 162.022403 193.602466 
L 168.233905 194.842432 
L 174.445408 197.668752 
L 180.656911 197.700007 
L 186.868414 197.728156 
L 193.079917 196.261095 
L 199.291419 194.562486 
L 205.502922 193.11913 
L 211.714425 196.824155 
L 217.925928 199.722863 
L 224.13743 198.342613 
L 230.348933 197.778244 
L 236.560436 202.602783 
L 242.771939 192.43043 
L 248.983442 197.140867 
L 255.194944 198.121027 
L 261.406447 194.664339 
L 267.61795 199.850863 
L 273.829453 201.649777 
L 280.040955 201.656632 
L 286.252458 196.610237 
L 292.463961 197.985474 
L 298.675464 199.533204 
L 304.886967 203.803804 
L 311.098469 200.409978 
L 317.309972 202.358189 
L 323.521475 199.256759 
L 329.732978 198.431568 
L 335.944481 200.12455 
L 342.155983 199.716309 
L 348.367486 198.304546 
L 354.578989 198.02011 
L 360.790492 199.55605 
L 367.001994 198.718748 
L 373.213497 198.253842 
L 379.425 198.437929 
L 385.636503 198.847001 
L 391.848006 200.509993 
L 398.059508 204.813711 
L 404.271011 201.444625 
L 410.482514 201.288002 
L 416.694017 202.550253 
L 422.905519 207.101672 
L 429.117022 207.728715 
L 435.328525 208.561808 
L 441.540028 207.027814 
L 447.751531 209.440104 
L 453.963033 211.047231 
L 460.174536 211.248126 
L 466.386039 217.762805 
L 472.597542 216.524556 
L 478.809045 219.595966 
L 485.020547 219.398735 
L 491.23205 220.468318 
L 497.443553 222.909333 
L 503.655056 227.058895 
L 509.866558 227.003239 
L 516.078061 230.530659 
L 522.289564 225.342407 
L 528.501067 232.50035 
L 534.71257 233.523687 
L 540.924072 236.347238 
L 547.135575 233.351431 
L 553.347078 236.903765 
L 559.558581 238.158886 
L 565.770083 239.509563 
L 571.981586 240.72511 
L 578.193089 240.529992 
L 584.404592 245.296001 
L 590.616095 245.352775 
L 596.827597 241.635972 
L 603.0391 244.148345 
L 609.250603 244.975687 
L 615.462106 247.259758 
L 621.673609 246.011124 
L 627.885111 243.91878 
L 634.096614 244.07475 
L 640.308117 247.062253 
L 646.51962 247.032706 
L 652.731122 247.190528 
L 658.942625 245.647309 
L 665.154128 247.697488 
L 671.365631 247.948197 
L 677.577134 249.556968 
L 683.788636 250.082213 
" clip-path="url(#p42a7c174e2)" style="fill: none; stroke: #2ca02c; stroke-width: 1.5; stroke-linecap: round"/>
   </g>
   <g id="line2d_23">
    <path d="M 75.061364 163.185763 
L 81.272866 171.207092 
L 87.484369 165.623182 
L 93.695872 164.59594 
L 99.907375 170.838859 
L 106.118878 169.185094 
L 112.33038 172.106348 
L 118.541883 169.383716 
L 124.753386 173.376794 
L 130.964889 175.248005 
L 137.176391 177.578712 
L 143.387894 175.170165 
L 149.599397 172.602356 
L 155.8109 174.643825 
L 162.022403 171.862187 
L 168.233905 172.275665 
L 174.445408 172.149478 
L 180.656911 176.117459 
L 186.868414 173.853628 
L 193.079917 171.090733 
L 199.291419 173.747804 
L 205.502922 172.44739 
L 211.714425 175.212774 
L 217.925928 178.289548 
L 224.13743 177.095772 
L 230.348933 176.767829 
L 236.560436 175.881496 
L 242.771939 170.570145 
L 248.983442 173.929119 
L 255.194944 175.858911 
L 261.406447 175.894676 
L 267.61795 173.75497 
L 273.829453 173.857219 
L 280.040955 178.289548 
L 286.252458 179.345669 
L 292.463961 174.599948 
L 298.675464 180.79613 
L 304.886967 178.990064 
L 311.098469 180.284241 
L 317.309972 173.862608 
L 323.521475 174.862045 
L 329.732978 177.861638 
L 335.944481 178.806305 
L 342.155983 172.508265 
L 348.367486 178.011714 
L 354.578989 176.543571 
L 360.790492 177.659078 
L 367.001994 174.944854 
L 373.213497 175.841981 
L 379.425 175.212774 
L 385.636503 180.399095 
L 391.848006 179.570706 
L 398.059508 178.108752 
L 404.271011 177.352145 
L 410.482514 179.761888 
L 416.694017 181.622877 
L 422.905519 184.609236 
L 429.117022 186.579274 
L 435.328525 187.803638 
L 441.540028 187.319525 
L 447.751531 191.227581 
L 453.963033 194.48698 
L 460.174536 191.918998 
L 466.386039 191.687288 
L 472.597542 190.999557 
L 478.809045 194.562486 
L 485.020547 194.371075 
L 491.23205 197.850347 
L 497.443553 199.824576 
L 503.655056 202.838205 
L 509.866558 203.616835 
L 516.078061 204.695824 
L 522.289564 205.355709 
L 528.501067 210.052425 
L 534.71257 207.516065 
L 540.924072 209.728629 
L 547.135575 210.290597 
L 553.347078 211.626814 
L 559.558581 217.114664 
L 565.770083 220.124623 
L 571.981586 215.609233 
L 578.193089 221.347894 
L 584.404592 222.3012 
L 590.616095 220.07199 
L 596.827597 225.217725 
L 603.0391 227.182833 
L 609.250603 222.356635 
L 615.462106 227.839434 
L 621.673609 226.713756 
L 627.885111 227.257368 
L 634.096614 228.149313 
L 640.308117 229.457427 
L 646.51962 229.242051 
L 652.731122 229.053667 
L 658.942625 226.334841 
L 665.154128 229.588484 
L 671.365631 230.096819 
L 677.577134 229.647591 
L 683.788636 230.941821 
" clip-path="url(#p42a7c174e2)" style="fill: none; stroke: #d62728; stroke-width: 1.5; stroke-linecap: round"/>
   </g>
   <g id="line2d_24">
    <path d="M 75.061364 148.915907 
L 81.272866 152.298726 
L 87.484369 147.885516 
L 93.695872 153.651391 
L 99.907375 150.994699 
L 106.118878 152.566096 
L 112.33038 151.69913 
L 118.541883 151.679823 
L 124.753386 149.079127 
L 130.964889 158.190443 
L 137.176391 156.641638 
L 143.387894 157.26596 
L 149.599397 154.504044 
L 155.8109 157.029713 
L 162.022403 151.116245 
L 168.233905 154.909042 
L 174.445408 156.061857 
L 180.656911 151.668028 
L 186.868414 154.452543 
L 193.079917 153.563911 
L 199.291419 154.623306 
L 205.502922 152.068703 
L 211.714425 152.400022 
L 217.925928 154.548729 
L 224.13743 153.913774 
L 230.348933 150.973596 
L 236.560436 154.891706 
L 242.771939 155.090918 
L 248.983442 153.500095 
L 255.194944 152.478608 
L 261.406447 152.213952 
L 267.61795 155.927889 
L 273.829453 154.395391 
L 280.040955 155.813222 
L 286.252458 154.127791 
L 292.463961 155.519091 
L 298.675464 155.862834 
L 304.886967 156.352564 
L 311.098469 152.868198 
L 317.309972 154.626751 
L 323.521475 157.899479 
L 329.732978 157.656039 
L 335.944481 154.753265 
L 342.155983 156.665715 
L 348.367486 149.378967 
L 354.578989 150.132669 
L 360.790492 157.010287 
L 367.001994 154.852435 
L 373.213497 155.593023 
L 379.425 152.615386 
L 385.636503 157.377226 
L 391.848006 157.009073 
L 398.059508 157.705357 
L 404.271011 156.775437 
L 410.482514 160.161294 
L 416.694017 160.42858 
L 422.905519 164.102111 
L 429.117022 165.72712 
L 435.328525 166.801888 
L 441.540028 167.02807 
L 447.751531 167.508819 
L 453.963033 167.454621 
L 460.174536 169.782101 
L 466.386039 174.696903 
L 472.597542 169.778834 
L 478.809045 175.031514 
L 485.020547 175.532762 
L 491.23205 175.553307 
L 497.443553 174.17267 
L 503.655056 178.281585 
L 509.866558 179.101509 
L 516.078061 181.192604 
L 522.289564 183.046753 
L 528.501067 184.609236 
L 534.71257 185.754338 
L 540.924072 188.137778 
L 547.135575 190.650482 
L 553.347078 190.370084 
L 559.558581 194.632302 
L 565.770083 195.363409 
L 571.981586 196.558446 
L 578.193089 198.33944 
L 584.404592 199.111122 
L 590.616095 202.515268 
L 596.827597 201.230264 
L 603.0391 204.946721 
L 609.250603 204.336793 
L 615.462106 204.435411 
L 621.673609 207.966234 
L 627.885111 208.145237 
L 634.096614 210.110801 
L 640.308117 209.481204 
L 646.51962 209.47298 
L 652.731122 210.286407 
L 658.942625 212.623757 
L 665.154128 212.645881 
L 671.365631 212.403142 
L 677.577134 214.578525 
L 683.788636 213.839587 
" clip-path="url(#p42a7c174e2)" style="fill: none; stroke: #9467bd; stroke-width: 1.5; stroke-linecap: round"/>
   </g>
   <g id="line2d_25">
    <path d="M 75.061364 137.398618 
L 81.272866 135.498576 
L 87.484369 136.47461 
L 93.695872 133.98414 
L 99.907375 133.979166 
L 106.118878 139.180718 
L 112.33038 136.019946 
L 118.541883 137.451736 
L 124.753386 135.262931 
L 130.964889 141.845349 
L 137.176391 139.59327 
L 143.387894 140.218792 
L 149.599397 135.886039 
L 155.8109 138.342128 
L 162.022403 137.067531 
L 168.233905 138.130315 
L 174.445408 139.351866 
L 180.656911 137.066768 
L 186.868414 137.142416 
L 193.079917 136.434719 
L 199.291419 135.831109 
L 205.502922 135.034396 
L 211.714425 136.872528 
L 217.925928 139.54391 
L 224.13743 138.795128 
L 230.348933 135.671911 
L 236.560436 136.65042 
L 242.771939 136.214107 
L 248.983442 136.748825 
L 255.194944 138.523388 
L 261.406447 138.567636 
L 267.61795 140.052349 
L 273.829453 138.88264 
L 280.040955 137.786582 
L 286.252458 138.550248 
L 292.463961 138.399576 
L 298.675464 140.380109 
L 304.886967 140.717034 
L 311.098469 138.908929 
L 317.309972 139.22886 
L 323.521475 139.52693 
L 329.732978 138.31697 
L 335.944481 138.841249 
L 342.155983 134.424856 
L 348.367486 138.287899 
L 354.578989 137.608395 
L 360.790492 140.776913 
L 367.001994 136.012496 
L 373.213497 138.192966 
L 379.425 134.023243 
L 385.636503 138.85398 
L 391.848006 142.186258 
L 398.059508 145.00348 
L 404.271011 141.206823 
L 410.482514 141.703106 
L 416.694017 141.906821 
L 422.905519 146.206435 
L 429.117022 147.563705 
L 435.328525 147.856072 
L 441.540028 148.269149 
L 447.751531 148.507557 
L 453.963033 149.6717 
L 460.174536 155.300388 
L 466.386039 151.948756 
L 472.597542 151.462679 
L 478.809045 155.11995 
L 485.020547 153.987258 
L 491.23205 156.533457 
L 497.443553 156.155764 
L 503.655056 158.200426 
L 509.866558 159.433428 
L 516.078061 160.432523 
L 522.289564 162.738275 
L 528.501067 163.223615 
L 534.71257 161.953605 
L 540.924072 163.983461 
L 547.135575 167.998137 
L 553.347078 169.251199 
L 559.558581 169.191538 
L 565.770083 170.500321 
L 571.981586 174.75188 
L 578.193089 175.922932 
L 584.404592 176.343306 
L 590.616095 177.002922 
L 596.827597 182.4768 
L 603.0391 181.996689 
L 609.250603 185.021694 
L 615.462106 184.443516 
L 621.673609 184.116259 
L 627.885111 185.330137 
L 634.096614 190.007756 
L 640.308117 191.33261 
L 646.51962 191.359581 
L 652.731122 189.997299 
L 658.942625 193.054532 
L 665.154128 192.386196 
L 671.365631 191.232961 
L 677.577134 195.693373 
L 683.788636 195.186099 
" clip-path="url(#p42a7c174e2)" style="fill: none; stroke: #8c564b; stroke-width: 1.5; stroke-linecap: round"/>
   </g>
   <g id="line2d_26">
    <path d="M 75.061364 117.552582 
L 81.272866 117.283778 
L 87.484369 113.786362 
L 93.695872 118.593714 
L 99.907375 117.591883 
L 106.118878 114.21817 
L 112.33038 114.831536 
L 118.541883 117.206254 
L 124.753386 116.411199 
L 130.964889 121.93971 
L 137.176391 115.966734 
L 143.387894 118.849361 
L 149.599397 121.083097 
L 155.8109 119.773899 
L 162.022403 114.966956 
L 168.233905 119.311672 
L 174.445408 119.081403 
L 180.656911 118.586759 
L 186.868414 117.220208 
L 193.079917 119.79893 
L 199.291419 120.274719 
L 205.502922 114.843374 
L 211.714425 118.848361 
L 217.925928 120.902897 
L 224.13743 120.068548 
L 230.348933 118.95846 
L 236.560436 121.026802 
L 242.771939 117.815269 
L 248.983442 120.410816 
L 255.194944 119.077885 
L 261.406447 114.878908 
L 267.61795 119.657112 
L 273.829453 119.889468 
L 280.040955 117.713896 
L 286.252458 121.608016 
L 292.463961 117.356132 
L 298.675464 120.112277 
L 304.886967 121.729162 
L 311.098469 117.503143 
L 317.309972 121.403856 
L 323.521475 122.24801 
L 329.732978 122.209081 
L 335.944481 118.959462 
L 342.155983 119.096984 
L 348.367486 118.259143 
L 354.578989 115.788551 
L 360.790492 118.944432 
L 367.001994 115.155519 
L 373.213497 118.857359 
L 379.425 116.08281 
L 385.636503 118.441944 
L 391.848006 120.822236 
L 398.059508 119.642854 
L 404.271011 121.831897 
L 410.482514 122.749107 
L 416.694017 120.124117 
L 422.905519 129.075482 
L 429.117022 127.713289 
L 435.328525 127.432892 
L 441.540028 128.424884 
L 447.751531 127.931892 
L 453.963033 128.84785 
L 460.174536 129.791475 
L 466.386039 131.857359 
L 472.597542 132.698114 
L 478.809045 133.810385 
L 485.020547 135.692611 
L 491.23205 133.546488 
L 497.443553 132.502683 
L 503.655056 137.195219 
L 509.866558 140.906103 
L 516.078061 139.799412 
L 522.289564 141.941011 
L 528.501067 142.534226 
L 534.71257 143.262523 
L 540.924072 144.120145 
L 547.135575 144.710662 
L 553.347078 146.416565 
L 559.558581 147.510141 
L 565.770083 149.682959 
L 571.981586 151.441345 
L 578.193089 153.784072 
L 584.404592 154.280176 
L 590.616095 155.849835 
L 596.827597 158.423135 
L 603.0391 158.390532 
L 609.250603 160.173051 
L 615.462106 160.532535 
L 621.673609 163.930673 
L 627.885111 163.929248 
L 634.096614 165.447062 
L 640.308117 166.634547 
L 646.51962 166.960702 
L 652.731122 168.009109 
L 658.942625 167.840137 
L 665.154128 170.500321 
L 671.365631 170.059072 
L 677.577134 173.082979 
L 683.788636 173.201326 
" clip-path="url(#p42a7c174e2)" style="fill: none; stroke: #e377c2; stroke-width: 1.5; stroke-linecap: round"/>
   </g>
   <g id="line2d_27">
    <path d="M 75.061364 99.219669 
L 81.272866 105.124147 
L 87.484369 93.79792 
L 93.695872 98.825974 
L 99.907375 98.727876 
L 106.118878 98.416265 
L 112.33038 95.482781 
L 118.541883 102.807621 
L 124.753386 98.754807 
L 130.964889 105.081304 
L 137.176391 103.218842 
L 143.387894 101.140987 
L 149.599397 103.107088 
L 155.8109 99.591441 
L 162.022403 100.115248 
L 168.233905 103.956651 
L 174.445408 101.559236 
L 180.656911 102.598166 
L 186.868414 101.39771 
L 193.079917 101.695536 
L 199.291419 100.806204 
L 205.502922 98.651558 
L 211.714425 99.027572 
L 217.925928 103.826397 
L 224.13743 100.693329 
L 230.348933 102.563241 
L 236.560436 106.156088 
L 242.771939 101.886478 
L 248.983442 101.028883 
L 255.194944 100.723816 
L 261.406447 104.011483 
L 267.61795 103.70708 
L 273.829453 104.938561 
L 280.040955 104.4255 
L 286.252458 102.938619 
L 292.463961 99.532711 
L 298.675464 104.633653 
L 304.886967 105.060987 
L 311.098469 105.756847 
L 317.309972 105.455254 
L 323.521475 104.269954 
L 329.732978 105.476125 
L 335.944481 107.23476 
L 342.155983 103.992373 
L 348.367486 104.842098 
L 354.578989 100.449236 
L 360.790492 105.068967 
L 367.001994 101.355426 
L 373.213497 102.917563 
L 379.425 102.224038 
L 385.636503 105.276256 
L 391.848006 104.195947 
L 398.059508 104.873145 
L 404.271011 102.467858 
L 410.482514 106.358228 
L 416.694017 104.776828 
L 422.905519 108.562936 
L 429.117022 108.403474 
L 435.328525 113.101825 
L 441.540028 105.846889 
L 447.751531 108.451329 
L 453.963033 109.508191 
L 460.174536 113.99525 
L 466.386039 112.379395 
L 472.597542 111.265598 
L 478.809045 114.548853 
L 485.020547 114.634868 
L 491.23205 113.479111 
L 497.443553 114.400317 
L 503.655056 117.133191 
L 509.866558 118.022167 
L 516.078061 117.847974 
L 522.289564 118.688221 
L 528.501067 119.230912 
L 534.71257 120.451782 
L 540.924072 120.114336 
L 547.135575 121.981621 
L 553.347078 122.83621 
L 559.558581 125.658243 
L 565.770083 127.024156 
L 571.981586 128.957721 
L 578.193089 127.443267 
L 584.404592 130.586518 
L 590.616095 133.27022 
L 596.827597 133.918811 
L 603.0391 133.956434 
L 609.250603 135.034396 
L 615.462106 134.292238 
L 621.673609 137.943688 
L 627.885111 139.847437 
L 634.096614 139.463922 
L 640.308117 140.540378 
L 646.51962 141.955549 
L 652.731122 142.548966 
L 658.942625 145.025522 
L 665.154128 143.836834 
L 671.365631 144.643231 
L 677.577134 146.547706 
L 683.788636 146.017064 
" clip-path="url(#p42a7c174e2)" style="fill: none; stroke: #7f7f7f; stroke-width: 1.5; stroke-linecap: round"/>
   </g>
   <g id="line2d_28">
    <path d="M 75.061364 78.376373 
L 81.272866 78.899692 
L 87.484369 79.720446 
L 93.695872 81.879757 
L 99.907375 81.734222 
L 106.118878 83.508959 
L 112.33038 83.221823 
L 118.541883 88.107008 
L 124.753386 80.022737 
L 130.964889 87.276517 
L 137.176391 87.219465 
L 143.387894 81.763332 
L 149.599397 87.359353 
L 155.8109 83.445058 
L 162.022403 82.592103 
L 168.233905 84.436131 
L 174.445408 79.775012 
L 180.656911 84.046079 
L 186.868414 82.81295 
L 193.079917 84.481737 
L 199.291419 77.425459 
L 205.502922 78.096247 
L 211.714425 76.564619 
L 217.925928 84.7573 
L 224.13743 83.337892 
L 230.348933 81.607676 
L 236.560436 86.091939 
L 242.771939 82.723741 
L 248.983442 83.204145 
L 255.194944 82.950689 
L 261.406447 82.150802 
L 267.61795 86.761725 
L 273.829453 85.051947 
L 280.040955 85.960295 
L 286.252458 82.90451 
L 292.463961 80.811104 
L 298.675464 85.524905 
L 304.886967 86.426704 
L 311.098469 88.165985 
L 317.309972 87.371612 
L 323.521475 86.379224 
L 329.732978 85.164161 
L 335.944481 85.921693 
L 342.155983 84.395059 
L 348.367486 84.265593 
L 354.578989 84.609377 
L 360.790492 89.887237 
L 367.001994 79.973928 
L 373.213497 87.570645 
L 379.425 84.427375 
L 385.636503 87.017516 
L 391.848006 86.955331 
L 398.059508 87.696903 
L 404.271011 86.028513 
L 410.482514 88.500573 
L 416.694017 84.830433 
L 422.905519 92.847665 
L 429.117022 90.468204 
L 435.328525 93.001119 
L 441.540028 92.143534 
L 447.751531 92.960309 
L 453.963033 90.571669 
L 460.174536 94.248587 
L 466.386039 94.709728 
L 472.597542 89.495736 
L 478.809045 93.746309 
L 485.020547 93.657737 
L 491.23205 95.434328 
L 497.443553 93.795129 
L 503.655056 95.997654 
L 509.866558 99.03167 
L 516.078061 96.680249 
L 522.289564 98.928699 
L 528.501067 97.069456 
L 534.71257 98.96394 
L 540.924072 97.57179 
L 547.135575 98.972125 
L 553.347078 102.47059 
L 559.558581 102.183987 
L 565.770083 101.44337 
L 571.981586 104.864839 
L 578.193089 101.877045 
L 584.404592 104.997919 
L 590.616095 106.30219 
L 596.827597 106.852646 
L 603.0391 110.701546 
L 609.250603 108.855508 
L 615.462106 108.548379 
L 621.673609 110.442202 
L 627.885111 112.075594 
L 634.096614 113.367645 
L 640.308117 114.180936 
L 646.51962 117.672538 
L 652.731122 118.441449 
L 658.942625 116.455143 
L 665.154128 117.273659 
L 671.365631 117.300168 
L 677.577134 118.689715 
L 683.788636 119.726432 
" clip-path="url(#p42a7c174e2)" style="fill: none; stroke: #bcbd22; stroke-width: 1.5; stroke-linecap: round"/>
   </g>
   <g id="line2d_29">
    <path d="M 75.061364 70.685494 
L 81.272866 68.404693 
L 87.484369 60.167815 
L 93.695872 62.485292 
L 99.907375 72.023405 
L 106.118878 68.84731 
L 112.33038 60.78796 
L 118.541883 63.678471 
L 124.753386 61.728982 
L 130.964889 65.62518 
L 137.176391 73.39455 
L 143.387894 72.702915 
L 149.599397 67.072636 
L 155.8109 58.951739 
L 162.022403 67.391717 
L 168.233905 64.386418 
L 174.445408 72.130207 
L 180.656911 66.624222 
L 186.868414 68.100453 
L 193.079917 65.874268 
L 199.291419 64.968055 
L 205.502922 63.970604 
L 211.714425 64.619489 
L 217.925928 72.623507 
L 224.13743 68.812944 
L 230.348933 65.148494 
L 236.560436 67.708009 
L 242.771939 65.844528 
L 248.983442 68.844341 
L 255.194944 71.435046 
L 261.406447 64.649386 
L 267.61795 68.505967 
L 273.829453 66.072766 
L 280.040955 67.899885 
L 286.252458 67.101436 
L 292.463961 67.084784 
L 298.675464 68.298103 
L 304.886967 72.007424 
L 311.098469 67.829472 
L 317.309972 66.56772 
L 323.521475 69.215176 
L 329.732978 70.307638 
L 335.944481 69.206981 
L 342.155983 65.585326 
L 348.367486 67.867948 
L 354.578989 70.367982 
L 360.790492 71.438034 
L 367.001994 66.241874 
L 373.213497 73.666901 
L 379.425 72.437431 
L 385.636503 71.043833 
L 391.848006 66.767516 
L 398.059508 72.51156 
L 404.271011 66.800881 
L 410.482514 70.418847 
L 416.694017 70.230914 
L 422.905519 76.215813 
L 429.117022 76.197826 
L 435.328525 73.950137 
L 441.540028 75.568394 
L 447.751531 77.376841 
L 453.963033 69.03493 
L 460.174536 76.767415 
L 466.386039 75.506136 
L 472.597542 74.389273 
L 478.809045 76.446793 
L 485.020547 75.038901 
L 491.23205 74.147132 
L 497.443553 73.643309 
L 503.655056 76.504078 
L 509.866558 78.901667 
L 516.078061 76.560506 
L 522.289564 79.269663 
L 528.501067 76.457236 
L 534.71257 80.298197 
L 540.924072 76.420508 
L 547.135575 79.152141 
L 553.347078 79.790327 
L 559.558581 82.869205 
L 565.770083 79.485858 
L 571.981586 82.338796 
L 578.193089 79.015734 
L 584.404592 79.288584 
L 590.616095 82.861195 
L 596.827597 83.837422 
L 603.0391 85.626356 
L 609.250603 85.424612 
L 615.462106 83.587922 
L 621.673609 86.849037 
L 627.885111 85.808183 
L 634.096614 85.975419 
L 640.308117 85.920996 
L 646.51962 90.179562 
L 652.731122 89.084995 
L 658.942625 90.558463 
L 665.154128 91.37205 
L 671.365631 91.8464 
L 677.577134 94.324819 
L 683.788636 96.025574 
" clip-path="url(#p42a7c174e2)" style="fill: none; stroke: #17becf; stroke-width: 1.5; stroke-linecap: round"/>
   </g>
   <g id="line2d_30">
    <path d="M 75.061364 73.182985 
L 81.272866 70.448681 
L 87.484369 47.91556 
L 93.695872 63.722699 
L 99.907375 50.577131 
L 106.118878 62.221794 
L 112.33038 59.483898 
L 118.541883 61.98374 
L 124.753386 51.65727 
L 130.964889 53.942269 
L 137.176391 57.992165 
L 143.387894 64.394871 
L 149.599397 68.780478 
L 155.8109 52.784596 
L 162.022403 59.198886 
L 168.233905 66.815188 
L 174.445408 53.239845 
L 180.656911 57.6509 
L 186.868414 48.522055 
L 193.079917 48.663148 
L 199.291419 48.696978 
L 205.502922 55.009117 
L 211.714425 42.56 
L 217.925928 62.983489 
L 224.13743 51.495582 
L 230.348933 58.73317 
L 236.560436 55.747516 
L 242.771939 63.978557 
L 248.983442 58.979309 
L 255.194944 59.463791 
L 261.406447 64.713073 
L 267.61795 48.325629 
L 273.829453 48.062962 
L 280.040955 57.711289 
L 286.252458 55.755699 
L 292.463961 47.261364 
L 298.675464 53.001671 
L 304.886967 52.673196 
L 311.098469 45.943999 
L 317.309972 54.854322 
L 323.521475 58.58323 
L 329.732978 57.984881 
L 335.944481 51.760395 
L 342.155983 52.74589 
L 348.367486 60.862135 
L 354.578989 48.66393 
L 360.790492 48.832269 
L 367.001994 49.159268 
L 373.213497 57.413904 
L 379.425 56.910038 
L 385.636503 54.934986 
L 391.848006 56.739416 
L 398.059508 59.488298 
L 404.271011 57.030495 
L 410.482514 56.177765 
L 416.694017 57.364579 
L 422.905519 55.116863 
L 429.117022 57.093585 
L 435.328525 68.868411 
L 441.540028 64.095374 
L 447.751531 56.677785 
L 453.963033 53.493012 
L 460.174536 64.117908 
L 466.386039 58.752073 
L 472.597542 61.076432 
L 478.809045 61.754946 
L 485.020547 65.438692 
L 491.23205 54.660514 
L 497.443553 55.480651 
L 503.655056 60.750014 
L 509.866558 63.358314 
L 516.078061 62.876858 
L 522.289564 62.279032 
L 528.501067 56.36183 
L 534.71257 62.889509 
L 540.924072 57.137244 
L 547.135575 61.185878 
L 553.347078 61.786629 
L 559.558581 62.998763 
L 565.770083 57.598656 
L 571.981586 60.72025 
L 578.193089 62.231172 
L 584.404592 57.861967 
L 590.616095 61.899495 
L 596.827597 62.820585 
L 603.0391 63.811708 
L 609.250603 60.463073 
L 615.462106 63.57356 
L 621.673609 63.820466 
L 627.885111 60.928639 
L 634.096614 62.553411 
L 640.308117 59.098985 
L 646.51962 66.907256 
L 652.731122 65.958642 
L 658.942625 65.715749 
L 665.154128 64.210826 
L 671.365631 65.272707 
L 677.577134 70.128721 
L 683.788636 69.055967 
" clip-path="url(#p42a7c174e2)" style="fill: none; stroke: #1f77b4; stroke-width: 1.5; stroke-linecap: round"/>
   </g>
   <g id="patch_3">
    <path d="M 44.625 465.92 
L 44.625 22.4 
" style="fill: none; stroke: #262626; stroke-width: 1.25; stroke-linejoin: miter; stroke-linecap: square"/>
   </g>
   <g id="patch_4">
    <path d="M 44.625 465.92 
L 714.225 465.92 
" style="fill: none; stroke: #262626; stroke-width: 1.25; stroke-linejoin: miter; stroke-linecap: square"/>
   </g>
   <g id="legend_1">
    <g id="text_13">
     <!-- Age ($x$) -->
     <g style="fill: #262626" transform="translate(775.8875 48.48)scale(0.16 -0.16)">
      <defs>
       <path id="ArialMT-41" d="M -9 0 
L 1750 4581 
L 2403 4581 
L 4278 0 
L 3588 0 
L 3053 1388 
L 1138 1388 
L 634 0 
L -9 0 
z
M 1313 1881 
L 2866 1881 
L 2388 3150 
Q 2169 3728 2063 4100 
Q 1975 3659 1816 3225 
L 1313 1881 
z
" transform="scale(0.015625)"/>
       <path id="ArialMT-67" d="M 319 -275 
L 866 -356 
Q 900 -609 1056 -725 
Q 1266 -881 1628 -881 
Q 2019 -881 2231 -725 
Q 2444 -569 2519 -288 
Q 2563 -116 2559 434 
Q 2191 0 1641 0 
Q 956 0 581 494 
Q 206 988 206 1678 
Q 206 2153 378 2554 
Q 550 2956 876 3175 
Q 1203 3394 1644 3394 
Q 2231 3394 2613 2919 
L 2613 3319 
L 3131 3319 
L 3131 450 
Q 3131 -325 2973 -648 
Q 2816 -972 2473 -1159 
Q 2131 -1347 1631 -1347 
Q 1038 -1347 672 -1080 
Q 306 -813 319 -275 
z
M 784 1719 
Q 784 1066 1043 766 
Q 1303 466 1694 466 
Q 2081 466 2343 764 
Q 2606 1063 2606 1700 
Q 2606 2309 2336 2618 
Q 2066 2928 1684 2928 
Q 1309 2928 1046 2623 
Q 784 2319 784 1719 
z
" transform="scale(0.015625)"/>
       <path id="DejaVuSans-Oblique-78" d="M 3841 3500 
L 2234 1784 
L 3219 0 
L 2559 0 
L 1819 1388 
L 531 0 
L -166 0 
L 1556 1844 
L 641 3500 
L 1300 3500 
L 1972 2234 
L 3144 3500 
L 3841 3500 
z
" transform="scale(0.015625)"/>
      </defs>
      <use xlink:href="#ArialMT-41" transform="translate(0 0.203125)"/>
      <use xlink:href="#ArialMT-67" transform="translate(66.699219 0.203125)"/>
      <use xlink:href="#ArialMT-65" transform="translate(122.314453 0.203125)"/>
      <use xlink:href="#ArialMT-20" transform="translate(177.929688 0.203125)"/>
      <use xlink:href="#ArialMT-28" transform="translate(205.712891 0.203125)"/>
      <use xlink:href="#DejaVuSans-Oblique-78" transform="translate(239.013672 0.203125)"/>
      <use xlink:href="#ArialMT-29" transform="translate(298.193359 0.203125)"/>
     </g>
    </g>
    <g id="line2d_31">
     <path d="M 771.15 65.8525 
L 787.15 65.8525 
L 803.15 65.8525 
" style="fill: none; stroke: #1f77b4; stroke-width: 1.5; stroke-linecap: round"/>
    </g>
    <g id="text_14">
     <!-- 95 -->
     <g style="fill: #262626" transform="translate(815.95 71.4525)scale(0.16 -0.16)">
      <defs>
       <path id="ArialMT-35" d="M 266 1200 
L 856 1250 
Q 922 819 1161 601 
Q 1400 384 1738 384 
Q 2144 384 2425 690 
Q 2706 997 2706 1503 
Q 2706 1984 2436 2262 
Q 2166 2541 1728 2541 
Q 1456 2541 1237 2417 
Q 1019 2294 894 2097 
L 366 2166 
L 809 4519 
L 3088 4519 
L 3088 3981 
L 1259 3981 
L 1013 2750 
Q 1425 3038 1878 3038 
Q 2478 3038 2890 2622 
Q 3303 2206 3303 1553 
Q 3303 931 2941 478 
Q 2500 -78 1738 -78 
Q 1113 -78 717 272 
Q 322 622 266 1200 
z
" transform="scale(0.015625)"/>
      </defs>
      <use xlink:href="#ArialMT-39"/>
      <use xlink:href="#ArialMT-35" x="55.615234"/>
     </g>
    </g>
    <g id="line2d_32">
     <path d="M 771.15 88.485 
L 787.15 88.485 
L 803.15 88.485 
" style="fill: none; stroke: #17becf; stroke-width: 1.5; stroke-linecap: round"/>
    </g>
    <g id="text_15">
     <!-- 90 -->
     <g style="fill: #262626" transform="translate(815.95 94.085)scale(0.16 -0.16)">
      <use xlink:href="#ArialMT-39"/>
      <use xlink:href="#ArialMT-30" x="55.615234"/>
     </g>
    </g>
    <g id="line2d_33">
     <path d="M 771.15 111.1175 
L 787.15 111.1175 
L 803.15 111.1175 
" style="fill: none; stroke: #bcbd22; stroke-width: 1.5; stroke-linecap: round"/>
    </g>
    <g id="text_16">
     <!-- 85 -->
     <g style="fill: #262626" transform="translate(815.95 116.7175)scale(0.16 -0.16)">
      <use xlink:href="#ArialMT-38"/>
      <use xlink:href="#ArialMT-35" x="55.615234"/>
     </g>
    </g>
    <g id="line2d_34">
     <path d="M 771.15 133.75 
L 787.15 133.75 
L 803.15 133.75 
" style="fill: none; stroke: #7f7f7f; stroke-width: 1.5; stroke-linecap: round"/>
    </g>
    <g id="text_17">
     <!-- 80 -->
     <g style="fill: #262626" transform="translate(815.95 139.35)scale(0.16 -0.16)">
      <use xlink:href="#ArialMT-38"/>
      <use xlink:href="#ArialMT-30" x="55.615234"/>
     </g>
    </g>
    <g id="line2d_35">
     <path d="M 771.15 156.3825 
L 787.15 156.3825 
L 803.15 156.3825 
" style="fill: none; stroke: #e377c2; stroke-width: 1.5; stroke-linecap: round"/>
    </g>
    <g id="text_18">
     <!-- 75 -->
     <g style="fill: #262626" transform="translate(815.95 161.9825)scale(0.16 -0.16)">
      <defs>
       <path id="ArialMT-37" d="M 303 3981 
L 303 4522 
L 3269 4522 
L 3269 4084 
Q 2831 3619 2401 2847 
Q 1972 2075 1738 1259 
Q 1569 684 1522 0 
L 944 0 
Q 953 541 1156 1306 
Q 1359 2072 1739 2783 
Q 2119 3494 2547 3981 
L 303 3981 
z
" transform="scale(0.015625)"/>
      </defs>
      <use xlink:href="#ArialMT-37"/>
      <use xlink:href="#ArialMT-35" x="55.615234"/>
     </g>
    </g>
    <g id="line2d_36">
     <path d="M 771.15 179.015 
L 787.15 179.015 
L 803.15 179.015 
" style="fill: none; stroke: #8c564b; stroke-width: 1.5; stroke-linecap: round"/>
    </g>
    <g id="text_19">
     <!-- 70 -->
     <g style="fill: #262626" transform="translate(815.95 184.615)scale(0.16 -0.16)">
      <use xlink:href="#ArialMT-37"/>
      <use xlink:href="#ArialMT-30" x="55.615234"/>
     </g>
    </g>
    <g id="line2d_37">
     <path d="M 771.15 201.6475 
L 787.15 201.6475 
L 803.15 201.6475 
" style="fill: none; stroke: #9467bd; stroke-width: 1.5; stroke-linecap: round"/>
    </g>
    <g id="text_20">
     <!-- 65 -->
     <g style="fill: #262626" transform="translate(815.95 207.2475)scale(0.16 -0.16)">
      <use xlink:href="#ArialMT-36"/>
      <use xlink:href="#ArialMT-35" x="55.615234"/>
     </g>
    </g>
    <g id="line2d_38">
     <path d="M 771.15 224.28 
L 787.15 224.28 
L 803.15 224.28 
" style="fill: none; stroke: #d62728; stroke-width: 1.5; stroke-linecap: round"/>
    </g>
    <g id="text_21">
     <!-- 60 -->
     <g style="fill: #262626" transform="translate(815.95 229.88)scale(0.16 -0.16)">
      <use xlink:href="#ArialMT-36"/>
      <use xlink:href="#ArialMT-30" x="55.615234"/>
     </g>
    </g>
    <g id="line2d_39">
     <path d="M 771.15 246.9125 
L 787.15 246.9125 
L 803.15 246.9125 
" style="fill: none; stroke: #2ca02c; stroke-width: 1.5; stroke-linecap: round"/>
    </g>
    <g id="text_22">
     <!-- 55 -->
     <g style="fill: #262626" transform="translate(815.95 252.5125)scale(0.16 -0.16)">
      <use xlink:href="#ArialMT-35"/>
      <use xlink:href="#ArialMT-35" x="55.615234"/>
     </g>
    </g>
    <g id="line2d_40">
     <path d="M 771.15 269.545 
L 787.15 269.545 
L 803.15 269.545 
" style="fill: none; stroke: #1f77b4; stroke-width: 1.5; stroke-linecap: round"/>
    </g>
    <g id="text_23">
     <!-- 50 -->
     <g style="fill: #262626" transform="translate(815.95 275.145)scale(0.16 -0.16)">
      <use xlink:href="#ArialMT-35"/>
      <use xlink:href="#ArialMT-30" x="55.615234"/>
     </g>
    </g>
    <g id="line2d_41">
     <path d="M 771.15 292.1775 
L 787.15 292.1775 
L 803.15 292.1775 
" style="fill: none; stroke: #17becf; stroke-width: 1.5; stroke-linecap: round"/>
    </g>
    <g id="text_24">
     <!-- 45 -->
     <g style="fill: #262626" transform="translate(815.95 297.7775)scale(0.16 -0.16)">
      <use xlink:href="#ArialMT-34"/>
      <use xlink:href="#ArialMT-35" x="55.615234"/>
     </g>
    </g>
    <g id="line2d_42">
     <path d="M 771.15 314.81 
L 787.15 314.81 
L 803.15 314.81 
" style="fill: none; stroke: #bcbd22; stroke-width: 1.5; stroke-linecap: round"/>
    </g>
    <g id="text_25">
     <!-- 40 -->
     <g style="fill: #262626" transform="translate(815.95 320.41)scale(0.16 -0.16)">
      <use xlink:href="#ArialMT-34"/>
      <use xlink:href="#ArialMT-30" x="55.615234"/>
     </g>
    </g>
    <g id="line2d_43">
     <path d="M 771.15 337.4425 
L 787.15 337.4425 
L 803.15 337.4425 
" style="fill: none; stroke: #7f7f7f; stroke-width: 1.5; stroke-linecap: round"/>
    </g>
    <g id="text_26">
     <!-- 35 -->
     <g style="fill: #262626" transform="translate(815.95 343.0425)scale(0.16 -0.16)">
      <defs>
       <path id="ArialMT-33" d="M 269 1209 
L 831 1284 
Q 928 806 1161 595 
Q 1394 384 1728 384 
Q 2125 384 2398 659 
Q 2672 934 2672 1341 
Q 2672 1728 2419 1979 
Q 2166 2231 1775 2231 
Q 1616 2231 1378 2169 
L 1441 2663 
Q 1497 2656 1531 2656 
Q 1891 2656 2178 2843 
Q 2466 3031 2466 3422 
Q 2466 3731 2256 3934 
Q 2047 4138 1716 4138 
Q 1388 4138 1169 3931 
Q 950 3725 888 3313 
L 325 3413 
Q 428 3978 793 4289 
Q 1159 4600 1703 4600 
Q 2078 4600 2393 4439 
Q 2709 4278 2876 4000 
Q 3044 3722 3044 3409 
Q 3044 3113 2884 2869 
Q 2725 2625 2413 2481 
Q 2819 2388 3044 2092 
Q 3269 1797 3269 1353 
Q 3269 753 2831 336 
Q 2394 -81 1725 -81 
Q 1122 -81 723 278 
Q 325 638 269 1209 
z
" transform="scale(0.015625)"/>
      </defs>
      <use xlink:href="#ArialMT-33"/>
      <use xlink:href="#ArialMT-35" x="55.615234"/>
     </g>
    </g>
    <g id="line2d_44">
     <path d="M 771.15 360.075 
L 787.15 360.075 
L 803.15 360.075 
" style="fill: none; stroke: #e377c2; stroke-width: 1.5; stroke-linecap: round"/>
    </g>
    <g id="text_27">
     <!-- 30 -->
     <g style="fill: #262626" transform="translate(815.95 365.675)scale(0.16 -0.16)">
      <use xlink:href="#ArialMT-33"/>
      <use xlink:href="#ArialMT-30" x="55.615234"/>
     </g>
    </g>
    <g id="line2d_45">
     <path d="M 771.15 382.7075 
L 787.15 382.7075 
L 803.15 382.7075 
" style="fill: none; stroke: #8c564b; stroke-width: 1.5; stroke-linecap: round"/>
    </g>
    <g id="text_28">
     <!-- 25 -->
     <g style="fill: #262626" transform="translate(815.95 388.3075)scale(0.16 -0.16)">
      <use xlink:href="#ArialMT-32"/>
      <use xlink:href="#ArialMT-35" x="55.615234"/>
     </g>
    </g>
    <g id="line2d_46">
     <path d="M 771.15 405.34 
L 787.15 405.34 
L 803.15 405.34 
" style="fill: none; stroke: #9467bd; stroke-width: 1.5; stroke-linecap: round"/>
    </g>
    <g id="text_29">
     <!-- 20 -->
     <g style="fill: #262626" transform="translate(815.95 410.94)scale(0.16 -0.16)">
      <use xlink:href="#ArialMT-32"/>
      <use xlink:href="#ArialMT-30" x="55.615234"/>
     </g>
    </g>
    <g id="line2d_47">
     <path d="M 771.15 427.9725 
L 787.15 427.9725 
L 803.15 427.9725 
" style="fill: none; stroke: #d62728; stroke-width: 1.5; stroke-linecap: round"/>
    </g>
    <g id="text_30">
     <!-- 15 -->
     <g style="fill: #262626" transform="translate(815.95 433.5725)scale(0.16 -0.16)">
      <use xlink:href="#ArialMT-31"/>
      <use xlink:href="#ArialMT-35" x="55.615234"/>
     </g>
    </g>
    <g id="line2d_48">
     <path d="M 771.15 450.605 
L 787.15 450.605 
L 803.15 450.605 
" style="fill: none; stroke: #2ca02c; stroke-width: 1.5; stroke-linecap: round"/>
    </g>
    <g id="text_31">
     <!-- 10 -->
     <g style="fill: #262626" transform="translate(815.95 456.205)scale(0.16 -0.16)">
      <use xlink:href="#ArialMT-31"/>
      <use xlink:href="#ArialMT-30" x="55.615234"/>
     </g>
    </g>
    <g id="line2d_49">
     <path d="M 771.15 473.2375 
L 787.15 473.2375 
L 803.15 473.2375 
" style="fill: none; stroke: #1f77b4; stroke-width: 1.5; stroke-linecap: round"/>
    </g>
    <g id="text_32">
     <!-- 5 -->
     <g style="fill: #262626" transform="translate(815.95 478.8375)scale(0.16 -0.16)">
      <use xlink:href="#ArialMT-35"/>
     </g>
    </g>
   </g>
  </g>
  <g id="text_33">
   <!-- $\log(m_{x,t})$ -->
   <g style="fill: #262626" transform="translate(57.585 22.4)scale(0.2 -0.2)">
    <defs>
     <path id="DejaVuSans-6c" d="M 603 4863 
L 1178 4863 
L 1178 0 
L 603 0 
L 603 4863 
z
" transform="scale(0.015625)"/>
     <path id="DejaVuSans-6f" d="M 1959 3097 
Q 1497 3097 1228 2736 
Q 959 2375 959 1747 
Q 959 1119 1226 758 
Q 1494 397 1959 397 
Q 2419 397 2687 759 
Q 2956 1122 2956 1747 
Q 2956 2369 2687 2733 
Q 2419 3097 1959 3097 
z
M 1959 3584 
Q 2709 3584 3137 3096 
Q 3566 2609 3566 1747 
Q 3566 888 3137 398 
Q 2709 -91 1959 -91 
Q 1206 -91 779 398 
Q 353 888 353 1747 
Q 353 2609 779 3096 
Q 1206 3584 1959 3584 
z
" transform="scale(0.015625)"/>
     <path id="DejaVuSans-67" d="M 2906 1791 
Q 2906 2416 2648 2759 
Q 2391 3103 1925 3103 
Q 1463 3103 1205 2759 
Q 947 2416 947 1791 
Q 947 1169 1205 825 
Q 1463 481 1925 481 
Q 2391 481 2648 825 
Q 2906 1169 2906 1791 
z
M 3481 434 
Q 3481 -459 3084 -895 
Q 2688 -1331 1869 -1331 
Q 1566 -1331 1297 -1286 
Q 1028 -1241 775 -1147 
L 775 -588 
Q 1028 -725 1275 -790 
Q 1522 -856 1778 -856 
Q 2344 -856 2625 -561 
Q 2906 -266 2906 331 
L 2906 616 
Q 2728 306 2450 153 
Q 2172 0 1784 0 
Q 1141 0 747 490 
Q 353 981 353 1791 
Q 353 2603 747 3093 
Q 1141 3584 1784 3584 
Q 2172 3584 2450 3431 
Q 2728 3278 2906 2969 
L 2906 3500 
L 3481 3500 
L 3481 434 
z
" transform="scale(0.015625)"/>
     <path id="DejaVuSans-28" d="M 1984 4856 
Q 1566 4138 1362 3434 
Q 1159 2731 1159 2009 
Q 1159 1288 1364 580 
Q 1569 -128 1984 -844 
L 1484 -844 
Q 1016 -109 783 600 
Q 550 1309 550 2009 
Q 550 2706 781 3412 
Q 1013 4119 1484 4856 
L 1984 4856 
z
" transform="scale(0.015625)"/>
     <path id="DejaVuSans-Oblique-6d" d="M 5747 2113 
L 5338 0 
L 4763 0 
L 5166 2094 
Q 5191 2228 5203 2325 
Q 5216 2422 5216 2491 
Q 5216 2772 5059 2928 
Q 4903 3084 4622 3084 
Q 4203 3084 3875 2770 
Q 3547 2456 3450 1953 
L 3066 0 
L 2491 0 
L 2900 2094 
Q 2925 2209 2937 2307 
Q 2950 2406 2950 2484 
Q 2950 2769 2794 2926 
Q 2638 3084 2363 3084 
Q 1938 3084 1609 2770 
Q 1281 2456 1184 1953 
L 800 0 
L 225 0 
L 909 3500 
L 1484 3500 
L 1375 2956 
Q 1609 3263 1923 3423 
Q 2238 3584 2597 3584 
Q 2978 3584 3223 3384 
Q 3469 3184 3519 2828 
Q 3781 3197 4126 3390 
Q 4472 3584 4856 3584 
Q 5306 3584 5551 3325 
Q 5797 3066 5797 2591 
Q 5797 2488 5784 2364 
Q 5772 2241 5747 2113 
z
" transform="scale(0.015625)"/>
     <path id="DejaVuSans-2c" d="M 750 794 
L 1409 794 
L 1409 256 
L 897 -744 
L 494 -744 
L 750 256 
L 750 794 
z
" transform="scale(0.015625)"/>
     <path id="DejaVuSans-29" d="M 513 4856 
L 1013 4856 
Q 1481 4119 1714 3412 
Q 1947 2706 1947 2009 
Q 1947 1309 1714 600 
Q 1481 -109 1013 -844 
L 513 -844 
Q 928 -128 1133 580 
Q 1338 1288 1338 2009 
Q 1338 2731 1133 3434 
Q 928 4138 513 4856 
z
" transform="scale(0.015625)"/>
    </defs>
    <use xlink:href="#DejaVuSans-6c" transform="translate(0 0.015625)"/>
    <use xlink:href="#DejaVuSans-6f" transform="translate(27.783203 0.015625)"/>
    <use xlink:href="#DejaVuSans-67" transform="translate(88.964844 0.015625)"/>
    <use xlink:href="#DejaVuSans-28" transform="translate(152.441406 0.015625)"/>
    <use xlink:href="#DejaVuSans-Oblique-6d" transform="translate(191.455078 0.015625)"/>
    <use xlink:href="#DejaVuSans-Oblique-78" transform="translate(288.867188 -16.390625)scale(0.7)"/>
    <use xlink:href="#DejaVuSans-2c" transform="translate(330.292969 -16.390625)scale(0.7)"/>
    <use xlink:href="#DejaVuSans-Oblique-74" transform="translate(366.181641 -16.390625)scale(0.7)"/>
    <use xlink:href="#DejaVuSans-29" transform="translate(396.362305 0.015625)"/>
   </g>
  </g>
 </g>
 <defs>
  <clipPath id="p42a7c174e2">
   <rect x="44.625" y="22.4" width="669.6" height="443.52"/>
  </clipPath>
 </defs>
</svg>
