<?xml version="1.0" encoding="utf-8" standalone="no"?>
<!DOCTYPE svg PUBLIC "-//W3C//DTD SVG 1.1//EN"
  "http://www.w3.org/Graphics/SVG/1.1/DTD/svg11.dtd">
<!-- Created with matplotlib (https://matplotlib.org/) -->
<svg height="500pt" version="1.1" viewBox="0 0 351.230268 136.329777" width="1290pt" xmlns="http://www.w3.org/2000/svg" xmlns:xlink="http://www.w3.org/1999/xlink">
 <defs>
  <style type="text/css">
*{stroke-linecap:butt;stroke-linejoin:round;}
  </style>
 </defs>
 <g id="figure_1">
  <g id="patch_1">
   <path d="M 0 136.329777 
L 351.230268 136.329777 
L 351.230268 0 
L 0 0 
z
" style="fill:none;"/>
  </g>
  <g id="axes_1">
   <g id="patch_2">
    <path d="M 30.103125 97.805714 
L 170.220982 97.805714 
L 170.220982 22.44 
L 30.103125 22.44 
z
" style="fill:none;"/>
   </g>
   <g id="matplotlib.axis_1">
    <g id="xtick_1">
     <g id="line2d_1"/>
     <g id="text_1">
      <!-- 50 -->
      <defs>
       <path d="M 10.796875 72.90625 
L 49.515625 72.90625 
L 49.515625 64.59375 
L 19.828125 64.59375 
L 19.828125 46.734375 
Q 21.96875 47.46875 24.109375 47.828125 
Q 26.265625 48.1875 28.421875 48.1875 
Q 40.625 48.1875 47.75 41.5 
Q 54.890625 34.8125 54.890625 23.390625 
Q 54.890625 11.625 47.5625 5.09375 
Q 40.234375 -1.421875 26.90625 -1.421875 
Q 22.3125 -1.421875 17.546875 -0.640625 
Q 12.796875 0.140625 7.71875 1.703125 
L 7.71875 11.625 
Q 12.109375 9.234375 16.796875 8.0625 
Q 21.484375 6.890625 26.703125 6.890625 
Q 35.15625 6.890625 40.078125 11.328125 
Q 45.015625 15.765625 45.015625 23.390625 
Q 45.015625 31 40.078125 35.4375 
Q 35.15625 39.890625 26.703125 39.890625 
Q 22.75 39.890625 18.8125 39.015625 
Q 14.890625 38.140625 10.796875 36.28125 
z
" id="DejaVuSans-53"/>
       <path d="M 31.78125 66.40625 
Q 24.171875 66.40625 20.328125 58.90625 
Q 16.5 51.421875 16.5 36.375 
Q 16.5 21.390625 20.328125 13.890625 
Q 24.171875 6.390625 31.78125 6.390625 
Q 39.453125 6.390625 43.28125 13.890625 
Q 47.125 21.390625 47.125 36.375 
Q 47.125 51.421875 43.28125 58.90625 
Q 39.453125 66.40625 31.78125 66.40625 
z
M 31.78125 74.21875 
Q 44.046875 74.21875 50.515625 64.515625 
Q 56.984375 54.828125 56.984375 36.375 
Q 56.984375 17.96875 50.515625 8.265625 
Q 44.046875 -1.421875 31.78125 -1.421875 
Q 19.53125 -1.421875 13.0625 8.265625 
Q 6.59375 17.96875 6.59375 36.375 
Q 6.59375 54.828125 13.0625 64.515625 
Q 19.53125 74.21875 31.78125 74.21875 
z
" id="DejaVuSans-48"/>
      </defs>
      <g style="fill:#262626;" transform="translate(58.770089 112.404152)scale(0.1 -0.1)">
       <use xlink:href="#DejaVuSans-53"/>
       <use x="63.623047" xlink:href="#DejaVuSans-48"/>
      </g>
     </g>
    </g>
    <g id="xtick_2">
     <g id="line2d_2"/>
     <g id="text_2">
      <!-- 250 -->
      <defs>
       <path d="M 19.1875 8.296875 
L 53.609375 8.296875 
L 53.609375 0 
L 7.328125 0 
L 7.328125 8.296875 
Q 12.9375 14.109375 22.625 23.890625 
Q 32.328125 33.6875 34.8125 36.53125 
Q 39.546875 41.84375 41.421875 45.53125 
Q 43.3125 49.21875 43.3125 52.78125 
Q 43.3125 58.59375 39.234375 62.25 
Q 35.15625 65.921875 28.609375 65.921875 
Q 23.96875 65.921875 18.8125 64.3125 
Q 13.671875 62.703125 7.8125 59.421875 
L 7.8125 69.390625 
Q 13.765625 71.78125 18.9375 73 
Q 24.125 74.21875 28.421875 74.21875 
Q 39.75 74.21875 46.484375 68.546875 
Q 53.21875 62.890625 53.21875 53.421875 
Q 53.21875 48.921875 51.53125 44.890625 
Q 49.859375 40.875 45.40625 35.40625 
Q 44.1875 33.984375 37.640625 27.21875 
Q 31.109375 20.453125 19.1875 8.296875 
z
" id="DejaVuSans-50"/>
      </defs>
      <g style="fill:#262626;" transform="translate(125.647768 112.404152)scale(0.1 -0.1)">
       <use xlink:href="#DejaVuSans-50"/>
       <use x="63.623047" xlink:href="#DejaVuSans-53"/>
       <use x="127.246094" xlink:href="#DejaVuSans-48"/>
      </g>
     </g>
    </g>
    <g id="text_3">
     <!-- Sample Size -->
     <defs>
      <path d="M 53.515625 70.515625 
L 53.515625 60.890625 
Q 47.90625 63.578125 42.921875 64.890625 
Q 37.9375 66.21875 33.296875 66.21875 
Q 25.25 66.21875 20.875 63.09375 
Q 16.5 59.96875 16.5 54.203125 
Q 16.5 49.359375 19.40625 46.890625 
Q 22.3125 44.4375 30.421875 42.921875 
L 36.375 41.703125 
Q 47.40625 39.59375 52.65625 34.296875 
Q 57.90625 29 57.90625 20.125 
Q 57.90625 9.515625 50.796875 4.046875 
Q 43.703125 -1.421875 29.984375 -1.421875 
Q 24.8125 -1.421875 18.96875 -0.25 
Q 13.140625 0.921875 6.890625 3.21875 
L 6.890625 13.375 
Q 12.890625 10.015625 18.65625 8.296875 
Q 24.421875 6.59375 29.984375 6.59375 
Q 38.421875 6.59375 43.015625 9.90625 
Q 47.609375 13.234375 47.609375 19.390625 
Q 47.609375 24.75 44.3125 27.78125 
Q 41.015625 30.8125 33.5 32.328125 
L 27.484375 33.5 
Q 16.453125 35.6875 11.515625 40.375 
Q 6.59375 45.0625 6.59375 53.421875 
Q 6.59375 63.09375 13.40625 68.65625 
Q 20.21875 74.21875 32.171875 74.21875 
Q 37.3125 74.21875 42.625 73.28125 
Q 47.953125 72.359375 53.515625 70.515625 
z
" id="DejaVuSans-83"/>
      <path d="M 34.28125 27.484375 
Q 23.390625 27.484375 19.1875 25 
Q 14.984375 22.515625 14.984375 16.5 
Q 14.984375 11.71875 18.140625 8.90625 
Q 21.296875 6.109375 26.703125 6.109375 
Q 34.1875 6.109375 38.703125 11.40625 
Q 43.21875 16.703125 43.21875 25.484375 
L 43.21875 27.484375 
z
M 52.203125 31.203125 
L 52.203125 0 
L 43.21875 0 
L 43.21875 8.296875 
Q 40.140625 3.328125 35.546875 0.953125 
Q 30.953125 -1.421875 24.3125 -1.421875 
Q 15.921875 -1.421875 10.953125 3.296875 
Q 6 8.015625 6 15.921875 
Q 6 25.140625 12.171875 29.828125 
Q 18.359375 34.515625 30.609375 34.515625 
L 43.21875 34.515625 
L 43.21875 35.40625 
Q 43.21875 41.609375 39.140625 45 
Q 35.0625 48.390625 27.6875 48.390625 
Q 23 48.390625 18.546875 47.265625 
Q 14.109375 46.140625 10.015625 43.890625 
L 10.015625 52.203125 
Q 14.9375 54.109375 19.578125 55.046875 
Q 24.21875 56 28.609375 56 
Q 40.484375 56 46.34375 49.84375 
Q 52.203125 43.703125 52.203125 31.203125 
z
" id="DejaVuSans-97"/>
      <path d="M 52 44.1875 
Q 55.375 50.25 60.0625 53.125 
Q 64.75 56 71.09375 56 
Q 79.640625 56 84.28125 50.015625 
Q 88.921875 44.046875 88.921875 33.015625 
L 88.921875 0 
L 79.890625 0 
L 79.890625 32.71875 
Q 79.890625 40.578125 77.09375 44.375 
Q 74.3125 48.1875 68.609375 48.1875 
Q 61.625 48.1875 57.5625 43.546875 
Q 53.515625 38.921875 53.515625 30.90625 
L 53.515625 0 
L 44.484375 0 
L 44.484375 32.71875 
Q 44.484375 40.625 41.703125 44.40625 
Q 38.921875 48.1875 33.109375 48.1875 
Q 26.21875 48.1875 22.15625 43.53125 
Q 18.109375 38.875 18.109375 30.90625 
L 18.109375 0 
L 9.078125 0 
L 9.078125 54.6875 
L 18.109375 54.6875 
L 18.109375 46.1875 
Q 21.1875 51.21875 25.484375 53.609375 
Q 29.78125 56 35.6875 56 
Q 41.65625 56 45.828125 52.96875 
Q 50 49.953125 52 44.1875 
z
" id="DejaVuSans-109"/>
      <path d="M 18.109375 8.203125 
L 18.109375 -20.796875 
L 9.078125 -20.796875 
L 9.078125 54.6875 
L 18.109375 54.6875 
L 18.109375 46.390625 
Q 20.953125 51.265625 25.265625 53.625 
Q 29.59375 56 35.59375 56 
Q 45.5625 56 51.78125 48.09375 
Q 58.015625 40.1875 58.015625 27.296875 
Q 58.015625 14.40625 51.78125 6.484375 
Q 45.5625 -1.421875 35.59375 -1.421875 
Q 29.59375 -1.421875 25.265625 0.953125 
Q 20.953125 3.328125 18.109375 8.203125 
z
M 48.6875 27.296875 
Q 48.6875 37.203125 44.609375 42.84375 
Q 40.53125 48.484375 33.40625 48.484375 
Q 26.265625 48.484375 22.1875 42.84375 
Q 18.109375 37.203125 18.109375 27.296875 
Q 18.109375 17.390625 22.1875 11.75 
Q 26.265625 6.109375 33.40625 6.109375 
Q 40.53125 6.109375 44.609375 11.75 
Q 48.6875 17.390625 48.6875 27.296875 
z
" id="DejaVuSans-112"/>
      <path d="M 9.421875 75.984375 
L 18.40625 75.984375 
L 18.40625 0 
L 9.421875 0 
z
" id="DejaVuSans-108"/>
      <path d="M 56.203125 29.59375 
L 56.203125 25.203125 
L 14.890625 25.203125 
Q 15.484375 15.921875 20.484375 11.0625 
Q 25.484375 6.203125 34.421875 6.203125 
Q 39.59375 6.203125 44.453125 7.46875 
Q 49.3125 8.734375 54.109375 11.28125 
L 54.109375 2.78125 
Q 49.265625 0.734375 44.1875 -0.34375 
Q 39.109375 -1.421875 33.890625 -1.421875 
Q 20.796875 -1.421875 13.15625 6.1875 
Q 5.515625 13.8125 5.515625 26.8125 
Q 5.515625 40.234375 12.765625 48.109375 
Q 20.015625 56 32.328125 56 
Q 43.359375 56 49.78125 48.890625 
Q 56.203125 41.796875 56.203125 29.59375 
z
M 47.21875 32.234375 
Q 47.125 39.59375 43.09375 43.984375 
Q 39.0625 48.390625 32.421875 48.390625 
Q 24.90625 48.390625 20.390625 44.140625 
Q 15.875 39.890625 15.1875 32.171875 
z
" id="DejaVuSans-101"/>
      <path id="DejaVuSans-32"/>
      <path d="M 9.421875 54.6875 
L 18.40625 54.6875 
L 18.40625 0 
L 9.421875 0 
z
M 9.421875 75.984375 
L 18.40625 75.984375 
L 18.40625 64.59375 
L 9.421875 64.59375 
z
" id="DejaVuSans-105"/>
      <path d="M 5.515625 54.6875 
L 48.1875 54.6875 
L 48.1875 46.484375 
L 14.40625 7.171875 
L 48.1875 7.171875 
L 48.1875 0 
L 4.296875 0 
L 4.296875 8.203125 
L 38.09375 47.515625 
L 5.515625 47.515625 
z
" id="DejaVuSans-122"/>
     </defs>
     <g style="fill:#262626;" transform="translate(66.500335 126.842121)scale(0.11 -0.11)">
      <use xlink:href="#DejaVuSans-83"/>
      <use x="63.476562" xlink:href="#DejaVuSans-97"/>
      <use x="124.755859" xlink:href="#DejaVuSans-109"/>
      <use x="222.167969" xlink:href="#DejaVuSans-112"/>
      <use x="285.644531" xlink:href="#DejaVuSans-108"/>
      <use x="313.427734" xlink:href="#DejaVuSans-101"/>
      <use x="374.951172" xlink:href="#DejaVuSans-32"/>
      <use x="406.738281" xlink:href="#DejaVuSans-83"/>
      <use x="470.214844" xlink:href="#DejaVuSans-105"/>
      <use x="497.998047" xlink:href="#DejaVuSans-122"/>
      <use x="550.488281" xlink:href="#DejaVuSans-101"/>
     </g>
    </g>
   </g>
   <g id="matplotlib.axis_2">
    <g id="ytick_1">
     <g id="line2d_3">
      <path clip-path="url(#pe77eea13d5)" d="M 30.103125 72.172749 
L 170.220982 72.172749 
" style="fill:none;stroke:#ffffff;stroke-linecap:round;"/>
     </g>
     <g id="line2d_4"/>
     <g id="text_4">
      <!-- 2.5 -->
      <defs>
       <path d="M 10.6875 12.40625 
L 21 12.40625 
L 21 0 
L 10.6875 0 
z
" id="DejaVuSans-46"/>
      </defs>
      <g style="fill:#262626;" transform="translate(7.2 75.971967)scale(0.1 -0.1)">
       <use xlink:href="#DejaVuSans-50"/>
       <use x="63.623047" xlink:href="#DejaVuSans-46"/>
       <use x="95.410156" xlink:href="#DejaVuSans-53"/>
      </g>
     </g>
    </g>
    <g id="ytick_2">
     <g id="line2d_5">
      <path clip-path="url(#pe77eea13d5)" d="M 30.103125 41.699465 
L 170.220982 41.699465 
" style="fill:none;stroke:#ffffff;stroke-linecap:round;"/>
     </g>
     <g id="line2d_6"/>
     <g id="text_5">
      <!-- 5.0 -->
      <g style="fill:#262626;" transform="translate(7.2 45.498684)scale(0.1 -0.1)">
       <use xlink:href="#DejaVuSans-53"/>
       <use x="63.623047" xlink:href="#DejaVuSans-46"/>
       <use x="95.410156" xlink:href="#DejaVuSans-48"/>
      </g>
     </g>
    </g>
   </g>
   <g id="patch_3">
    <path clip-path="url(#pe77eea13d5)" d="M 37.295842 77.589136 
L 55.604575 77.589136 
L 55.604575 56.140421 
L 37.295842 56.140421 
L 37.295842 77.589136 
z
" style="fill:#5875a4;stroke:#4c4c4c;stroke-linejoin:miter;stroke-width:1.75;"/>
   </g>
   <g id="patch_4">
    <path clip-path="url(#pe77eea13d5)" d="M 55.978223 86.34268 
L 74.286956 86.34268 
L 74.286956 80.955178 
L 55.978223 80.955178 
L 55.978223 86.34268 
z
" style="fill:#5f9e6e;stroke:#4c4c4c;stroke-linejoin:miter;stroke-width:1.75;"/>
   </g>
   <g id="patch_5">
    <path clip-path="url(#pe77eea13d5)" d="M 74.660604 86.327282 
L 92.969337 86.327282 
L 92.969337 79.867071 
L 74.660604 79.867071 
L 74.660604 86.327282 
z
" style="fill:#b55d60;stroke:#4c4c4c;stroke-linejoin:miter;stroke-width:1.75;"/>
   </g>
   <g id="patch_6">
    <path clip-path="url(#pe77eea13d5)" d="M 107.35477 83.74376 
L 125.663504 83.74376 
L 125.663504 74.275989 
L 107.35477 74.275989 
L 107.35477 83.74376 
z
" style="fill:#5875a4;stroke:#4c4c4c;stroke-linejoin:miter;stroke-width:1.75;"/>
   </g>
   <g id="patch_7">
    <path clip-path="url(#pe77eea13d5)" d="M 126.037151 80.353913 
L 144.345885 80.353913 
L 144.345885 78.101715 
L 126.037151 78.101715 
L 126.037151 80.353913 
z
" style="fill:#5f9e6e;stroke:#4c4c4c;stroke-linejoin:miter;stroke-width:1.75;"/>
   </g>
   <g id="patch_8">
    <path clip-path="url(#pe77eea13d5)" d="M 144.719532 81.453412 
L 163.028265 81.453412 
L 163.028265 78.398281 
L 144.719532 78.398281 
L 144.719532 81.453412 
z
" style="fill:#b55d60;stroke:#4c4c4c;stroke-linejoin:miter;stroke-width:1.75;"/>
   </g>
   <g id="patch_9">
    <path clip-path="url(#pe77eea13d5)" d="M 65.132589 102.646032 
L 65.132589 102.646032 
L 65.132589 102.646032 
L 65.132589 102.646032 
z
" style="fill:#5875a4;stroke:#4c4c4c;stroke-linejoin:miter;stroke-width:0.875;"/>
   </g>
   <g id="patch_10">
    <path clip-path="url(#pe77eea13d5)" d="M 65.132589 102.646032 
L 65.132589 102.646032 
L 65.132589 102.646032 
L 65.132589 102.646032 
z
" style="fill:#5f9e6e;stroke:#4c4c4c;stroke-linejoin:miter;stroke-width:0.875;"/>
   </g>
   <g id="patch_11">
    <path clip-path="url(#pe77eea13d5)" d="M 65.132589 102.646032 
L 65.132589 102.646032 
L 65.132589 102.646032 
L 65.132589 102.646032 
z
" style="fill:#b55d60;stroke:#4c4c4c;stroke-linejoin:miter;stroke-width:0.875;"/>
   </g>
   <g id="line2d_7">
    <path clip-path="url(#pe77eea13d5)" d="M 46.450208 77.589136 
L 46.450208 94.38 
" style="fill:none;stroke:#4c4c4c;stroke-linecap:round;stroke-width:1.75;"/>
   </g>
   <g id="line2d_8">
    <path clip-path="url(#pe77eea13d5)" d="M 46.450208 56.140421 
L 46.450208 25.865714 
" style="fill:none;stroke:#4c4c4c;stroke-linecap:round;stroke-width:1.75;"/>
   </g>
   <g id="line2d_9">
    <path clip-path="url(#pe77eea13d5)" d="M 41.873025 94.38 
L 51.027392 94.38 
" style="fill:none;stroke:#4c4c4c;stroke-linecap:round;stroke-width:1.75;"/>
   </g>
   <g id="line2d_10">
    <path clip-path="url(#pe77eea13d5)" d="M 41.873025 25.865714 
L 51.027392 25.865714 
" style="fill:none;stroke:#4c4c4c;stroke-linecap:round;stroke-width:1.75;"/>
   </g>
   <g id="line2d_11"/>
   <g id="line2d_12">
    <path clip-path="url(#pe77eea13d5)" d="M 65.132589 86.34268 
L 65.132589 91.840147 
" style="fill:none;stroke:#4c4c4c;stroke-linecap:round;stroke-width:1.75;"/>
   </g>
   <g id="line2d_13">
    <path clip-path="url(#pe77eea13d5)" d="M 65.132589 80.955178 
L 65.132589 72.967612 
" style="fill:none;stroke:#4c4c4c;stroke-linecap:round;stroke-width:1.75;"/>
   </g>
   <g id="line2d_14">
    <path clip-path="url(#pe77eea13d5)" d="M 60.555406 91.840147 
L 69.709773 91.840147 
" style="fill:none;stroke:#4c4c4c;stroke-linecap:round;stroke-width:1.75;"/>
   </g>
   <g id="line2d_15">
    <path clip-path="url(#pe77eea13d5)" d="M 60.555406 72.967612 
L 69.709773 72.967612 
" style="fill:none;stroke:#4c4c4c;stroke-linecap:round;stroke-width:1.75;"/>
   </g>
   <g id="line2d_16">
    <defs>
     <path d="M -0 3.535534 
L 2.12132 0 
L -0 -3.535534 
L -2.12132 -0 
z
" id="m69fcf4a84b" style="stroke:#4c4c4c;stroke-linejoin:miter;"/>
    </defs>
    <g clip-path="url(#pe77eea13d5)">
     <use style="fill:#4c4c4c;stroke:#4c4c4c;stroke-linejoin:miter;" x="65.132589" xlink:href="#m69fcf4a84b" y="72.563979"/>
     <use style="fill:#4c4c4c;stroke:#4c4c4c;stroke-linejoin:miter;" x="65.132589" xlink:href="#m69fcf4a84b" y="71.838892"/>
     <use style="fill:#4c4c4c;stroke:#4c4c4c;stroke-linejoin:miter;" x="65.132589" xlink:href="#m69fcf4a84b" y="72.326534"/>
     <use style="fill:#4c4c4c;stroke:#4c4c4c;stroke-linejoin:miter;" x="65.132589" xlink:href="#m69fcf4a84b" y="72.714067"/>
     <use style="fill:#4c4c4c;stroke:#4c4c4c;stroke-linejoin:miter;" x="65.132589" xlink:href="#m69fcf4a84b" y="71.19698"/>
     <use style="fill:#4c4c4c;stroke:#4c4c4c;stroke-linejoin:miter;" x="65.132589" xlink:href="#m69fcf4a84b" y="72.284766"/>
     <use style="fill:#4c4c4c;stroke:#4c4c4c;stroke-linejoin:miter;" x="65.132589" xlink:href="#m69fcf4a84b" y="72.578262"/>
     <use style="fill:#4c4c4c;stroke:#4c4c4c;stroke-linejoin:miter;" x="65.132589" xlink:href="#m69fcf4a84b" y="66.189476"/>
     <use style="fill:#4c4c4c;stroke:#4c4c4c;stroke-linejoin:miter;" x="65.132589" xlink:href="#m69fcf4a84b" y="72.871023"/>
    </g>
   </g>
   <g id="line2d_17">
    <path clip-path="url(#pe77eea13d5)" d="M 83.81497 86.327282 
L 83.81497 93.07005 
" style="fill:none;stroke:#4c4c4c;stroke-linecap:round;stroke-width:1.75;"/>
   </g>
   <g id="line2d_18">
    <path clip-path="url(#pe77eea13d5)" d="M 83.81497 79.867071 
L 83.81497 71.249177 
" style="fill:none;stroke:#4c4c4c;stroke-linecap:round;stroke-width:1.75;"/>
   </g>
   <g id="line2d_19">
    <path clip-path="url(#pe77eea13d5)" d="M 79.237787 93.07005 
L 88.392154 93.07005 
" style="fill:none;stroke:#4c4c4c;stroke-linecap:round;stroke-width:1.75;"/>
   </g>
   <g id="line2d_20">
    <path clip-path="url(#pe77eea13d5)" d="M 79.237787 71.249177 
L 88.392154 71.249177 
" style="fill:none;stroke:#4c4c4c;stroke-linecap:round;stroke-width:1.75;"/>
   </g>
   <g id="line2d_21">
    <g clip-path="url(#pe77eea13d5)">
     <use style="fill:#4c4c4c;stroke:#4c4c4c;stroke-linejoin:miter;" x="83.81497" xlink:href="#m69fcf4a84b" y="67.024598"/>
     <use style="fill:#4c4c4c;stroke:#4c4c4c;stroke-linejoin:miter;" x="83.81497" xlink:href="#m69fcf4a84b" y="67.024598"/>
     <use style="fill:#4c4c4c;stroke:#4c4c4c;stroke-linejoin:miter;" x="83.81497" xlink:href="#m69fcf4a84b" y="67.024598"/>
     <use style="fill:#4c4c4c;stroke:#4c4c4c;stroke-linejoin:miter;" x="83.81497" xlink:href="#m69fcf4a84b" y="67.024598"/>
     <use style="fill:#4c4c4c;stroke:#4c4c4c;stroke-linejoin:miter;" x="83.81497" xlink:href="#m69fcf4a84b" y="67.024598"/>
     <use style="fill:#4c4c4c;stroke:#4c4c4c;stroke-linejoin:miter;" x="83.81497" xlink:href="#m69fcf4a84b" y="67.024598"/>
     <use style="fill:#4c4c4c;stroke:#4c4c4c;stroke-linejoin:miter;" x="83.81497" xlink:href="#m69fcf4a84b" y="67.024598"/>
     <use style="fill:#4c4c4c;stroke:#4c4c4c;stroke-linejoin:miter;" x="83.81497" xlink:href="#m69fcf4a84b" y="66.563498"/>
     <use style="fill:#4c4c4c;stroke:#4c4c4c;stroke-linejoin:miter;" x="83.81497" xlink:href="#m69fcf4a84b" y="66.563498"/>
     <use style="fill:#4c4c4c;stroke:#4c4c4c;stroke-linejoin:miter;" x="83.81497" xlink:href="#m69fcf4a84b" y="66.563498"/>
     <use style="fill:#4c4c4c;stroke:#4c4c4c;stroke-linejoin:miter;" x="83.81497" xlink:href="#m69fcf4a84b" y="66.563498"/>
     <use style="fill:#4c4c4c;stroke:#4c4c4c;stroke-linejoin:miter;" x="83.81497" xlink:href="#m69fcf4a84b" y="66.563498"/>
     <use style="fill:#4c4c4c;stroke:#4c4c4c;stroke-linejoin:miter;" x="83.81497" xlink:href="#m69fcf4a84b" y="66.563498"/>
     <use style="fill:#4c4c4c;stroke:#4c4c4c;stroke-linejoin:miter;" x="83.81497" xlink:href="#m69fcf4a84b" y="66.563498"/>
     <use style="fill:#4c4c4c;stroke:#4c4c4c;stroke-linejoin:miter;" x="83.81497" xlink:href="#m69fcf4a84b" y="66.563498"/>
     <use style="fill:#4c4c4c;stroke:#4c4c4c;stroke-linejoin:miter;" x="83.81497" xlink:href="#m69fcf4a84b" y="66.563498"/>
     <use style="fill:#4c4c4c;stroke:#4c4c4c;stroke-linejoin:miter;" x="83.81497" xlink:href="#m69fcf4a84b" y="66.563498"/>
     <use style="fill:#4c4c4c;stroke:#4c4c4c;stroke-linejoin:miter;" x="83.81497" xlink:href="#m69fcf4a84b" y="66.563498"/>
    </g>
   </g>
   <g id="line2d_22">
    <path clip-path="url(#pe77eea13d5)" d="M 116.509137 83.74376 
L 116.509137 93.381201 
" style="fill:none;stroke:#4c4c4c;stroke-linecap:round;stroke-width:1.75;"/>
   </g>
   <g id="line2d_23">
    <path clip-path="url(#pe77eea13d5)" d="M 116.509137 74.275989 
L 116.509137 60.241798 
" style="fill:none;stroke:#4c4c4c;stroke-linecap:round;stroke-width:1.75;"/>
   </g>
   <g id="line2d_24">
    <path clip-path="url(#pe77eea13d5)" d="M 111.931954 93.381201 
L 121.08632 93.381201 
" style="fill:none;stroke:#4c4c4c;stroke-linecap:round;stroke-width:1.75;"/>
   </g>
   <g id="line2d_25">
    <path clip-path="url(#pe77eea13d5)" d="M 111.931954 60.241798 
L 121.08632 60.241798 
" style="fill:none;stroke:#4c4c4c;stroke-linecap:round;stroke-width:1.75;"/>
   </g>
   <g id="line2d_26">
    <g clip-path="url(#pe77eea13d5)">
     <use style="fill:#4c4c4c;stroke:#4c4c4c;stroke-linejoin:miter;" x="116.509137" xlink:href="#m69fcf4a84b" y="59.967043"/>
     <use style="fill:#4c4c4c;stroke:#4c4c4c;stroke-linejoin:miter;" x="116.509137" xlink:href="#m69fcf4a84b" y="59.967043"/>
     <use style="fill:#4c4c4c;stroke:#4c4c4c;stroke-linejoin:miter;" x="116.509137" xlink:href="#m69fcf4a84b" y="59.967043"/>
     <use style="fill:#4c4c4c;stroke:#4c4c4c;stroke-linejoin:miter;" x="116.509137" xlink:href="#m69fcf4a84b" y="59.967043"/>
     <use style="fill:#4c4c4c;stroke:#4c4c4c;stroke-linejoin:miter;" x="116.509137" xlink:href="#m69fcf4a84b" y="59.019928"/>
     <use style="fill:#4c4c4c;stroke:#4c4c4c;stroke-linejoin:miter;" x="116.509137" xlink:href="#m69fcf4a84b" y="59.019928"/>
     <use style="fill:#4c4c4c;stroke:#4c4c4c;stroke-linejoin:miter;" x="116.509137" xlink:href="#m69fcf4a84b" y="59.019928"/>
     <use style="fill:#4c4c4c;stroke:#4c4c4c;stroke-linejoin:miter;" x="116.509137" xlink:href="#m69fcf4a84b" y="59.019928"/>
    </g>
   </g>
   <g id="line2d_27">
    <path clip-path="url(#pe77eea13d5)" d="M 135.191518 80.353913 
L 135.191518 83.431747 
" style="fill:none;stroke:#4c4c4c;stroke-linecap:round;stroke-width:1.75;"/>
   </g>
   <g id="line2d_28">
    <path clip-path="url(#pe77eea13d5)" d="M 135.191518 78.101715 
L 135.191518 74.772127 
" style="fill:none;stroke:#4c4c4c;stroke-linecap:round;stroke-width:1.75;"/>
   </g>
   <g id="line2d_29">
    <path clip-path="url(#pe77eea13d5)" d="M 130.614335 83.431747 
L 139.768701 83.431747 
" style="fill:none;stroke:#4c4c4c;stroke-linecap:round;stroke-width:1.75;"/>
   </g>
   <g id="line2d_30">
    <path clip-path="url(#pe77eea13d5)" d="M 130.614335 74.772127 
L 139.768701 74.772127 
" style="fill:none;stroke:#4c4c4c;stroke-linecap:round;stroke-width:1.75;"/>
   </g>
   <g id="line2d_31">
    <g clip-path="url(#pe77eea13d5)">
     <use style="fill:#4c4c4c;stroke:#4c4c4c;stroke-linejoin:miter;" x="135.191518" xlink:href="#m69fcf4a84b" y="73.180006"/>
     <use style="fill:#4c4c4c;stroke:#4c4c4c;stroke-linejoin:miter;" x="135.191518" xlink:href="#m69fcf4a84b" y="72.994442"/>
     <use style="fill:#4c4c4c;stroke:#4c4c4c;stroke-linejoin:miter;" x="135.191518" xlink:href="#m69fcf4a84b" y="73.869361"/>
     <use style="fill:#4c4c4c;stroke:#4c4c4c;stroke-linejoin:miter;" x="135.191518" xlink:href="#m69fcf4a84b" y="74.508736"/>
     <use style="fill:#4c4c4c;stroke:#4c4c4c;stroke-linejoin:miter;" x="135.191518" xlink:href="#m69fcf4a84b" y="74.472191"/>
     <use style="fill:#4c4c4c;stroke:#4c4c4c;stroke-linejoin:miter;" x="135.191518" xlink:href="#m69fcf4a84b" y="74.556351"/>
     <use style="fill:#4c4c4c;stroke:#4c4c4c;stroke-linejoin:miter;" x="135.191518" xlink:href="#m69fcf4a84b" y="74.614416"/>
     <use style="fill:#4c4c4c;stroke:#4c4c4c;stroke-linejoin:miter;" x="135.191518" xlink:href="#m69fcf4a84b" y="73.953515"/>
    </g>
   </g>
   <g id="line2d_32">
    <path clip-path="url(#pe77eea13d5)" d="M 153.873899 81.453412 
L 153.873899 85.807145 
" style="fill:none;stroke:#4c4c4c;stroke-linecap:round;stroke-width:1.75;"/>
   </g>
   <g id="line2d_33">
    <path clip-path="url(#pe77eea13d5)" d="M 153.873899 78.398281 
L 153.873899 74.189929 
" style="fill:none;stroke:#4c4c4c;stroke-linecap:round;stroke-width:1.75;"/>
   </g>
   <g id="line2d_34">
    <path clip-path="url(#pe77eea13d5)" d="M 149.296715 85.807145 
L 158.451082 85.807145 
" style="fill:none;stroke:#4c4c4c;stroke-linecap:round;stroke-width:1.75;"/>
   </g>
   <g id="line2d_35">
    <path clip-path="url(#pe77eea13d5)" d="M 149.296715 74.189929 
L 158.451082 74.189929 
" style="fill:none;stroke:#4c4c4c;stroke-linecap:round;stroke-width:1.75;"/>
   </g>
   <g id="line2d_36">
    <g clip-path="url(#pe77eea13d5)">
     <use style="fill:#4c4c4c;stroke:#4c4c4c;stroke-linejoin:miter;" x="153.873899" xlink:href="#m69fcf4a84b" y="73.336599"/>
     <use style="fill:#4c4c4c;stroke:#4c4c4c;stroke-linejoin:miter;" x="153.873899" xlink:href="#m69fcf4a84b" y="73.336599"/>
     <use style="fill:#4c4c4c;stroke:#4c4c4c;stroke-linejoin:miter;" x="153.873899" xlink:href="#m69fcf4a84b" y="73.336599"/>
    </g>
   </g>
   <g id="line2d_37">
    <path clip-path="url(#pe77eea13d5)" d="M 30.103125 78.267405 
L 170.220982 78.267405 
" style="fill:none;stroke:#000000;stroke-dasharray:6.475,2.8;stroke-dashoffset:0;stroke-opacity:0.2;stroke-width:1.75;"/>
   </g>
   <g id="line2d_38">
    <path clip-path="url(#pe77eea13d5)" d="M 37.295842 68.080506 
L 55.604575 68.080506 
" style="fill:none;stroke:#4c4c4c;stroke-linecap:round;stroke-width:1.75;"/>
   </g>
   <g id="line2d_39">
    <path clip-path="url(#pe77eea13d5)" d="M 55.978223 84.029812 
L 74.286956 84.029812 
" style="fill:none;stroke:#4c4c4c;stroke-linecap:round;stroke-width:1.75;"/>
   </g>
   <g id="line2d_40">
    <path clip-path="url(#pe77eea13d5)" d="M 74.660604 83.344903 
L 92.969337 83.344903 
" style="fill:none;stroke:#4c4c4c;stroke-linecap:round;stroke-width:1.75;"/>
   </g>
   <g id="line2d_41">
    <path clip-path="url(#pe77eea13d5)" d="M 107.35477 79.410709 
L 125.663504 79.410709 
" style="fill:none;stroke:#4c4c4c;stroke-linecap:round;stroke-width:1.75;"/>
   </g>
   <g id="line2d_42">
    <path clip-path="url(#pe77eea13d5)" d="M 126.037151 79.3887 
L 144.345885 79.3887 
" style="fill:none;stroke:#4c4c4c;stroke-linecap:round;stroke-width:1.75;"/>
   </g>
   <g id="line2d_43">
    <path clip-path="url(#pe77eea13d5)" d="M 144.719532 79.894889 
L 163.028265 79.894889 
" style="fill:none;stroke:#4c4c4c;stroke-linecap:round;stroke-width:1.75;"/>
   </g>
   <g id="patch_12">
    <path d="M 30.103125 97.805714 
L 30.103125 22.44 
" style="fill:none;"/>
   </g>
   <g id="patch_13">
    <path d="M 170.220982 97.805714 
L 170.220982 22.44 
" style="fill:none;"/>
   </g>
   <g id="patch_14">
    <path d="M 30.103125 97.805714 
L 170.220982 97.805714 
" style="fill:none;"/>
   </g>
   <g id="patch_15">
    <path d="M 30.103125 22.44 
L 170.220982 22.44 
" style="fill:none;"/>
   </g>
   <g id="text_6">
    <!-- $\beta$ -->
    <defs>
     <path d="M 13.625 3.375 
L 8.9375 -20.796875 
L -0.09375 -20.796875 
L 14.5 54.34375 
Q 18.84375 76.609375 39.65625 76.609375 
Q 60.75 76.609375 57.171875 57.8125 
Q 54.734375 44.4375 45.21875 39.546875 
Q 58.015625 35.15625 55.515625 22.125 
Q 51.125 -1.078125 27.484375 -1.03125 
Q 17.140625 -0.984375 13.625 3.375 
z
M 15.921875 15.09375 
Q 19.671875 6.59375 29.296875 6.640625 
Q 43.359375 6.640625 46.34375 21.96875 
Q 49.03125 35.75 26.171875 34.671875 
L 27.78125 42.96875 
Q 45.453125 42.671875 48.53125 58.59375 
Q 50.640625 69.34375 39.203125 69.28125 
Q 26.421875 69.28125 23.484375 54.046875 
z
" id="DejaVuSans-Oblique-946"/>
    </defs>
    <g style="fill:#262626;" transform="translate(96.322054 16.44)scale(0.12 -0.12)">
     <use transform="translate(0 0.390625)" xlink:href="#DejaVuSans-Oblique-946"/>
    </g>
   </g>
   <g id="legend_1"/>
  </g>
  <g id="axes_2">
   <g id="patch_16">
    <path d="M 203.912411 97.805714 
L 344.030268 97.805714 
L 344.030268 22.44 
L 203.912411 22.44 
z
" style="fill:none;"/>
   </g>
   <g id="matplotlib.axis_3">
    <g id="xtick_3">
     <g id="line2d_44"/>
     <g id="text_7">
      <!-- 50 -->
      <g style="fill:#262626;" transform="translate(232.579375 112.404152)scale(0.1 -0.1)">
       <use xlink:href="#DejaVuSans-53"/>
       <use x="63.623047" xlink:href="#DejaVuSans-48"/>
      </g>
     </g>
    </g>
    <g id="xtick_4">
     <g id="line2d_45"/>
     <g id="text_8">
      <!-- 250 -->
      <g style="fill:#262626;" transform="translate(299.457054 112.404152)scale(0.1 -0.1)">
       <use xlink:href="#DejaVuSans-50"/>
       <use x="63.623047" xlink:href="#DejaVuSans-53"/>
       <use x="127.246094" xlink:href="#DejaVuSans-48"/>
      </g>
     </g>
    </g>
    <g id="text_9">
     <!-- Sample Size -->
     <g style="fill:#262626;" transform="translate(240.309621 126.842121)scale(0.11 -0.11)">
      <use xlink:href="#DejaVuSans-83"/>
      <use x="63.476562" xlink:href="#DejaVuSans-97"/>
      <use x="124.755859" xlink:href="#DejaVuSans-109"/>
      <use x="222.167969" xlink:href="#DejaVuSans-112"/>
      <use x="285.644531" xlink:href="#DejaVuSans-108"/>
      <use x="313.427734" xlink:href="#DejaVuSans-101"/>
      <use x="374.951172" xlink:href="#DejaVuSans-32"/>
      <use x="406.738281" xlink:href="#DejaVuSans-83"/>
      <use x="470.214844" xlink:href="#DejaVuSans-105"/>
      <use x="497.998047" xlink:href="#DejaVuSans-122"/>
      <use x="550.488281" xlink:href="#DejaVuSans-101"/>
     </g>
    </g>
   </g>
   <g id="matplotlib.axis_4">
    <g id="ytick_3">
     <g id="line2d_46">
      <path clip-path="url(#pdfe15e325f)" d="M 203.912411 71.31686 
L 344.030268 71.31686 
" style="fill:none;stroke:#ffffff;stroke-linecap:round;"/>
     </g>
     <g id="line2d_47"/>
     <g id="text_10">
      <!-- 0.2 -->
      <g style="fill:#262626;" transform="translate(181.009286 75.116078)scale(0.1 -0.1)">
       <use xlink:href="#DejaVuSans-48"/>
       <use x="63.623047" xlink:href="#DejaVuSans-46"/>
       <use x="95.410156" xlink:href="#DejaVuSans-50"/>
      </g>
     </g>
    </g>
    <g id="ytick_4">
     <g id="line2d_48">
      <path clip-path="url(#pdfe15e325f)" d="M 203.912411 40.29739 
L 344.030268 40.29739 
" style="fill:none;stroke:#ffffff;stroke-linecap:round;"/>
     </g>
     <g id="line2d_49"/>
     <g id="text_11">
      <!-- 0.4 -->
      <defs>
       <path d="M 37.796875 64.3125 
L 12.890625 25.390625 
L 37.796875 25.390625 
z
M 35.203125 72.90625 
L 47.609375 72.90625 
L 47.609375 25.390625 
L 58.015625 25.390625 
L 58.015625 17.1875 
L 47.609375 17.1875 
L 47.609375 0 
L 37.796875 0 
L 37.796875 17.1875 
L 4.890625 17.1875 
L 4.890625 26.703125 
z
" id="DejaVuSans-52"/>
      </defs>
      <g style="fill:#262626;" transform="translate(181.009286 44.096608)scale(0.1 -0.1)">
       <use xlink:href="#DejaVuSans-48"/>
       <use x="63.623047" xlink:href="#DejaVuSans-46"/>
       <use x="95.410156" xlink:href="#DejaVuSans-52"/>
      </g>
     </g>
    </g>
   </g>
   <g id="patch_17">
    <path clip-path="url(#pdfe15e325f)" d="M 211.105127 74.202334 
L 229.413861 74.202334 
L 229.413861 57.053437 
L 211.105127 57.053437 
L 211.105127 74.202334 
z
" style="fill:#5875a4;stroke:#4c4c4c;stroke-linejoin:miter;stroke-width:1.75;"/>
   </g>
   <g id="patch_18">
    <path clip-path="url(#pdfe15e325f)" d="M 229.787508 69.060454 
L 248.096242 69.060454 
L 248.096242 60.879481 
L 229.787508 60.879481 
L 229.787508 69.060454 
z
" style="fill:#5f9e6e;stroke:#4c4c4c;stroke-linejoin:miter;stroke-width:1.75;"/>
   </g>
   <g id="patch_19">
    <path clip-path="url(#pdfe15e325f)" d="M 248.469889 70.22097 
L 266.778623 70.22097 
L 266.778623 60.825839 
L 248.469889 60.825839 
L 248.469889 70.22097 
z
" style="fill:#b55d60;stroke:#4c4c4c;stroke-linejoin:miter;stroke-width:1.75;"/>
   </g>
   <g id="patch_20">
    <path clip-path="url(#pdfe15e325f)" d="M 281.164056 70.991495 
L 299.472789 70.991495 
L 299.472789 64.0309 
L 281.164056 64.0309 
L 281.164056 70.991495 
z
" style="fill:#5875a4;stroke:#4c4c4c;stroke-linejoin:miter;stroke-width:1.75;"/>
   </g>
   <g id="patch_21">
    <path clip-path="url(#pdfe15e325f)" d="M 299.846437 72.03902 
L 318.15517 72.03902 
L 318.15517 69.230877 
L 299.846437 69.230877 
L 299.846437 72.03902 
z
" style="fill:#5f9e6e;stroke:#4c4c4c;stroke-linejoin:miter;stroke-width:1.75;"/>
   </g>
   <g id="patch_22">
    <path clip-path="url(#pdfe15e325f)" d="M 318.528818 71.783507 
L 336.837551 71.783507 
L 336.837551 68.122474 
L 318.528818 68.122474 
L 318.528818 71.783507 
z
" style="fill:#b55d60;stroke:#4c4c4c;stroke-linejoin:miter;stroke-width:1.75;"/>
   </g>
   <g id="patch_23">
    <path clip-path="url(#pdfe15e325f)" d="M 238.941875 102.33633 
L 238.941875 102.33633 
L 238.941875 102.33633 
L 238.941875 102.33633 
z
" style="fill:#5875a4;stroke:#4c4c4c;stroke-linejoin:miter;stroke-width:0.875;"/>
   </g>
   <g id="patch_24">
    <path clip-path="url(#pdfe15e325f)" d="M 238.941875 102.33633 
L 238.941875 102.33633 
L 238.941875 102.33633 
L 238.941875 102.33633 
z
" style="fill:#5f9e6e;stroke:#4c4c4c;stroke-linejoin:miter;stroke-width:0.875;"/>
   </g>
   <g id="patch_25">
    <path clip-path="url(#pdfe15e325f)" d="M 238.941875 102.33633 
L 238.941875 102.33633 
L 238.941875 102.33633 
L 238.941875 102.33633 
z
" style="fill:#b55d60;stroke:#4c4c4c;stroke-linejoin:miter;stroke-width:0.875;"/>
   </g>
   <g id="line2d_50">
    <path clip-path="url(#pdfe15e325f)" d="M 220.259494 74.202334 
L 220.259494 94.38 
" style="fill:none;stroke:#4c4c4c;stroke-linecap:round;stroke-width:1.75;"/>
   </g>
   <g id="line2d_51">
    <path clip-path="url(#pdfe15e325f)" d="M 220.259494 57.053437 
L 220.259494 32.566698 
" style="fill:none;stroke:#4c4c4c;stroke-linecap:round;stroke-width:1.75;"/>
   </g>
   <g id="line2d_52">
    <path clip-path="url(#pdfe15e325f)" d="M 215.682311 94.38 
L 224.836677 94.38 
" style="fill:none;stroke:#4c4c4c;stroke-linecap:round;stroke-width:1.75;"/>
   </g>
   <g id="line2d_53">
    <path clip-path="url(#pdfe15e325f)" d="M 215.682311 32.566698 
L 224.836677 32.566698 
" style="fill:none;stroke:#4c4c4c;stroke-linecap:round;stroke-width:1.75;"/>
   </g>
   <g id="line2d_54">
    <g clip-path="url(#pdfe15e325f)">
     <use style="fill:#4c4c4c;stroke:#4c4c4c;stroke-linejoin:miter;" x="220.259494" xlink:href="#m69fcf4a84b" y="25.865714"/>
     <use style="fill:#4c4c4c;stroke:#4c4c4c;stroke-linejoin:miter;" x="220.259494" xlink:href="#m69fcf4a84b" y="25.865714"/>
     <use style="fill:#4c4c4c;stroke:#4c4c4c;stroke-linejoin:miter;" x="220.259494" xlink:href="#m69fcf4a84b" y="25.865714"/>
    </g>
   </g>
   <g id="line2d_55">
    <path clip-path="url(#pdfe15e325f)" d="M 238.941875 69.060454 
L 238.941875 80.295206 
" style="fill:none;stroke:#4c4c4c;stroke-linecap:round;stroke-width:1.75;"/>
   </g>
   <g id="line2d_56">
    <path clip-path="url(#pdfe15e325f)" d="M 238.941875 60.879481 
L 238.941875 50.065137 
" style="fill:none;stroke:#4c4c4c;stroke-linecap:round;stroke-width:1.75;"/>
   </g>
   <g id="line2d_57">
    <path clip-path="url(#pdfe15e325f)" d="M 234.364692 80.295206 
L 243.519058 80.295206 
" style="fill:none;stroke:#4c4c4c;stroke-linecap:round;stroke-width:1.75;"/>
   </g>
   <g id="line2d_58">
    <path clip-path="url(#pdfe15e325f)" d="M 234.364692 50.065137 
L 243.519058 50.065137 
" style="fill:none;stroke:#4c4c4c;stroke-linecap:round;stroke-width:1.75;"/>
   </g>
   <g id="line2d_59">
    <g clip-path="url(#pdfe15e325f)">
     <use style="fill:#4c4c4c;stroke:#4c4c4c;stroke-linejoin:miter;" x="238.941875" xlink:href="#m69fcf4a84b" y="83.561629"/>
     <use style="fill:#4c4c4c;stroke:#4c4c4c;stroke-linejoin:miter;" x="238.941875" xlink:href="#m69fcf4a84b" y="81.944854"/>
    </g>
   </g>
   <g id="line2d_60">
    <path clip-path="url(#pdfe15e325f)" d="M 257.624256 70.22097 
L 257.624256 83.651418 
" style="fill:none;stroke:#4c4c4c;stroke-linecap:round;stroke-width:1.75;"/>
   </g>
   <g id="line2d_61">
    <path clip-path="url(#pdfe15e325f)" d="M 257.624256 60.825839 
L 257.624256 47.923396 
" style="fill:none;stroke:#4c4c4c;stroke-linecap:round;stroke-width:1.75;"/>
   </g>
   <g id="line2d_62">
    <path clip-path="url(#pdfe15e325f)" d="M 253.047073 83.651418 
L 262.201439 83.651418 
" style="fill:none;stroke:#4c4c4c;stroke-linecap:round;stroke-width:1.75;"/>
   </g>
   <g id="line2d_63">
    <path clip-path="url(#pdfe15e325f)" d="M 253.047073 47.923396 
L 262.201439 47.923396 
" style="fill:none;stroke:#4c4c4c;stroke-linecap:round;stroke-width:1.75;"/>
   </g>
   <g id="line2d_64">
    <g clip-path="url(#pdfe15e325f)">
     <use style="fill:#4c4c4c;stroke:#4c4c4c;stroke-linejoin:miter;" x="257.624256" xlink:href="#m69fcf4a84b" y="44.388732"/>
     <use style="fill:#4c4c4c;stroke:#4c4c4c;stroke-linejoin:miter;" x="257.624256" xlink:href="#m69fcf4a84b" y="44.388732"/>
     <use style="fill:#4c4c4c;stroke:#4c4c4c;stroke-linejoin:miter;" x="257.624256" xlink:href="#m69fcf4a84b" y="44.388732"/>
     <use style="fill:#4c4c4c;stroke:#4c4c4c;stroke-linejoin:miter;" x="257.624256" xlink:href="#m69fcf4a84b" y="44.388732"/>
     <use style="fill:#4c4c4c;stroke:#4c4c4c;stroke-linejoin:miter;" x="257.624256" xlink:href="#m69fcf4a84b" y="44.907232"/>
     <use style="fill:#4c4c4c;stroke:#4c4c4c;stroke-linejoin:miter;" x="257.624256" xlink:href="#m69fcf4a84b" y="44.907232"/>
     <use style="fill:#4c4c4c;stroke:#4c4c4c;stroke-linejoin:miter;" x="257.624256" xlink:href="#m69fcf4a84b" y="44.907232"/>
     <use style="fill:#4c4c4c;stroke:#4c4c4c;stroke-linejoin:miter;" x="257.624256" xlink:href="#m69fcf4a84b" y="44.907232"/>
     <use style="fill:#4c4c4c;stroke:#4c4c4c;stroke-linejoin:miter;" x="257.624256" xlink:href="#m69fcf4a84b" y="44.907232"/>
     <use style="fill:#4c4c4c;stroke:#4c4c4c;stroke-linejoin:miter;" x="257.624256" xlink:href="#m69fcf4a84b" y="44.907232"/>
    </g>
   </g>
   <g id="line2d_65">
    <path clip-path="url(#pdfe15e325f)" d="M 290.318423 70.991495 
L 290.318423 80.449915 
" style="fill:none;stroke:#4c4c4c;stroke-linecap:round;stroke-width:1.75;"/>
   </g>
   <g id="line2d_66">
    <path clip-path="url(#pdfe15e325f)" d="M 290.318423 64.0309 
L 290.318423 54.718881 
" style="fill:none;stroke:#4c4c4c;stroke-linecap:round;stroke-width:1.75;"/>
   </g>
   <g id="line2d_67">
    <path clip-path="url(#pdfe15e325f)" d="M 285.741239 80.449915 
L 294.895606 80.449915 
" style="fill:none;stroke:#4c4c4c;stroke-linecap:round;stroke-width:1.75;"/>
   </g>
   <g id="line2d_68">
    <path clip-path="url(#pdfe15e325f)" d="M 285.741239 54.718881 
L 294.895606 54.718881 
" style="fill:none;stroke:#4c4c4c;stroke-linecap:round;stroke-width:1.75;"/>
   </g>
   <g id="line2d_69">
    <g clip-path="url(#pdfe15e325f)">
     <use style="fill:#4c4c4c;stroke:#4c4c4c;stroke-linejoin:miter;" x="290.318423" xlink:href="#m69fcf4a84b" y="53.156003"/>
     <use style="fill:#4c4c4c;stroke:#4c4c4c;stroke-linejoin:miter;" x="290.318423" xlink:href="#m69fcf4a84b" y="53.156003"/>
    </g>
   </g>
   <g id="line2d_70">
    <path clip-path="url(#pdfe15e325f)" d="M 309.000804 72.03902 
L 309.000804 76.239265 
" style="fill:none;stroke:#4c4c4c;stroke-linecap:round;stroke-width:1.75;"/>
   </g>
   <g id="line2d_71">
    <path clip-path="url(#pdfe15e325f)" d="M 309.000804 69.230877 
L 309.000804 65.249321 
" style="fill:none;stroke:#4c4c4c;stroke-linecap:round;stroke-width:1.75;"/>
   </g>
   <g id="line2d_72">
    <path clip-path="url(#pdfe15e325f)" d="M 304.42362 76.239265 
L 313.577987 76.239265 
" style="fill:none;stroke:#4c4c4c;stroke-linecap:round;stroke-width:1.75;"/>
   </g>
   <g id="line2d_73">
    <path clip-path="url(#pdfe15e325f)" d="M 304.42362 65.249321 
L 313.577987 65.249321 
" style="fill:none;stroke:#4c4c4c;stroke-linecap:round;stroke-width:1.75;"/>
   </g>
   <g id="line2d_74">
    <g clip-path="url(#pdfe15e325f)">
     <use style="fill:#4c4c4c;stroke:#4c4c4c;stroke-linejoin:miter;" x="309.000804" xlink:href="#m69fcf4a84b" y="77.129937"/>
     <use style="fill:#4c4c4c;stroke:#4c4c4c;stroke-linejoin:miter;" x="309.000804" xlink:href="#m69fcf4a84b" y="64.760101"/>
     <use style="fill:#4c4c4c;stroke:#4c4c4c;stroke-linejoin:miter;" x="309.000804" xlink:href="#m69fcf4a84b" y="64.061714"/>
     <use style="fill:#4c4c4c;stroke:#4c4c4c;stroke-linejoin:miter;" x="309.000804" xlink:href="#m69fcf4a84b" y="64.491085"/>
    </g>
   </g>
   <g id="line2d_75">
    <path clip-path="url(#pdfe15e325f)" d="M 327.683185 71.783507 
L 327.683185 76.353276 
" style="fill:none;stroke:#4c4c4c;stroke-linecap:round;stroke-width:1.75;"/>
   </g>
   <g id="line2d_76">
    <path clip-path="url(#pdfe15e325f)" d="M 327.683185 68.122474 
L 327.683185 63.191416 
" style="fill:none;stroke:#4c4c4c;stroke-linecap:round;stroke-width:1.75;"/>
   </g>
   <g id="line2d_77">
    <path clip-path="url(#pdfe15e325f)" d="M 323.106001 76.353276 
L 332.260368 76.353276 
" style="fill:none;stroke:#4c4c4c;stroke-linecap:round;stroke-width:1.75;"/>
   </g>
   <g id="line2d_78">
    <path clip-path="url(#pdfe15e325f)" d="M 323.106001 63.191416 
L 332.260368 63.191416 
" style="fill:none;stroke:#4c4c4c;stroke-linecap:round;stroke-width:1.75;"/>
   </g>
   <g id="line2d_79"/>
   <g id="line2d_80">
    <path clip-path="url(#pdfe15e325f)" d="M 203.912411 71.31686 
L 344.030268 71.31686 
" style="fill:none;stroke:#000000;stroke-dasharray:6.475,2.8;stroke-dashoffset:0;stroke-opacity:0.2;stroke-width:1.75;"/>
   </g>
   <g id="line2d_81">
    <path clip-path="url(#pdfe15e325f)" d="M 211.105127 66.481122 
L 229.413861 66.481122 
" style="fill:none;stroke:#4c4c4c;stroke-linecap:round;stroke-width:1.75;"/>
   </g>
   <g id="line2d_82">
    <path clip-path="url(#pdfe15e325f)" d="M 229.787508 64.978188 
L 248.096242 64.978188 
" style="fill:none;stroke:#4c4c4c;stroke-linecap:round;stroke-width:1.75;"/>
   </g>
   <g id="line2d_83">
    <path clip-path="url(#pdfe15e325f)" d="M 248.469889 65.828407 
L 266.778623 65.828407 
" style="fill:none;stroke:#4c4c4c;stroke-linecap:round;stroke-width:1.75;"/>
   </g>
   <g id="line2d_84">
    <path clip-path="url(#pdfe15e325f)" d="M 281.164056 67.345461 
L 299.472789 67.345461 
" style="fill:none;stroke:#4c4c4c;stroke-linecap:round;stroke-width:1.75;"/>
   </g>
   <g id="line2d_85">
    <path clip-path="url(#pdfe15e325f)" d="M 299.846437 70.720913 
L 318.15517 70.720913 
" style="fill:none;stroke:#4c4c4c;stroke-linecap:round;stroke-width:1.75;"/>
   </g>
   <g id="line2d_86">
    <path clip-path="url(#pdfe15e325f)" d="M 318.528818 70.155995 
L 336.837551 70.155995 
" style="fill:none;stroke:#4c4c4c;stroke-linecap:round;stroke-width:1.75;"/>
   </g>
   <g id="patch_26">
    <path d="M 203.912411 97.805714 
L 203.912411 22.44 
" style="fill:none;"/>
   </g>
   <g id="patch_27">
    <path d="M 344.030268 97.805714 
L 344.030268 22.44 
" style="fill:none;"/>
   </g>
   <g id="patch_28">
    <path d="M 203.912411 97.805714 
L 344.030268 97.805714 
" style="fill:none;"/>
   </g>
   <g id="patch_29">
    <path d="M 203.912411 22.44 
L 344.030268 22.44 
" style="fill:none;"/>
   </g>
   <g id="text_12">
    <!-- $\delta$ -->
    <defs>
     <path d="M 54.25 63.328125 
Q 49.953125 66.75 38.28125 66.75 
Q 25.921875 66.75 24.8125 61.03125 
Q 23.921875 56.546875 36.375 54.203125 
Q 46.140625 52.390625 50.828125 46.921875 
Q 56.5 40.328125 53.859375 26.8125 
Q 51.3125 13.875 43.171875 6.25 
Q 34.96875 -1.421875 23.25 -1.421875 
Q 11.578125 -1.421875 6.34375 6.25 
Q 1.125 13.875 3.765625 27.296875 
Q 5.671875 37.25 13.921875 45.3125 
Q 17.140625 48.4375 21.140625 50.203125 
Q 14.265625 54.046875 15.625 60.9375 
Q 18.21875 74.21875 39.75 74.21875 
Q 50.53125 74.21875 55.71875 70.796875 
z
M 27.390625 47.75 
Q 23.828125 46.34375 20.40625 42.78125 
Q 15.140625 37.25 13.234375 27.296875 
Q 11.28125 17.390625 14.359375 11.8125 
Q 17.484375 6.203125 24.75 6.203125 
Q 31.9375 6.203125 37.203125 11.859375 
Q 42.53125 17.53125 44.34375 26.8125 
Q 46.1875 36.53125 42.671875 41.21875 
Q 38.921875 46.234375 32.859375 46.78125 
Q 29.78125 47.078125 27.390625 47.75 
z
" id="DejaVuSans-Oblique-948"/>
    </defs>
    <g style="fill:#262626;" transform="translate(270.251339 16.44)scale(0.12 -0.12)">
     <use transform="translate(0 0.78125)" xlink:href="#DejaVuSans-Oblique-948"/>
    </g>
   </g>
   <g id="legend_2"/>
  </g>
 </g>
 <defs>
  <clipPath id="pe77eea13d5">
   <rect height="75.365714" width="140.117857" x="30.103125" y="22.44"/>
  </clipPath>
  <clipPath id="pdfe15e325f">
   <rect height="75.365714" width="140.117857" x="203.912411" y="22.44"/>
  </clipPath>
 </defs>
</svg>
