<?xml version="1.0" encoding="utf-8" standalone="no"?>
<!DOCTYPE svg PUBLIC "-//W3C//DTD SVG 1.1//EN"
  "http://www.w3.org/Graphics/SVG/1.1/DTD/svg11.dtd">
<!-- Created with matplotlib (https://matplotlib.org/) -->
<svg height="500pt" version="1.1" viewBox="0 0 352.8 136.8" width="1290pt" xmlns="http://www.w3.org/2000/svg" xmlns:xlink="http://www.w3.org/1999/xlink">
 <defs>
  <style type="text/css">
*{stroke-linecap:butt;stroke-linejoin:round;}
  </style>
 </defs>
 <g id="figure_1">
  <g id="patch_1">
   <path d="M 0 136.8 
L 352.8 136.8 
L 352.8 0 
L 0 0 
z
" style="fill:none;"/>
  </g>
  <g id="axes_1">
   <g id="patch_2">
    <path d="M 7.2 112.921875 
L 171 112.921875 
L 171 22.44 
L 7.2 22.44 
z
" style="fill:none;"/>
   </g>
   <g id="matplotlib.axis_1">
    <g id="xtick_1">
     <g id="line2d_1">
      <path clip-path="url(#p217ef95598)" d="M 50.2069 112.921875 
L 50.2069 22.44 
" style="fill:none;stroke:#ffffff;stroke-linecap:round;"/>
     </g>
     <g id="line2d_2"/>
     <g id="text_1">
      <!-- 1 -->
      <defs>
       <path d="M 12.40625 8.296875 
L 28.515625 8.296875 
L 28.515625 63.921875 
L 10.984375 60.40625 
L 10.984375 69.390625 
L 28.421875 72.90625 
L 38.28125 72.90625 
L 38.28125 8.296875 
L 54.390625 8.296875 
L 54.390625 0 
L 12.40625 0 
z
" id="DejaVuSans-49"/>
      </defs>
      <g style="fill:#262626;" transform="translate(47.02565 127.520312)scale(0.1 -0.1)">
       <use xlink:href="#DejaVuSans-49"/>
      </g>
     </g>
    </g>
    <g id="xtick_2">
     <g id="line2d_3">
      <path clip-path="url(#p217ef95598)" d="M 94.419917 112.921875 
L 94.419917 22.44 
" style="fill:none;stroke:#ffffff;stroke-linecap:round;"/>
     </g>
     <g id="line2d_4"/>
     <g id="text_2">
      <!-- 2 -->
      <defs>
       <path d="M 19.1875 8.296875 
L 53.609375 8.296875 
L 53.609375 0 
L 7.328125 0 
L 7.328125 8.296875 
Q 12.9375 14.109375 22.625 23.890625 
Q 32.328125 33.6875 34.8125 36.53125 
Q 39.546875 41.84375 41.421875 45.53125 
Q 43.3125 49.21875 43.3125 52.78125 
Q 43.3125 58.59375 39.234375 62.25 
Q 35.15625 65.921875 28.609375 65.921875 
Q 23.96875 65.921875 18.8125 64.3125 
Q 13.671875 62.703125 7.8125 59.421875 
L 7.8125 69.390625 
Q 13.765625 71.78125 18.9375 73 
Q 24.125 74.21875 28.421875 74.21875 
Q 39.75 74.21875 46.484375 68.546875 
Q 53.21875 62.890625 53.21875 53.421875 
Q 53.21875 48.921875 51.53125 44.890625 
Q 49.859375 40.875 45.40625 35.40625 
Q 44.1875 33.984375 37.640625 27.21875 
Q 31.109375 20.453125 19.1875 8.296875 
z
" id="DejaVuSans-50"/>
      </defs>
      <g style="fill:#262626;" transform="translate(91.238667 127.520312)scale(0.1 -0.1)">
       <use xlink:href="#DejaVuSans-50"/>
      </g>
     </g>
    </g>
    <g id="xtick_3">
     <g id="line2d_5">
      <path clip-path="url(#p217ef95598)" d="M 138.632934 112.921875 
L 138.632934 22.44 
" style="fill:none;stroke:#ffffff;stroke-linecap:round;"/>
     </g>
     <g id="line2d_6"/>
     <g id="text_3">
      <!-- 3 -->
      <defs>
       <path d="M 40.578125 39.3125 
Q 47.65625 37.796875 51.625 33 
Q 55.609375 28.21875 55.609375 21.1875 
Q 55.609375 10.40625 48.1875 4.484375 
Q 40.765625 -1.421875 27.09375 -1.421875 
Q 22.515625 -1.421875 17.65625 -0.515625 
Q 12.796875 0.390625 7.625 2.203125 
L 7.625 11.71875 
Q 11.71875 9.328125 16.59375 8.109375 
Q 21.484375 6.890625 26.8125 6.890625 
Q 36.078125 6.890625 40.9375 10.546875 
Q 45.796875 14.203125 45.796875 21.1875 
Q 45.796875 27.640625 41.28125 31.265625 
Q 36.765625 34.90625 28.71875 34.90625 
L 20.21875 34.90625 
L 20.21875 43.015625 
L 29.109375 43.015625 
Q 36.375 43.015625 40.234375 45.921875 
Q 44.09375 48.828125 44.09375 54.296875 
Q 44.09375 59.90625 40.109375 62.90625 
Q 36.140625 65.921875 28.71875 65.921875 
Q 24.65625 65.921875 20.015625 65.03125 
Q 15.375 64.15625 9.8125 62.3125 
L 9.8125 71.09375 
Q 15.4375 72.65625 20.34375 73.4375 
Q 25.25 74.21875 29.59375 74.21875 
Q 40.828125 74.21875 47.359375 69.109375 
Q 53.90625 64.015625 53.90625 55.328125 
Q 53.90625 49.265625 50.4375 45.09375 
Q 46.96875 40.921875 40.578125 39.3125 
z
" id="DejaVuSans-51"/>
      </defs>
      <g style="fill:#262626;" transform="translate(135.451684 127.520312)scale(0.1 -0.1)">
       <use xlink:href="#DejaVuSans-51"/>
      </g>
     </g>
    </g>
   </g>
   <g id="matplotlib.axis_2"/>
   <g id="line2d_7">
    <path clip-path="url(#p217ef95598)" d="M 14.645455 108.809062 
L 19.883463 108.682031 
L 22.87661 108.428438 
L 25.121471 108.04522 
L 27.366332 107.392395 
L 28.862905 106.748408 
L 30.359479 105.889556 
L 31.856053 104.771209 
L 33.352627 103.347823 
L 34.849201 101.576551 
L 36.345774 99.422615 
L 37.842348 96.866408 
L 39.338922 93.911535 
L 41.583783 88.81622 
L 44.57693 81.239161 
L 47.570078 73.718846 
L 49.814938 68.772433 
L 51.311512 65.984534 
L 52.808086 63.643209 
L 54.30466 61.727414 
L 55.801233 60.178005 
L 57.297807 58.913934 
L 59.542668 57.370104 
L 62.535815 55.646427 
L 65.528963 54.157765 
L 67.773824 53.298867 
L 69.270397 52.933825 
L 70.766971 52.790891 
L 72.263545 52.905846 
L 73.760119 53.292911 
L 75.256693 53.937843 
L 76.753266 54.796053 
L 79.746414 56.856344 
L 82.739561 58.827821 
L 84.984422 59.990347 
L 87.97757 61.192932 
L 90.22243 62.141608 
L 91.719004 62.972325 
L 93.215578 64.060195 
L 94.712152 65.459465 
L 96.208725 67.186073 
L 97.705299 69.214149 
L 99.95016 72.673484 
L 104.439881 79.871784 
L 106.684742 82.995621 
L 108.181316 84.783511 
L 109.677889 86.330273 
L 111.92275 88.250731 
L 114.167611 89.808276 
L 117.160758 91.551655 
L 121.65048 93.846124 
L 126.888488 96.268868 
L 137.364504 101.028542 
L 143.350799 104.117166 
L 147.092234 105.966618 
L 149.337095 106.889816 
L 151.581955 107.6121 
L 153.826816 108.125279 
L 156.819963 108.532004 
L 160.561398 108.747096 
L 163.554545 108.803328 
L 163.554545 108.803328 
" style="fill:none;stroke:#4c72b0;stroke-linecap:round;stroke-width:1.75;"/>
   </g>
   <g id="line2d_8">
    <path clip-path="url(#p217ef95598)" d="M 40.26532 108.79711 
L 43.396915 108.638461 
L 45.484645 108.313547 
L 47.050442 107.859054 
L 48.61624 107.165326 
L 50.182037 106.200026 
L 51.747835 104.937151 
L 53.313632 103.311347 
L 54.357497 101.952233 
L 55.401362 100.289715 
L 56.445227 98.237166 
L 57.489092 95.713297 
L 58.532957 92.665675 
L 60.098755 87.12832 
L 62.186485 78.457642 
L 64.796147 67.583101 
L 66.361945 62.105715 
L 67.40581 59.075071 
L 68.449675 56.520924 
L 70.015472 53.401275 
L 71.58127 50.820446 
L 74.190932 47.009527 
L 80.454122 38.155179 
L 82.541852 34.411044 
L 85.151515 29.623537 
L 86.19538 28.116709 
L 87.239245 27.066552 
L 87.761177 26.746499 
L 88.28311 26.574121 
L 88.805042 26.552812 
L 89.326975 26.68214 
L 89.848907 26.958144 
L 90.892772 27.919601 
L 91.936637 29.355227 
L 92.980502 31.164303 
L 94.546299 34.359412 
L 97.677894 41.500728 
L 100.287557 47.295312 
L 102.375287 51.357905 
L 104.463017 54.816915 
L 108.116544 60.566326 
L 109.682342 63.62606 
L 111.248139 67.337323 
L 112.813937 71.676169 
L 119.077127 90.107488 
L 120.642924 93.695628 
L 122.208722 96.622929 
L 123.252587 98.206827 
L 124.296452 99.518085 
L 125.862249 101.058245 
L 127.428047 102.248731 
L 132.647372 105.667532 
L 134.735102 106.913852 
L 136.300899 107.648158 
L 137.866697 108.169187 
L 139.954427 108.569339 
L 142.564089 108.765287 
L 144.129887 108.803973 
L 144.129887 108.803973 
" style="fill:none;stroke:#55a868;stroke-linecap:round;stroke-width:1.75;"/>
   </g>
   <g id="line2d_9">
    <path clip-path="url(#p217ef95598)" d="M 94.419917 112.921875 
L 94.419917 22.44 
" style="fill:none;stroke:#000000;stroke-dasharray:6.475,2.8;stroke-dashoffset:0;stroke-width:1.75;"/>
   </g>
   <g id="patch_3">
    <path d="M 7.2 112.921875 
L 7.2 22.44 
" style="fill:none;"/>
   </g>
   <g id="patch_4">
    <path d="M 171 112.921875 
L 171 22.44 
" style="fill:none;"/>
   </g>
   <g id="patch_5">
    <path d="M 7.2 112.921875 
L 171 112.921875 
" style="fill:none;"/>
   </g>
   <g id="patch_6">
    <path d="M 7.2 22.44 
L 171 22.44 
" style="fill:none;"/>
   </g>
   <g id="text_4">
    <!-- $\beta\in (0, 10)$ -->
    <defs>
     <path d="M 13.625 3.375 
L 8.9375 -20.796875 
L -0.09375 -20.796875 
L 14.5 54.34375 
Q 18.84375 76.609375 39.65625 76.609375 
Q 60.75 76.609375 57.171875 57.8125 
Q 54.734375 44.4375 45.21875 39.546875 
Q 58.015625 35.15625 55.515625 22.125 
Q 51.125 -1.078125 27.484375 -1.03125 
Q 17.140625 -0.984375 13.625 3.375 
z
M 15.921875 15.09375 
Q 19.671875 6.59375 29.296875 6.640625 
Q 43.359375 6.640625 46.34375 21.96875 
Q 49.03125 35.75 26.171875 34.671875 
L 27.78125 42.96875 
Q 45.453125 42.671875 48.53125 58.59375 
Q 50.640625 69.34375 39.203125 69.28125 
Q 26.421875 69.28125 23.484375 54.046875 
z
" id="DejaVuSans-Oblique-946"/>
     <path d="M 16.75 30.609375 
Q 17.09375 27 20.171875 21.140625 
Q 23.78125 14.359375 30.609375 10.546875 
Q 37.3125 6.84375 44.53125 6.78125 
L 78.5625 6.78125 
L 78.5625 -0.984375 
L 44.53125 -0.984375 
Q 35.15625 -0.984375 26.484375 3.84375 
Q 17.828125 8.6875 13.1875 17.28125 
Q 8.546875 25.875 8.546875 35.015625 
Q 8.546875 44.046875 13.1875 52.640625 
Q 17.828125 61.234375 26.484375 66.109375 
Q 35.15625 71 44.53125 71 
L 78.5625 71 
L 78.5625 63.234375 
L 44.53125 63.234375 
Q 37.3125 63.1875 30.609375 59.421875 
Q 23.828125 55.5625 20.171875 48.828125 
Q 17.046875 42.96875 16.609375 38.421875 
L 78.5625 38.421875 
L 78.5625 30.609375 
z
" id="DejaVuSans-8712"/>
     <path d="M 31 75.875 
Q 24.46875 64.65625 21.28125 53.65625 
Q 18.109375 42.671875 18.109375 31.390625 
Q 18.109375 20.125 21.3125 9.0625 
Q 24.515625 -2 31 -13.1875 
L 23.1875 -13.1875 
Q 15.875 -1.703125 12.234375 9.375 
Q 8.59375 20.453125 8.59375 31.390625 
Q 8.59375 42.28125 12.203125 53.3125 
Q 15.828125 64.359375 23.1875 75.875 
z
" id="DejaVuSans-40"/>
     <path d="M 31.78125 66.40625 
Q 24.171875 66.40625 20.328125 58.90625 
Q 16.5 51.421875 16.5 36.375 
Q 16.5 21.390625 20.328125 13.890625 
Q 24.171875 6.390625 31.78125 6.390625 
Q 39.453125 6.390625 43.28125 13.890625 
Q 47.125 21.390625 47.125 36.375 
Q 47.125 51.421875 43.28125 58.90625 
Q 39.453125 66.40625 31.78125 66.40625 
z
M 31.78125 74.21875 
Q 44.046875 74.21875 50.515625 64.515625 
Q 56.984375 54.828125 56.984375 36.375 
Q 56.984375 17.96875 50.515625 8.265625 
Q 44.046875 -1.421875 31.78125 -1.421875 
Q 19.53125 -1.421875 13.0625 8.265625 
Q 6.59375 17.96875 6.59375 36.375 
Q 6.59375 54.828125 13.0625 64.515625 
Q 19.53125 74.21875 31.78125 74.21875 
z
" id="DejaVuSans-48"/>
     <path d="M 11.71875 12.40625 
L 22.015625 12.40625 
L 22.015625 4 
L 14.015625 -11.625 
L 7.71875 -11.625 
L 11.71875 4 
z
" id="DejaVuSans-44"/>
     <path d="M 8.015625 75.875 
L 15.828125 75.875 
Q 23.140625 64.359375 26.78125 53.3125 
Q 30.421875 42.28125 30.421875 31.390625 
Q 30.421875 20.453125 26.78125 9.375 
Q 23.140625 -1.703125 15.828125 -13.1875 
L 8.015625 -13.1875 
Q 14.5 -2 17.703125 9.0625 
Q 20.90625 20.125 20.90625 31.390625 
Q 20.90625 42.671875 17.703125 53.65625 
Q 14.5 64.65625 8.015625 75.875 
z
" id="DejaVuSans-41"/>
    </defs>
    <g style="fill:#262626;" transform="translate(58.44 16.44)scale(0.12 -0.12)">
     <use transform="translate(0 0.390625)" xlink:href="#DejaVuSans-Oblique-946"/>
     <use transform="translate(83.300781 0.390625)" xlink:href="#DejaVuSans-8712"/>
     <use transform="translate(189.892578 0.390625)" xlink:href="#DejaVuSans-40"/>
     <use transform="translate(228.90625 0.390625)" xlink:href="#DejaVuSans-48"/>
     <use transform="translate(292.529297 0.390625)" xlink:href="#DejaVuSans-44"/>
     <use transform="translate(343.798828 0.390625)" xlink:href="#DejaVuSans-49"/>
     <use transform="translate(407.421875 0.390625)" xlink:href="#DejaVuSans-48"/>
     <use transform="translate(471.044922 0.390625)" xlink:href="#DejaVuSans-41"/>
    </g>
   </g>
  </g>
  <g id="axes_2">
   <g id="patch_7">
    <path d="M 181.8 112.921875 
L 345.6 112.921875 
L 345.6 22.44 
L 181.8 22.44 
z
" style="fill:none;"/>
   </g>
   <g id="matplotlib.axis_3">
    <g id="xtick_4">
     <g id="line2d_10">
      <path clip-path="url(#p30959fd4c7)" d="M 210.268001 112.921875 
L 210.268001 22.44 
" style="fill:none;stroke:#ffffff;stroke-linecap:round;"/>
     </g>
     <g id="line2d_11"/>
     <g id="text_5">
      <!-- 0.1 -->
      <defs>
       <path d="M 10.6875 12.40625 
L 21 12.40625 
L 21 0 
L 10.6875 0 
z
" id="DejaVuSans-46"/>
      </defs>
      <g style="fill:#262626;" transform="translate(202.316438 127.520312)scale(0.1 -0.1)">
       <use xlink:href="#DejaVuSans-48"/>
       <use x="63.623047" xlink:href="#DejaVuSans-46"/>
       <use x="95.410156" xlink:href="#DejaVuSans-49"/>
      </g>
     </g>
    </g>
    <g id="xtick_5">
     <g id="line2d_12">
      <path clip-path="url(#p30959fd4c7)" d="M 247.02544 112.921875 
L 247.02544 22.44 
" style="fill:none;stroke:#ffffff;stroke-linecap:round;"/>
     </g>
     <g id="line2d_13"/>
     <g id="text_6">
      <!-- 0.2 -->
      <g style="fill:#262626;" transform="translate(239.073877 127.520312)scale(0.1 -0.1)">
       <use xlink:href="#DejaVuSans-48"/>
       <use x="63.623047" xlink:href="#DejaVuSans-46"/>
       <use x="95.410156" xlink:href="#DejaVuSans-50"/>
      </g>
     </g>
    </g>
    <g id="xtick_6">
     <g id="line2d_14">
      <path clip-path="url(#p30959fd4c7)" d="M 283.782879 112.921875 
L 283.782879 22.44 
" style="fill:none;stroke:#ffffff;stroke-linecap:round;"/>
     </g>
     <g id="line2d_15"/>
     <g id="text_7">
      <!-- 0.3 -->
      <g style="fill:#262626;" transform="translate(275.831316 127.520312)scale(0.1 -0.1)">
       <use xlink:href="#DejaVuSans-48"/>
       <use x="63.623047" xlink:href="#DejaVuSans-46"/>
       <use x="95.410156" xlink:href="#DejaVuSans-51"/>
      </g>
     </g>
    </g>
    <g id="xtick_7">
     <g id="line2d_16">
      <path clip-path="url(#p30959fd4c7)" d="M 320.540317 112.921875 
L 320.540317 22.44 
" style="fill:none;stroke:#ffffff;stroke-linecap:round;"/>
     </g>
     <g id="line2d_17"/>
     <g id="text_8">
      <!-- 0.4 -->
      <defs>
       <path d="M 37.796875 64.3125 
L 12.890625 25.390625 
L 37.796875 25.390625 
z
M 35.203125 72.90625 
L 47.609375 72.90625 
L 47.609375 25.390625 
L 58.015625 25.390625 
L 58.015625 17.1875 
L 47.609375 17.1875 
L 47.609375 0 
L 37.796875 0 
L 37.796875 17.1875 
L 4.890625 17.1875 
L 4.890625 26.703125 
z
" id="DejaVuSans-52"/>
      </defs>
      <g style="fill:#262626;" transform="translate(312.588755 127.520312)scale(0.1 -0.1)">
       <use xlink:href="#DejaVuSans-48"/>
       <use x="63.623047" xlink:href="#DejaVuSans-46"/>
       <use x="95.410156" xlink:href="#DejaVuSans-52"/>
      </g>
     </g>
    </g>
   </g>
   <g id="matplotlib.axis_4"/>
   <g id="line2d_18">
    <path clip-path="url(#p30959fd4c7)" d="M 189.245455 108.809062 
L 195.23175 108.686603 
L 198.224897 108.449456 
L 200.469758 108.102601 
L 202.714619 107.548141 
L 204.959479 106.747269 
L 207.20434 105.697292 
L 210.197487 103.978219 
L 213.938922 101.492141 
L 216.932069 99.25931 
L 219.17693 97.362717 
L 221.421791 95.212316 
L 224.414938 91.959575 
L 237.884102 76.544401 
L 240.87725 73.546201 
L 243.122111 71.55966 
L 245.366971 69.870027 
L 247.611832 68.49852 
L 249.856693 67.420849 
L 252.101553 66.583545 
L 255.094701 65.742251 
L 258.087848 65.154844 
L 260.332709 64.927694 
L 261.829283 64.934728 
L 263.325857 65.11821 
L 264.82243 65.519718 
L 266.319004 66.168674 
L 267.815578 67.073447 
L 269.312152 68.217091 
L 271.557012 70.288498 
L 275.298447 74.228375 
L 289.515898 89.416218 
L 292.509045 92.392077 
L 295.502193 95.072437 
L 298.49534 97.46828 
L 301.488488 99.607096 
L 303.733349 100.996314 
L 305.978209 102.119506 
L 308.22307 102.919165 
L 310.467931 103.412099 
L 318.699086 104.767123 
L 321.692234 105.763492 
L 326.181955 107.340913 
L 328.426816 107.932965 
L 330.671677 108.339907 
L 333.664824 108.639829 
L 338.154545 108.790489 
L 338.154545 108.790489 
" style="fill:none;stroke:#4c72b0;stroke-linecap:round;stroke-width:1.75;"/>
   </g>
   <g id="line2d_19">
    <path clip-path="url(#p30959fd4c7)" d="M 210.349833 108.807726 
L 213.7111 108.675076 
L 215.391734 108.434484 
L 216.652209 108.093844 
L 217.912685 107.547436 
L 219.17316 106.717965 
L 220.433635 105.513708 
L 221.694111 103.840902 
L 222.954586 101.632681 
L 224.215061 98.881561 
L 225.895695 94.483987 
L 227.996487 88.16598 
L 230.517438 79.805217 
L 236.399656 58.951644 
L 239.340765 48.214805 
L 241.861715 39.060524 
L 243.122191 35.357146 
L 243.962507 33.389022 
L 244.802824 31.804331 
L 246.0633 29.974427 
L 247.323775 28.531881 
L 248.58425 27.349956 
L 249.424567 26.79031 
L 250.264884 26.552812 
L 250.685042 26.599653 
L 251.105201 26.779233 
L 251.525359 27.105134 
L 252.365676 28.230017 
L 253.205993 29.992299 
L 254.04631 32.323872 
L 255.306785 36.550171 
L 257.407577 43.79147 
L 258.668053 47.277706 
L 259.508369 49.097846 
L 260.768845 51.24 
L 262.869637 54.577026 
L 263.709954 56.341321 
L 264.550271 58.538782 
L 265.810746 62.7206 
L 267.071221 67.834944 
L 272.113122 89.646395 
L 273.373598 93.665727 
L 274.634073 96.897336 
L 275.894548 99.442728 
L 277.155024 101.387811 
L 277.99534 102.371108 
L 278.835657 103.115357 
L 279.675974 103.644345 
L 280.93645 104.137826 
L 283.877559 105.063529 
L 285.558192 105.989474 
L 288.499301 107.738278 
L 289.759777 108.233794 
L 291.44041 108.606295 
L 293.541202 108.775356 
L 293.961361 108.78858 
L 293.961361 108.78858 
" style="fill:none;stroke:#55a868;stroke-linecap:round;stroke-width:1.75;"/>
   </g>
   <g id="line2d_20">
    <path clip-path="url(#p30959fd4c7)" d="M 247.02544 112.921875 
L 247.02544 22.44 
" style="fill:none;stroke:#000000;stroke-dasharray:6.475,2.8;stroke-dashoffset:0;stroke-width:1.75;"/>
   </g>
   <g id="patch_8">
    <path d="M 181.8 112.921875 
L 181.8 22.44 
" style="fill:none;"/>
   </g>
   <g id="patch_9">
    <path d="M 345.6 112.921875 
L 345.6 22.44 
" style="fill:none;"/>
   </g>
   <g id="patch_10">
    <path d="M 181.8 112.921875 
L 345.6 112.921875 
" style="fill:none;"/>
   </g>
   <g id="patch_11">
    <path d="M 181.8 22.44 
L 345.6 22.44 
" style="fill:none;"/>
   </g>
   <g id="text_9">
    <!-- $\delta\in (-1, 1)$ -->
    <defs>
     <path d="M 54.25 63.328125 
Q 49.953125 66.75 38.28125 66.75 
Q 25.921875 66.75 24.8125 61.03125 
Q 23.921875 56.546875 36.375 54.203125 
Q 46.140625 52.390625 50.828125 46.921875 
Q 56.5 40.328125 53.859375 26.8125 
Q 51.3125 13.875 43.171875 6.25 
Q 34.96875 -1.421875 23.25 -1.421875 
Q 11.578125 -1.421875 6.34375 6.25 
Q 1.125 13.875 3.765625 27.296875 
Q 5.671875 37.25 13.921875 45.3125 
Q 17.140625 48.4375 21.140625 50.203125 
Q 14.265625 54.046875 15.625 60.9375 
Q 18.21875 74.21875 39.75 74.21875 
Q 50.53125 74.21875 55.71875 70.796875 
z
M 27.390625 47.75 
Q 23.828125 46.34375 20.40625 42.78125 
Q 15.140625 37.25 13.234375 27.296875 
Q 11.28125 17.390625 14.359375 11.8125 
Q 17.484375 6.203125 24.75 6.203125 
Q 31.9375 6.203125 37.203125 11.859375 
Q 42.53125 17.53125 44.34375 26.8125 
Q 46.1875 36.53125 42.671875 41.21875 
Q 38.921875 46.234375 32.859375 46.78125 
Q 29.78125 47.078125 27.390625 47.75 
z
" id="DejaVuSans-Oblique-948"/>
     <path d="M 10.59375 35.5 
L 73.1875 35.5 
L 73.1875 27.203125 
L 10.59375 27.203125 
z
" id="DejaVuSans-8722"/>
    </defs>
    <g style="fill:#262626;" transform="translate(232.02 16.44)scale(0.12 -0.12)">
     <use transform="translate(0 0.125)" xlink:href="#DejaVuSans-Oblique-948"/>
     <use transform="translate(80.664062 0.125)" xlink:href="#DejaVuSans-8712"/>
     <use transform="translate(187.255859 0.125)" xlink:href="#DejaVuSans-40"/>
     <use transform="translate(226.269531 0.125)" xlink:href="#DejaVuSans-8722"/>
     <use transform="translate(310.058594 0.125)" xlink:href="#DejaVuSans-49"/>
     <use transform="translate(373.681641 0.125)" xlink:href="#DejaVuSans-44"/>
     <use transform="translate(424.951172 0.125)" xlink:href="#DejaVuSans-49"/>
     <use transform="translate(488.574219 0.125)" xlink:href="#DejaVuSans-41"/>
    </g>
   </g>
  </g>
 </g>
 <defs>
  <clipPath id="p217ef95598">
   <rect height="90.481875" width="163.8" x="7.2" y="22.44"/>
  </clipPath>
  <clipPath id="p30959fd4c7">
   <rect height="90.481875" width="163.8" x="181.8" y="22.44"/>
  </clipPath>
 </defs>
</svg>
