<?xml version="1.0" encoding="utf-8" standalone="no"?>
<!DOCTYPE svg PUBLIC "-//W3C//DTD SVG 1.1//EN"
  "http://www.w3.org/Graphics/SVG/1.1/DTD/svg11.dtd">
<!-- Created with matplotlib (https://matplotlib.org/) -->
<svg height="500pt" version="1.1" viewBox="0 0 352.8 136.8" width="1290pt" xmlns="http://www.w3.org/2000/svg" xmlns:xlink="http://www.w3.org/1999/xlink">
 <defs>
  <style type="text/css">
*{stroke-linecap:butt;stroke-linejoin:round;}
  </style>
 </defs>
 <g id="figure_1">
  <g id="patch_1">
   <path d="M 0 136.8 
L 352.8 136.8 
L 352.8 0 
L 0 0 
z
" style="fill:none;"/>
  </g>
  <g id="axes_1">
   <g id="patch_2">
    <path d="M 7.2 112.921875 
L 171 112.921875 
L 171 22.44 
L 7.2 22.44 
z
" style="fill:none;"/>
   </g>
   <g id="matplotlib.axis_1">
    <g id="xtick_1">
     <g id="line2d_1">
      <defs>
       <path d="M 0 0 
L 0 3.5 
" id="m3e95597f21" style="stroke:#000000;stroke-width:0.8;"/>
      </defs>
      <g>
       <use style="stroke:#000000;stroke-width:0.8;" x="27.054545" xlink:href="#m3e95597f21" y="112.921875"/>
      </g>
     </g>
     <g id="text_1">
      <!-- 0 -->
      <defs>
       <path d="M 31.78125 66.40625 
Q 24.171875 66.40625 20.328125 58.90625 
Q 16.5 51.421875 16.5 36.375 
Q 16.5 21.390625 20.328125 13.890625 
Q 24.171875 6.390625 31.78125 6.390625 
Q 39.453125 6.390625 43.28125 13.890625 
Q 47.125 21.390625 47.125 36.375 
Q 47.125 51.421875 43.28125 58.90625 
Q 39.453125 66.40625 31.78125 66.40625 
z
M 31.78125 74.21875 
Q 44.046875 74.21875 50.515625 64.515625 
Q 56.984375 54.828125 56.984375 36.375 
Q 56.984375 17.96875 50.515625 8.265625 
Q 44.046875 -1.421875 31.78125 -1.421875 
Q 19.53125 -1.421875 13.0625 8.265625 
Q 6.59375 17.96875 6.59375 36.375 
Q 6.59375 54.828125 13.0625 64.515625 
Q 19.53125 74.21875 31.78125 74.21875 
z
" id="DejaVuSans-48"/>
      </defs>
      <g transform="translate(23.873295 127.520312)scale(0.1 -0.1)">
       <use xlink:href="#DejaVuSans-48"/>
      </g>
     </g>
    </g>
    <g id="xtick_2">
     <g id="line2d_2">
      <g>
       <use style="stroke:#000000;stroke-width:0.8;" x="89.1" xlink:href="#m3e95597f21" y="112.921875"/>
      </g>
     </g>
     <g id="text_2">
      <!-- 5 -->
      <defs>
       <path d="M 10.796875 72.90625 
L 49.515625 72.90625 
L 49.515625 64.59375 
L 19.828125 64.59375 
L 19.828125 46.734375 
Q 21.96875 47.46875 24.109375 47.828125 
Q 26.265625 48.1875 28.421875 48.1875 
Q 40.625 48.1875 47.75 41.5 
Q 54.890625 34.8125 54.890625 23.390625 
Q 54.890625 11.625 47.5625 5.09375 
Q 40.234375 -1.421875 26.90625 -1.421875 
Q 22.3125 -1.421875 17.546875 -0.640625 
Q 12.796875 0.140625 7.71875 1.703125 
L 7.71875 11.625 
Q 12.109375 9.234375 16.796875 8.0625 
Q 21.484375 6.890625 26.703125 6.890625 
Q 35.15625 6.890625 40.078125 11.328125 
Q 45.015625 15.765625 45.015625 23.390625 
Q 45.015625 31 40.078125 35.4375 
Q 35.15625 39.890625 26.703125 39.890625 
Q 22.75 39.890625 18.8125 39.015625 
Q 14.890625 38.140625 10.796875 36.28125 
z
" id="DejaVuSans-53"/>
      </defs>
      <g transform="translate(85.91875 127.520312)scale(0.1 -0.1)">
       <use xlink:href="#DejaVuSans-53"/>
      </g>
     </g>
    </g>
    <g id="xtick_3">
     <g id="line2d_3">
      <g>
       <use style="stroke:#000000;stroke-width:0.8;" x="151.145455" xlink:href="#m3e95597f21" y="112.921875"/>
      </g>
     </g>
     <g id="text_3">
      <!-- 10 -->
      <defs>
       <path d="M 12.40625 8.296875 
L 28.515625 8.296875 
L 28.515625 63.921875 
L 10.984375 60.40625 
L 10.984375 69.390625 
L 28.421875 72.90625 
L 38.28125 72.90625 
L 38.28125 8.296875 
L 54.390625 8.296875 
L 54.390625 0 
L 12.40625 0 
z
" id="DejaVuSans-49"/>
      </defs>
      <g transform="translate(144.782955 127.520312)scale(0.1 -0.1)">
       <use xlink:href="#DejaVuSans-49"/>
       <use x="63.623047" xlink:href="#DejaVuSans-48"/>
      </g>
     </g>
    </g>
   </g>
   <g id="matplotlib.axis_2"/>
   <g id="line2d_4">
    <path clip-path="url(#p11d29f57aa)" d="M 28.499385 108.802136 
L 28.716374 108.683945 
L 28.913636 108.240447 
L 29.091172 107.300885 
L 29.229255 105.079046 
L 29.446244 96.76353 
L 30.03803 73.344454 
L 30.373376 68.358139 
L 30.452281 67.931934 
L 30.491733 68.036535 
L 30.590364 69.445984 
L 31.833116 101.230912 
L 32.129009 107.819993 
L 32.326271 108.715862 
L 32.424902 108.789666 
L 32.424902 108.789666 
" style="fill:none;stroke:#1f77b4;stroke-linecap:square;stroke-width:1.5;"/>
   </g>
   <g id="line2d_5">
    <path clip-path="url(#p11d29f57aa)" d="M 31.190909 112.921875 
L 31.190909 22.44 
" style="fill:none;stroke:#000000;stroke-dasharray:5.55,2.4;stroke-dashoffset:0;stroke-width:1.5;"/>
   </g>
   <g id="line2d_6">
    <path clip-path="url(#p11d29f57aa)" d="M 29.636174 108.77945 
L 29.70425 108.5799 
L 29.783671 107.471369 
L 29.942513 100.607093 
L 30.135392 86.21458 
L 30.645956 26.552812 
L 30.657302 26.664982 
L 30.736723 30.779871 
L 30.986332 58.774864 
L 31.406129 102.235437 
L 31.599009 106.343519 
L 31.894001 108.787802 
L 31.894001 108.787802 
" style="fill:none;stroke:#2ca02c;stroke-linecap:square;stroke-width:1.5;"/>
   </g>
   <g id="line2d_7">
    <path clip-path="url(#p11d29f57aa)" d="M 31.190909 112.921875 
L 31.190909 22.44 
" style="fill:none;stroke:#000000;stroke-dasharray:5.55,2.4;stroke-dashoffset:0;stroke-width:1.5;"/>
   </g>
   <g id="line2d_8">
    <path clip-path="url(#p11d29f57aa)" d="M 14.645455 108.809062 
L 16.149587 108.809062 
L 17.653719 108.809062 
L 19.157851 108.809062 
L 20.661983 108.809062 
L 22.166116 108.809062 
L 23.670248 108.809062 
L 25.17438 108.809062 
L 26.678512 108.809062 
L 27.054545 108.809062 
L 27.054545 108.253987 
L 27.054546 108.253987 
L 28.182645 108.253987 
L 29.686777 108.253987 
L 31.190909 108.253987 
L 32.695041 108.253987 
L 34.199174 108.253987 
L 35.703306 108.253987 
L 37.207438 108.253987 
L 38.71157 108.253987 
L 40.215702 108.253987 
L 41.719835 108.253987 
L 43.223967 108.253987 
L 44.728099 108.253987 
L 46.232231 108.253987 
L 47.736364 108.253987 
L 49.240496 108.253987 
L 50.744628 108.253987 
L 52.24876 108.253987 
L 53.752893 108.253987 
L 55.257025 108.253987 
L 56.761157 108.253987 
L 58.265289 108.253987 
L 59.769421 108.253987 
L 61.273554 108.253987 
L 62.777686 108.253987 
L 64.281818 108.253987 
L 65.78595 108.253987 
L 67.290083 108.253987 
L 68.794215 108.253987 
L 70.298347 108.253987 
L 71.802479 108.253987 
L 73.306612 108.253987 
L 74.810744 108.253987 
L 76.314876 108.253987 
L 77.819008 108.253987 
L 79.32314 108.253987 
L 80.827273 108.253987 
L 82.331405 108.253987 
L 83.835537 108.253987 
L 85.339669 108.253987 
L 86.843802 108.253987 
L 88.347934 108.253987 
L 89.852066 108.253987 
L 91.356198 108.253987 
L 92.860331 108.253987 
L 94.364463 108.253987 
L 95.868595 108.253987 
L 97.372727 108.253987 
L 98.87686 108.253987 
L 100.380992 108.253987 
L 101.885124 108.253987 
L 103.389256 108.253987 
L 104.893388 108.253987 
L 106.397521 108.253987 
L 107.901653 108.253987 
L 109.405785 108.253987 
L 110.909917 108.253987 
L 112.41405 108.253987 
L 113.918182 108.253987 
L 115.422314 108.253987 
L 116.926446 108.253987 
L 118.430579 108.253987 
L 119.934711 108.253987 
L 121.438843 108.253987 
L 122.942975 108.253987 
L 124.447107 108.253987 
L 125.95124 108.253987 
L 127.455372 108.253987 
L 128.959504 108.253987 
L 130.463636 108.253987 
L 131.967769 108.253987 
L 133.471901 108.253987 
L 134.976033 108.253987 
L 136.480165 108.253987 
L 137.984298 108.253987 
L 139.48843 108.253987 
L 140.992562 108.253987 
L 142.496694 108.253987 
L 144.000826 108.253987 
L 145.504959 108.253987 
L 147.009091 108.253987 
L 148.513223 108.253987 
L 150.017355 108.253987 
L 151.145454 108.253987 
L 151.145455 108.253987 
L 151.145455 108.809062 
L 151.521488 108.809062 
L 153.02562 108.809062 
L 154.529752 108.809062 
L 156.033884 108.809062 
L 157.538017 108.809062 
L 159.042149 108.809062 
L 160.546281 108.809062 
L 162.050413 108.809062 
L 163.554545 108.809062 
" style="fill:none;stroke:#d62728;stroke-linecap:square;stroke-width:1.5;"/>
   </g>
   <g id="patch_3">
    <path d="M 7.2 112.921875 
L 171 112.921875 
" style="fill:none;stroke:#000000;stroke-linecap:square;stroke-linejoin:miter;stroke-width:0.8;"/>
   </g>
   <g id="text_4">
    <!-- $k$ -->
    <defs>
     <path d="M 18.3125 75.984375 
L 27.296875 75.984375 
L 18.703125 31.6875 
L 49.515625 54.6875 
L 61.1875 54.6875 
L 26.8125 28.515625 
L 51.90625 0 
L 41.015625 0 
L 17.671875 26.703125 
L 12.5 0 
L 3.515625 0 
z
" id="DejaVuSans-Oblique-107"/>
    </defs>
    <g transform="translate(85.62 16.44)scale(0.12 -0.12)">
     <use transform="translate(0 0.015625)" xlink:href="#DejaVuSans-Oblique-107"/>
    </g>
   </g>
  </g>
  <g id="axes_2">
   <g id="patch_4">
    <path d="M 181.8 112.921875 
L 345.6 112.921875 
L 345.6 22.44 
L 181.8 22.44 
z
" style="fill:none;"/>
   </g>
   <g id="matplotlib.axis_3">
    <g id="xtick_4">
     <g id="line2d_9">
      <g>
       <use style="stroke:#000000;stroke-width:0.8;" x="195.719763" xlink:href="#m3e95597f21" y="112.921875"/>
      </g>
     </g>
     <g id="text_5">
      <!-- 0 -->
      <g transform="translate(192.538513 127.520312)scale(0.1 -0.1)">
       <use xlink:href="#DejaVuSans-48"/>
      </g>
     </g>
    </g>
    <g id="xtick_5">
     <g id="line2d_10">
      <g>
       <use style="stroke:#000000;stroke-width:0.8;" x="260.462846" xlink:href="#m3e95597f21" y="112.921875"/>
      </g>
     </g>
     <g id="text_6">
      <!-- 10 -->
      <g transform="translate(254.100346 127.520312)scale(0.1 -0.1)">
       <use xlink:href="#DejaVuSans-49"/>
       <use x="63.623047" xlink:href="#DejaVuSans-48"/>
      </g>
     </g>
    </g>
    <g id="xtick_6">
     <g id="line2d_11">
      <g>
       <use style="stroke:#000000;stroke-width:0.8;" x="325.205929" xlink:href="#m3e95597f21" y="112.921875"/>
      </g>
     </g>
     <g id="text_7">
      <!-- 20 -->
      <defs>
       <path d="M 19.1875 8.296875 
L 53.609375 8.296875 
L 53.609375 0 
L 7.328125 0 
L 7.328125 8.296875 
Q 12.9375 14.109375 22.625 23.890625 
Q 32.328125 33.6875 34.8125 36.53125 
Q 39.546875 41.84375 41.421875 45.53125 
Q 43.3125 49.21875 43.3125 52.78125 
Q 43.3125 58.59375 39.234375 62.25 
Q 35.15625 65.921875 28.609375 65.921875 
Q 23.96875 65.921875 18.8125 64.3125 
Q 13.671875 62.703125 7.8125 59.421875 
L 7.8125 69.390625 
Q 13.765625 71.78125 18.9375 73 
Q 24.125 74.21875 28.421875 74.21875 
Q 39.75 74.21875 46.484375 68.546875 
Q 53.21875 62.890625 53.21875 53.421875 
Q 53.21875 48.921875 51.53125 44.890625 
Q 49.859375 40.875 45.40625 35.40625 
Q 44.1875 33.984375 37.640625 27.21875 
Q 31.109375 20.453125 19.1875 8.296875 
z
" id="DejaVuSans-50"/>
      </defs>
      <g transform="translate(318.843429 127.520312)scale(0.1 -0.1)">
       <use xlink:href="#DejaVuSans-50"/>
       <use x="63.623047" xlink:href="#DejaVuSans-48"/>
      </g>
     </g>
    </g>
   </g>
   <g id="matplotlib.axis_4"/>
   <g id="line2d_12">
    <path clip-path="url(#p035eb8257f)" d="M 195.719763 99.342765 
L 196.202635 88.616427 
L 197.582268 54.330798 
L 197.858194 51.974154 
L 198.065139 51.470855 
L 198.203103 51.651294 
L 198.410048 52.556431 
L 198.754956 55.31559 
L 199.375791 62.630831 
L 201.238296 86.627119 
L 201.721168 88.779605 
L 202.824874 93.158426 
L 203.859599 98.11776 
L 204.618398 101.603003 
L 205.101269 102.787584 
L 205.929049 104.363151 
L 206.756829 106.342068 
L 207.239701 106.836852 
L 207.791554 107.459703 
L 208.619334 108.505587 
L 209.102206 108.740299 
L 209.447114 108.791144 
L 209.447114 108.791144 
" style="fill:none;stroke:#1f77b4;stroke-linecap:square;stroke-width:1.5;"/>
   </g>
   <g id="line2d_13">
    <path clip-path="url(#p035eb8257f)" d="M 202.194071 112.921875 
L 202.194071 22.44 
" style="fill:none;stroke:#000000;stroke-dasharray:5.55,2.4;stroke-dashoffset:0;stroke-width:1.5;"/>
   </g>
   <g id="line2d_14">
    <path clip-path="url(#p035eb8257f)" d="M 195.969095 108.787959 
L 196.289021 108.612364 
L 196.471835 108.257991 
L 196.700353 107.222606 
L 196.974575 104.629438 
L 197.340204 98.667019 
L 197.79724 87.254623 
L 198.162869 71.773849 
L 199.076941 29.254807 
L 199.30546 26.572491 
L 199.351163 26.552812 
L 199.44257 26.964741 
L 199.671088 29.901956 
L 200.493754 41.989253 
L 200.859383 47.128537 
L 201.225011 56.571389 
L 202.59612 95.991159 
L 202.870342 98.988458 
L 203.09886 99.66922 
L 203.555896 100.020812 
L 203.73871 100.882451 
L 204.058636 103.836181 
L 204.515672 107.730385 
L 204.789894 108.563031 
L 205.064115 108.773033 
L 205.064115 108.773033 
" style="fill:none;stroke:#2ca02c;stroke-linecap:square;stroke-width:1.5;"/>
   </g>
   <g id="line2d_15">
    <path clip-path="url(#p035eb8257f)" d="M 202.194071 112.921875 
L 202.194071 22.44 
" style="fill:none;stroke:#000000;stroke-dasharray:5.55,2.4;stroke-dashoffset:0;stroke-width:1.5;"/>
   </g>
   <g id="line2d_16">
    <path clip-path="url(#p035eb8257f)" d="M 189.245455 108.809062 
L 190.749587 108.809062 
L 192.253719 108.809062 
L 193.757851 108.809062 
L 195.261983 108.809062 
L 195.719763 108.809062 
L 195.719763 106.595957 
L 195.719763 106.595957 
L 196.766116 106.595957 
L 198.270248 106.595957 
L 199.77438 106.595957 
L 201.278512 106.595957 
L 202.782645 106.595957 
L 204.286777 106.595957 
L 205.790909 106.595957 
L 207.295041 106.595957 
L 208.799174 106.595957 
L 210.303306 106.595957 
L 211.807438 106.595957 
L 213.31157 106.595957 
L 214.815702 106.595957 
L 216.319835 106.595957 
L 217.823967 106.595957 
L 219.328099 106.595957 
L 220.832231 106.595957 
L 222.336364 106.595957 
L 223.840496 106.595957 
L 225.344628 106.595957 
L 226.84876 106.595957 
L 228.352893 106.595957 
L 229.857025 106.595957 
L 231.361157 106.595957 
L 232.865289 106.595957 
L 234.369421 106.595957 
L 235.873554 106.595957 
L 237.377686 106.595957 
L 238.881818 106.595957 
L 240.38595 106.595957 
L 241.890083 106.595957 
L 243.394215 106.595957 
L 244.898347 106.595957 
L 246.402479 106.595957 
L 247.906612 106.595957 
L 249.410744 106.595957 
L 250.914876 106.595957 
L 252.419008 106.595957 
L 253.92314 106.595957 
L 255.427273 106.595957 
L 256.931405 106.595957 
L 258.435537 106.595957 
L 259.939669 106.595957 
L 261.443802 106.595957 
L 262.947934 106.595957 
L 264.452066 106.595957 
L 265.956198 106.595957 
L 267.460331 106.595957 
L 268.964463 106.595957 
L 270.468595 106.595957 
L 271.972727 106.595957 
L 273.47686 106.595957 
L 274.980992 106.595957 
L 276.485124 106.595957 
L 277.989256 106.595957 
L 279.493388 106.595957 
L 280.997521 106.595957 
L 282.501653 106.595957 
L 284.005785 106.595957 
L 285.509917 106.595957 
L 287.01405 106.595957 
L 288.518182 106.595957 
L 290.022314 106.595957 
L 291.526446 106.595957 
L 293.030579 106.595957 
L 294.534711 106.595957 
L 296.038843 106.595957 
L 297.542975 106.595957 
L 299.047107 106.595957 
L 300.55124 106.595957 
L 302.055372 106.595957 
L 303.559504 106.595957 
L 305.063636 106.595957 
L 306.567769 106.595957 
L 308.071901 106.595957 
L 309.576033 106.595957 
L 311.080165 106.595957 
L 312.584298 106.595957 
L 314.08843 106.595957 
L 315.592562 106.595957 
L 317.096694 106.595957 
L 318.600826 106.595957 
L 320.104959 106.595957 
L 321.609091 106.595957 
L 323.113223 106.595957 
L 324.617355 106.595957 
L 325.205929 106.595957 
L 325.205929 106.595957 
L 325.205929 108.809062 
L 326.121488 108.809062 
L 327.62562 108.809062 
L 329.129752 108.809062 
L 330.633884 108.809062 
L 332.138017 108.809062 
L 333.642149 108.809062 
L 335.146281 108.809062 
L 336.650413 108.809062 
L 338.154545 108.809062 
" style="fill:none;stroke:#d62728;stroke-linecap:square;stroke-width:1.5;"/>
   </g>
   <g id="patch_5">
    <path d="M 181.8 112.921875 
L 345.6 112.921875 
" style="fill:none;stroke:#000000;stroke-linecap:square;stroke-linejoin:miter;stroke-width:0.8;"/>
   </g>
   <g id="text_8">
    <!-- $\beta$ -->
    <defs>
     <path d="M 13.625 3.375 
L 8.9375 -20.796875 
L -0.09375 -20.796875 
L 14.5 54.34375 
Q 18.84375 76.609375 39.65625 76.609375 
Q 60.75 76.609375 57.171875 57.8125 
Q 54.734375 44.4375 45.21875 39.546875 
Q 58.015625 35.15625 55.515625 22.125 
Q 51.125 -1.078125 27.484375 -1.03125 
Q 17.140625 -0.984375 13.625 3.375 
z
M 15.921875 15.09375 
Q 19.671875 6.59375 29.296875 6.640625 
Q 43.359375 6.640625 46.34375 21.96875 
Q 49.03125 35.75 26.171875 34.671875 
L 27.78125 42.96875 
Q 45.453125 42.671875 48.53125 58.59375 
Q 50.640625 69.34375 39.203125 69.28125 
Q 26.421875 69.28125 23.484375 54.046875 
z
" id="DejaVuSans-Oblique-946"/>
    </defs>
    <g transform="translate(259.86 16.44)scale(0.12 -0.12)">
     <use transform="translate(0 0.390625)" xlink:href="#DejaVuSans-Oblique-946"/>
    </g>
   </g>
  </g>
 </g>
 <defs>
  <clipPath id="p11d29f57aa">
   <rect height="90.481875" width="163.8" x="7.2" y="22.44"/>
  </clipPath>
  <clipPath id="p035eb8257f">
   <rect height="90.481875" width="163.8" x="181.8" y="22.44"/>
  </clipPath>
 </defs>
</svg>
